G04*
G04 #@! TF.GenerationSoftware,Altium Limited,Altium Designer,24.9.1 (31)*
G04*
G04 Layer_Color=32768*
%FSLAX44Y44*%
%MOMM*%
G71*
G04*
G04 #@! TF.SameCoordinates,CAE1AE67-0460-43A2-896A-31C629D7927E*
G04*
G04*
G04 #@! TF.FilePolarity,Positive*
G04*
G01*
G75*
%ADD12C,0.2000*%
%ADD14C,0.1524*%
%ADD58C,0.1000*%
%ADD60C,0.0500*%
G36*
X327660Y187960D02*
Y180467D01*
X424180D01*
Y187960D01*
X429260D01*
Y269240D01*
X424180D01*
Y276733D01*
X327660D01*
Y269240D01*
X322580D01*
Y187960D01*
X327660D01*
D02*
G37*
D12*
X267690Y32030D02*
Y79730D01*
X169190Y32030D02*
X267690D01*
X169190D02*
Y79730D01*
X267690D01*
X381280Y104420D02*
Y164820D01*
Y104420D02*
X441680D01*
Y164820D01*
X381280D02*
X441680D01*
X213030Y211390D02*
X267030D01*
X213030Y167490D02*
Y211390D01*
Y167490D02*
X267030D01*
Y211390D01*
X308038Y372110D02*
X375920Y304228D01*
X443802Y372110D01*
X375920Y439992D02*
X443802Y372110D01*
X308038D02*
X375920Y439992D01*
X475970Y103140D02*
Y155940D01*
X453670Y103140D02*
X475970D01*
X453670D02*
Y155940D01*
X475970D01*
X269570Y246230D02*
Y290130D01*
X215570Y246230D02*
X269570D01*
X215570D02*
Y290130D01*
X269570D01*
X442240Y180620D02*
X502640D01*
Y241020D01*
X442240D02*
X502640D01*
X442240Y180620D02*
Y241020D01*
D14*
X327660Y276733D02*
X424180D01*
Y269240D02*
Y276733D01*
Y180467D02*
Y187960D01*
X327660Y180467D02*
X424180D01*
X327660D02*
Y187960D01*
Y269240D02*
Y276733D01*
X322580Y269240D02*
X327660D01*
X424180D02*
X429260D01*
Y187960D02*
Y269240D01*
X424180Y187960D02*
X429260D01*
X322580D02*
X327660D01*
X322580D02*
Y269240D01*
D58*
X318442Y343186D02*
X324178Y334994D01*
X317214Y336222D02*
X325406Y341958D01*
X224790Y144860D02*
Y154860D01*
X219790Y149860D02*
X229790D01*
X171450Y144860D02*
Y154860D01*
X166450Y149860D02*
X176450D01*
X458550Y342900D02*
X468550D01*
X463550Y337900D02*
Y347900D01*
Y384890D02*
Y394890D01*
X458550Y389890D02*
X468550D01*
X347980Y292180D02*
Y302180D01*
X342980Y297180D02*
X352980D01*
X189310Y116840D02*
X199310D01*
X194310Y111840D02*
Y121840D01*
X158830Y195580D02*
X168830D01*
X163830Y190580D02*
Y200580D01*
X513160Y165100D02*
X523160D01*
X518160Y160100D02*
Y170100D01*
X541100Y165100D02*
X551100D01*
X546100Y160100D02*
Y170100D01*
X624840Y160100D02*
Y170100D01*
X619840Y165100D02*
X629840D01*
X579200Y200660D02*
X589200D01*
X584200Y195660D02*
Y205660D01*
X472440Y266780D02*
Y276780D01*
X467440Y271780D02*
X477440D01*
X235030Y228600D02*
X245030D01*
X240030Y223600D02*
Y233600D01*
X194310Y254080D02*
Y264080D01*
X189310Y259080D02*
X199310D01*
X194310Y190580D02*
Y200580D01*
X189310Y195580D02*
X199310D01*
X363220Y144860D02*
Y154860D01*
X358220Y149860D02*
X368220D01*
X398860Y297180D02*
X408860D01*
X403860Y292180D02*
Y302180D01*
X158830Y259080D02*
X168830D01*
X163830Y254080D02*
Y264080D01*
X698500Y220000D02*
Y230000D01*
X693500Y225000D02*
X703500D01*
D60*
X325369Y313244D02*
X344209Y326436D01*
X298411Y351744D02*
X317251Y364936D01*
X298411Y351744D02*
X325369Y313244D01*
X317251Y364936D02*
X344209Y326436D01*
X202290Y138860D02*
X247290D01*
X202290Y160860D02*
X247290D01*
Y138860D02*
Y160860D01*
X202290Y138860D02*
Y160860D01*
X148950Y138860D02*
X193950D01*
X148950Y160860D02*
X193950D01*
Y138860D02*
Y160860D01*
X148950Y138860D02*
Y160860D01*
X445550Y319400D02*
X481550D01*
Y366400D01*
X445550D02*
X481550D01*
X445550Y319400D02*
Y366400D01*
X441050Y400890D02*
X486050D01*
X441050Y378890D02*
X486050D01*
X441050D02*
Y400890D01*
X486050Y378890D02*
Y400890D01*
X325480Y308180D02*
X370480D01*
X325480Y286180D02*
X370480D01*
X325480D02*
Y308180D01*
X370480Y286180D02*
Y308180D01*
X180810Y100840D02*
Y132840D01*
X207810Y100840D02*
Y132840D01*
X180810Y100840D02*
X207810D01*
X180810Y132840D02*
X207810D01*
X152830Y167640D02*
Y223520D01*
X174830Y167640D02*
Y223520D01*
X152830Y167640D02*
X174830D01*
X152830Y223520D02*
X174830D01*
X529160Y142600D02*
Y187600D01*
X507160Y142600D02*
Y187600D01*
X529160D01*
X507160Y142600D02*
X529160D01*
X557100D02*
Y187600D01*
X535100Y142600D02*
Y187600D01*
X557100D01*
X535100Y142600D02*
X557100D01*
X613340Y141600D02*
X636340D01*
X613340Y188600D02*
X636340D01*
X613340Y141600D02*
Y188600D01*
X636340Y141600D02*
Y188600D01*
X561700Y189660D02*
Y211660D01*
X606700Y189660D02*
Y211660D01*
X561700D02*
X606700D01*
X561700Y189660D02*
X606700D01*
X461440Y294280D02*
X483440D01*
X461440Y249280D02*
X483440D01*
Y294280D01*
X461440Y249280D02*
Y294280D01*
X217530Y217600D02*
Y239600D01*
X262530Y217600D02*
Y239600D01*
X217530D02*
X262530D01*
X217530Y217600D02*
X262530D01*
X183310Y281580D02*
X205310D01*
X183310Y236580D02*
X205310D01*
Y281580D01*
X183310Y236580D02*
Y281580D01*
Y218080D02*
X205310D01*
X183310Y173080D02*
X205310D01*
Y218080D01*
X183310Y173080D02*
Y218080D01*
X352220Y172360D02*
X374220D01*
X352220Y127360D02*
X374220D01*
Y172360D01*
X352220Y127360D02*
Y172360D01*
X381360Y286180D02*
Y308180D01*
X426360Y286180D02*
Y308180D01*
X381360D02*
X426360D01*
X381360Y286180D02*
X426360D01*
X152830Y231140D02*
Y287020D01*
X174830Y231140D02*
Y287020D01*
X152830Y231140D02*
X174830D01*
X152830Y287020D02*
X174830D01*
X657000Y276799D02*
X740001D01*
X657001Y167501D02*
Y276799D01*
X740001Y167501D02*
Y276799D01*
X657001Y167501D02*
X740001D01*
M02*
