G04*
G04 #@! TF.GenerationSoftware,Altium Limited,Altium Designer,24.9.1 (31)*
G04*
G04 Layer_Color=8421504*
%FSLAX44Y44*%
%MOMM*%
G71*
G04*
G04 #@! TF.SameCoordinates,CAE1AE67-0460-43A2-896A-31C629D7927E*
G04*
G04*
G04 #@! TF.FilePolarity,Positive*
G04*
G01*
G75*
G04:AMPARAMS|DCode=15|XSize=1.8mm|YSize=1.3mm|CornerRadius=0mm|HoleSize=0mm|Usage=FLASHONLY|Rotation=215.000|XOffset=0mm|YOffset=0mm|HoleType=Round|Shape=Rectangle|*
%AMROTATEDRECTD15*
4,1,4,0.3644,1.0487,1.1101,-0.0162,-0.3644,-1.0487,-1.1101,0.0162,0.3644,1.0487,0.0*
%
%ADD15ROTATEDRECTD15*%

%ADD16R,1.2000X1.6500*%
%ADD17R,1.1000X1.6000*%
%ADD18R,1.6000X1.6000*%
%ADD19R,0.7000X0.9000*%
%ADD20R,1.6000X1.5000*%
%ADD21R,1.6500X1.2000*%
%ADD22R,1.8000X1.3000*%
%ADD23R,2.0300X1.4000*%
%ADD24C,0.8000*%
D15*
X329627Y327212D02*
D03*
X312993Y350968D02*
D03*
D16*
X238790Y149860D02*
D03*
X210790D02*
D03*
X185450D02*
D03*
X157450D02*
D03*
X449550Y389890D02*
D03*
X477550D02*
D03*
X333980Y297180D02*
D03*
X361980D02*
D03*
X570200Y200660D02*
D03*
X598200D02*
D03*
X226030Y228600D02*
D03*
X254030D02*
D03*
X389860Y297180D02*
D03*
X417860D02*
D03*
D17*
X475050Y357400D02*
D03*
X452050D02*
D03*
D18*
X463550Y328400D02*
D03*
D19*
X194310Y107340D02*
D03*
X187810Y126340D02*
D03*
X200810D02*
D03*
D20*
X163830Y177580D02*
D03*
Y213580D02*
D03*
Y241080D02*
D03*
Y277080D02*
D03*
D21*
X518160Y179100D02*
D03*
Y151100D02*
D03*
X546100Y179100D02*
D03*
Y151100D02*
D03*
X472440Y285780D02*
D03*
Y257780D02*
D03*
X194310Y273080D02*
D03*
Y245080D02*
D03*
Y209580D02*
D03*
Y181580D02*
D03*
X363220Y163860D02*
D03*
Y135860D02*
D03*
D22*
X624840Y150600D02*
D03*
Y179600D02*
D03*
D23*
X464820Y147940D02*
D03*
Y111140D02*
D03*
D24*
X291120Y66040D02*
X304800D01*
X287020Y70141D02*
Y190500D01*
Y70141D02*
X291120Y66040D01*
X304800D02*
X482600D01*
X287020Y368300D02*
Y414414D01*
X291706Y419100D02*
X342900D01*
X419100D02*
X469900D01*
X482600Y66040D02*
X533400D01*
X584200D01*
X635000D01*
X647700Y165100D02*
Y215900D01*
Y114300D02*
Y165100D01*
Y70141D02*
Y114300D01*
Y266700D02*
Y413228D01*
X520700Y419100D02*
X571500D01*
X469900D02*
X520700D01*
X571500D02*
X622300D01*
X647700Y215900D02*
Y266700D01*
X287020Y414414D02*
X291706Y419100D01*
X287020Y190500D02*
Y215900D01*
Y241300D01*
Y266700D01*
Y292100D01*
Y317500D02*
Y342900D01*
Y292100D02*
Y317500D01*
Y342900D02*
Y368300D01*
X641828Y419100D02*
X647700Y413228D01*
X622300Y419100D02*
X641828D01*
X342900D02*
X419100D01*
X635000Y66040D02*
X643599D01*
X647700Y70141D01*
M02*
