G04*
G04 #@! TF.GenerationSoftware,Altium Limited,Altium Designer,24.9.1 (31)*
G04*
G04 Layer_Physical_Order=1*
G04 Layer_Color=255*
%FSLAX44Y44*%
%MOMM*%
G71*
G04*
G04 #@! TF.SameCoordinates,CAE1AE67-0460-43A2-896A-31C629D7927E*
G04*
G04*
G04 #@! TF.FilePolarity,Positive*
G04*
G01*
G75*
%ADD11C,0.5000*%
%ADD13C,0.2500*%
G04:AMPARAMS|DCode=15|XSize=1.8mm|YSize=1.3mm|CornerRadius=0mm|HoleSize=0mm|Usage=FLASHONLY|Rotation=215.000|XOffset=0mm|YOffset=0mm|HoleType=Round|Shape=Rectangle|*
%AMROTATEDRECTD15*
4,1,4,0.3644,1.0487,1.1101,-0.0162,-0.3644,-1.0487,-1.1101,0.0162,0.3644,1.0487,0.0*
%
%ADD15ROTATEDRECTD15*%

%ADD16R,1.2000X1.6500*%
%ADD17R,1.1000X1.6000*%
%ADD18R,1.6000X1.6000*%
%ADD19R,0.7000X0.9000*%
%ADD20R,1.6000X1.5000*%
%ADD21R,1.6500X1.2000*%
%ADD22R,1.8000X1.3000*%
%ADD23R,2.0300X1.4000*%
%ADD24C,0.8000*%
%ADD33R,1.5200X1.5200*%
%ADD34C,1.5200*%
%ADD35C,1.2000*%
%ADD36R,1.2000X1.2000*%
%ADD37R,1.4986X1.4986*%
%ADD38C,1.4986*%
%ADD39C,2.7200*%
%ADD40C,1.4500*%
%ADD41P,1.6971X4X90.0*%
%ADD45C,1.1000*%
%ADD46R,1.1000X1.1000*%
%ADD49C,0.2540*%
%ADD50C,6.0000*%
%ADD51C,1.8000*%
%ADD52R,1.8000X1.8000*%
%ADD53C,0.8000*%
%ADD54C,0.6000*%
G36*
X217170Y139700D02*
X212090D01*
X204470Y132080D01*
Y121920D01*
X196850D01*
Y132080D01*
X191770Y137160D01*
X184150D01*
X179070Y142240D01*
Y158191D01*
X217170D01*
Y139700D01*
D02*
G37*
G36*
X133350Y98806D02*
X155956Y76200D01*
X195580D01*
Y40640D01*
X124460D01*
X71120Y93980D01*
Y218440D01*
X133350D01*
Y98806D01*
D02*
G37*
D11*
X624840Y179600D02*
Y199920D01*
Y131580D02*
Y150600D01*
X698180Y199920D02*
X698500Y199600D01*
X598940Y199920D02*
X624840D01*
X598200Y200660D02*
X598940Y199920D01*
X546100Y200660D02*
X570200D01*
X451520Y356870D02*
X452050Y357400D01*
X435610Y356870D02*
X451520D01*
X492760Y210820D02*
X502920Y200660D01*
X459740Y210820D02*
X492760D01*
X502920Y200660D02*
X546100D01*
Y179100D02*
Y200660D01*
X157450Y149860D02*
X157465Y149845D01*
Y133365D02*
X157480Y133350D01*
X157465Y133365D02*
Y149845D01*
X444530Y328400D02*
X463550D01*
X417860Y297180D02*
Y316200D01*
X546100Y132080D02*
Y151100D01*
X518160Y132080D02*
Y151100D01*
X472440Y285780D02*
Y304800D01*
X194310Y93980D02*
Y107340D01*
X464820Y92120D02*
Y111140D01*
X144810Y277080D02*
X163830D01*
X144810Y213580D02*
X163830D01*
X314960Y297180D02*
X333980D01*
X194310Y273080D02*
X218599D01*
X227299Y264380D01*
X229870D01*
X192060Y245080D02*
X194310D01*
X163830Y241080D02*
X188060D01*
X192060Y245080D01*
X163830Y177580D02*
X188060D01*
X192060Y181580D01*
X194310D01*
X238790Y149860D02*
X239620Y150690D01*
Y197930D02*
X240030Y198340D01*
X239620Y150690D02*
Y197930D01*
X242570Y242310D02*
X254030Y230850D01*
Y228600D02*
Y230850D01*
X242570Y242310D02*
Y277080D01*
X226680Y186290D02*
Y227950D01*
X226030Y228600D02*
X226680Y227950D01*
Y186290D02*
X227330Y185640D01*
X222530Y222850D02*
X226030Y226350D01*
X220280Y222850D02*
X222530D01*
X210060Y212630D02*
X220280Y222850D01*
X197360Y212630D02*
X210060D01*
X226030Y226350D02*
Y228600D01*
X194310Y209580D02*
X197360Y212630D01*
D13*
X363220Y163860D02*
Y190500D01*
X414020D02*
X464820D01*
X472440Y198120D01*
X491460Y179100D01*
X518160D01*
D15*
X329627Y327212D02*
D03*
X312993Y350968D02*
D03*
D16*
X238790Y149860D02*
D03*
X210790D02*
D03*
X185450D02*
D03*
X157450D02*
D03*
X449550Y389890D02*
D03*
X477550D02*
D03*
X333980Y297180D02*
D03*
X361980D02*
D03*
X570200Y200660D02*
D03*
X598200D02*
D03*
X226030Y228600D02*
D03*
X254030D02*
D03*
X389860Y297180D02*
D03*
X417860D02*
D03*
D17*
X475050Y357400D02*
D03*
X452050D02*
D03*
D18*
X463550Y328400D02*
D03*
D19*
X194310Y107340D02*
D03*
X187810Y126340D02*
D03*
X200810D02*
D03*
D20*
X163830Y177580D02*
D03*
Y213580D02*
D03*
Y241080D02*
D03*
Y277080D02*
D03*
D21*
X518160Y179100D02*
D03*
Y151100D02*
D03*
X546100Y179100D02*
D03*
Y151100D02*
D03*
X472440Y285780D02*
D03*
Y257780D02*
D03*
X194310Y273080D02*
D03*
Y245080D02*
D03*
Y209580D02*
D03*
Y181580D02*
D03*
X363220Y163860D02*
D03*
Y135860D02*
D03*
D22*
X624840Y150600D02*
D03*
Y179600D02*
D03*
D23*
X464820Y147940D02*
D03*
Y111140D02*
D03*
D24*
X291120Y66040D02*
X304800D01*
X287020Y70141D02*
Y190500D01*
Y70141D02*
X291120Y66040D01*
X304800D02*
X482600D01*
X287020Y368300D02*
Y414414D01*
X291706Y419100D02*
X342900D01*
X419100D02*
X469900D01*
X482600Y66040D02*
X533400D01*
X584200D01*
X635000D01*
X647700Y165100D02*
Y215900D01*
Y114300D02*
Y165100D01*
Y70141D02*
Y114300D01*
Y266700D02*
Y413228D01*
X520700Y419100D02*
X571500D01*
X469900D02*
X520700D01*
X571500D02*
X622300D01*
X647700Y215900D02*
Y266700D01*
X287020Y414414D02*
X291706Y419100D01*
X287020Y190500D02*
Y215900D01*
Y241300D01*
Y266700D01*
Y292100D01*
Y317500D02*
Y342900D01*
Y292100D02*
Y317500D01*
Y342900D02*
Y368300D01*
X641828Y419100D02*
X647700Y413228D01*
X622300Y419100D02*
X641828D01*
X342900D02*
X419100D01*
X635000Y66040D02*
X643599D01*
X647700Y70141D01*
D33*
X180690Y55880D02*
D03*
D34*
X256190D02*
D03*
D35*
X411480Y121920D02*
D03*
X398780Y134620D02*
D03*
X350520Y372110D02*
D03*
X393881Y390070D02*
D03*
X357960Y354150D02*
D03*
Y390070D02*
D03*
X401320Y372110D02*
D03*
D36*
X411480Y147320D02*
D03*
D37*
X414020Y266700D02*
D03*
D38*
X388620D02*
D03*
X363220D02*
D03*
X337820D02*
D03*
Y190500D02*
D03*
X363220D02*
D03*
X388620D02*
D03*
X414020D02*
D03*
D39*
X118850Y160000D02*
D03*
X88850Y206350D02*
D03*
Y113650D02*
D03*
Y240650D02*
D03*
Y333350D02*
D03*
X118850Y287000D02*
D03*
D40*
X252730Y185640D02*
D03*
X240030Y198340D02*
D03*
X227330Y185640D02*
D03*
X229870Y264380D02*
D03*
X242570Y277080D02*
D03*
X255270Y264380D02*
D03*
D41*
X393881Y354150D02*
D03*
D45*
X459740Y210820D02*
D03*
X472440Y198120D02*
D03*
D46*
Y223520D02*
D03*
D49*
X431800Y238760D02*
Y341630D01*
X401320Y372110D02*
X431800Y341630D01*
Y238760D02*
X459740Y210820D01*
X350520Y372110D02*
X401320D01*
X361980Y297180D02*
Y350129D01*
X357960Y354150D02*
X361980Y350129D01*
Y287660D02*
X363220Y286420D01*
Y266700D02*
Y286420D01*
X361980Y287660D02*
Y297180D01*
X335268Y356858D02*
X350520Y372110D01*
X321406Y356858D02*
X335268D01*
X312993Y350968D02*
X321406Y356858D01*
X338040Y334230D02*
X357960Y354150D01*
X338040Y333103D02*
Y334230D01*
X329627Y327212D02*
X338040Y333103D01*
X389860Y350129D02*
X393881Y354150D01*
X389860Y287660D02*
Y297180D01*
X388620Y286420D02*
X389860Y287660D01*
X388620Y266700D02*
Y286420D01*
X389860Y297180D02*
Y350129D01*
X393881Y390070D02*
X449370D01*
X449550Y389890D01*
X477520Y373380D02*
Y389860D01*
X477550Y389890D01*
X475050Y370910D02*
X477520Y373380D01*
X475050Y357400D02*
Y370910D01*
X363220Y135860D02*
X364460Y134620D01*
X398780D01*
X411480Y147320D02*
X412100Y147940D01*
X464820D01*
X472440Y223520D02*
Y257780D01*
D50*
X700000Y400000D02*
D03*
X50000Y50000D02*
D03*
X700000D02*
D03*
X50000Y400000D02*
D03*
D51*
X698500Y250400D02*
D03*
D52*
Y199600D02*
D03*
D53*
X624840Y199920D02*
D03*
Y131580D02*
D03*
X647700Y391160D02*
D03*
Y342900D02*
D03*
Y292100D02*
D03*
Y241300D02*
D03*
Y190500D02*
D03*
Y139700D02*
D03*
X647715Y89347D02*
D03*
X609600Y66040D02*
D03*
X558800D02*
D03*
X508000D02*
D03*
X457200D02*
D03*
X406400D02*
D03*
X381000D02*
D03*
X355600D02*
D03*
X304800D02*
D03*
X287020Y88900D02*
D03*
Y114300D02*
D03*
Y139700D02*
D03*
Y165100D02*
D03*
Y190500D02*
D03*
Y215900D02*
D03*
Y241300D02*
D03*
Y266700D02*
D03*
Y292100D02*
D03*
Y317500D02*
D03*
Y342900D02*
D03*
Y393700D02*
D03*
Y368300D02*
D03*
X317500Y419100D02*
D03*
X444500D02*
D03*
X495300D02*
D03*
X546100D02*
D03*
X596900D02*
D03*
X330200Y66040D02*
D03*
X431800D02*
D03*
X435610Y356870D02*
D03*
X157480Y133350D02*
D03*
X444530Y328400D02*
D03*
X417860Y316200D02*
D03*
X546100Y132080D02*
D03*
X518160D02*
D03*
X472440Y304800D02*
D03*
X194310Y93980D02*
D03*
X464820Y92120D02*
D03*
X144810Y277080D02*
D03*
Y213580D02*
D03*
X314960Y297180D02*
D03*
D54*
X647700Y368300D02*
D03*
Y317500D02*
D03*
Y266700D02*
D03*
Y215900D02*
D03*
Y165100D02*
D03*
X622300Y419100D02*
D03*
X571500D02*
D03*
X520700D02*
D03*
X469900D02*
D03*
X419100D02*
D03*
X342900D02*
D03*
X482600Y66040D02*
D03*
X533400D02*
D03*
X584200D02*
D03*
X635000D02*
D03*
X647700Y114300D02*
D03*
X715875Y416364D02*
D03*
X684125Y383636D02*
D03*
X715875D02*
D03*
X684125Y416364D02*
D03*
X722860Y400000D02*
D03*
X677140D02*
D03*
X700000Y377140D02*
D03*
Y422860D02*
D03*
X65876Y66364D02*
D03*
X34125Y33636D02*
D03*
X65876D02*
D03*
X34125Y66364D02*
D03*
X72860Y50000D02*
D03*
X27140D02*
D03*
X50000Y27140D02*
D03*
Y72860D02*
D03*
X715875Y66364D02*
D03*
X684125Y33636D02*
D03*
X715875D02*
D03*
X684125Y66364D02*
D03*
X722860Y50000D02*
D03*
X677140D02*
D03*
X700000Y27140D02*
D03*
Y72860D02*
D03*
X65876Y416364D02*
D03*
X34125Y383636D02*
D03*
X65876D02*
D03*
X34125Y416364D02*
D03*
X72860Y400000D02*
D03*
X27140D02*
D03*
X50000Y377140D02*
D03*
Y422860D02*
D03*
M02*
