G04*
G04 #@! TF.GenerationSoftware,Altium Limited,Altium Designer,24.9.1 (31)*
G04*
G04 Layer_Physical_Order=2*
G04 Layer_Color=36540*
%FSLAX44Y44*%
%MOMM*%
G71*
G04*
G04 #@! TF.SameCoordinates,CAE1AE67-0460-43A2-896A-31C629D7927E*
G04*
G04*
G04 #@! TF.FilePolarity,Positive*
G04*
G01*
G75*
%ADD33R,1.5200X1.5200*%
%ADD34C,1.5200*%
%ADD35C,1.2000*%
%ADD36R,1.2000X1.2000*%
%ADD39C,2.7200*%
%ADD40C,1.4500*%
%ADD41P,1.6971X4X90.0*%
%ADD45C,1.1000*%
%ADD46R,1.1000X1.1000*%
%ADD50C,6.0000*%
%ADD51C,1.8000*%
%ADD52R,1.8000X1.8000*%
%ADD53C,0.8000*%
%ADD54C,0.6000*%
%ADD55C,1.5240*%
G36*
X59495Y446391D02*
X690505Y446391D01*
X690740Y446437D01*
X697808Y445974D01*
X704986Y444546D01*
X711915Y442194D01*
X718479Y438957D01*
X724564Y434891D01*
X730066Y430066D01*
X734891Y424564D01*
X738957Y418479D01*
X742194Y411915D01*
X744546Y404986D01*
X745974Y397808D01*
X746437Y390740D01*
X746391Y390505D01*
Y59495D01*
X746437Y59260D01*
X745974Y52192D01*
X744546Y45015D01*
X742194Y38085D01*
X738957Y31521D01*
X734891Y25436D01*
X730066Y19934D01*
X724564Y15109D01*
X718479Y11043D01*
X711915Y7806D01*
X704986Y5454D01*
X697808Y4026D01*
X690740Y3563D01*
X690505Y3609D01*
X59495Y3609D01*
X59260Y3563D01*
X52192Y4026D01*
X45015Y5454D01*
X38085Y7806D01*
X31521Y11043D01*
X25436Y15109D01*
X19934Y19934D01*
X15109Y25436D01*
X11043Y31521D01*
X7806Y38085D01*
X5454Y45015D01*
X4026Y52192D01*
X3563Y59260D01*
X3609Y59495D01*
Y390505D01*
X3563Y390740D01*
X4026Y397808D01*
X5454Y404985D01*
X7806Y411915D01*
X11043Y418479D01*
X15109Y424564D01*
X19934Y430066D01*
X25436Y434891D01*
X31521Y438957D01*
X38085Y442194D01*
X45015Y444546D01*
X52192Y445974D01*
X59260Y446437D01*
X59495Y446391D01*
D02*
G37*
%LPC*%
G36*
X395005Y398610D02*
X392756D01*
X390584Y398028D01*
X388637Y396904D01*
X387047Y395314D01*
X385923Y393367D01*
X385340Y391195D01*
Y388946D01*
X385923Y386774D01*
X387047Y384827D01*
X388637Y383237D01*
X390584Y382113D01*
X392756Y381530D01*
X395005D01*
X397177Y382113D01*
X399124Y383237D01*
X400714Y384827D01*
X401838Y386774D01*
X402421Y388946D01*
Y391195D01*
X401838Y393367D01*
X400714Y395314D01*
X399124Y396904D01*
X397177Y398028D01*
X395005Y398610D01*
D02*
G37*
G36*
X359084D02*
X356835D01*
X354663Y398028D01*
X352716Y396904D01*
X351126Y395314D01*
X350001Y393367D01*
X349420Y391195D01*
Y388946D01*
X350001Y386774D01*
X351126Y384827D01*
X352716Y383237D01*
X354663Y382113D01*
X356835Y381530D01*
X359084D01*
X361256Y382113D01*
X363203Y383237D01*
X364793Y384827D01*
X365918Y386774D01*
X366499Y388946D01*
Y391195D01*
X365918Y393367D01*
X364793Y395314D01*
X363203Y396904D01*
X361256Y398028D01*
X359084Y398610D01*
D02*
G37*
G36*
X402444Y380650D02*
X400196D01*
X398024Y380068D01*
X396076Y378944D01*
X394486Y377354D01*
X393362Y375406D01*
X392780Y373234D01*
Y370986D01*
X393362Y368814D01*
X394198Y367365D01*
X393884Y366239D01*
X393669Y366015D01*
X381803Y354150D01*
X393881Y342072D01*
X405958Y354150D01*
X396600Y363508D01*
X397379Y364524D01*
X398024Y364152D01*
X400196Y363570D01*
X402444D01*
X404616Y364152D01*
X406564Y365276D01*
X408154Y366866D01*
X409278Y368814D01*
X409860Y370986D01*
Y373234D01*
X409278Y375406D01*
X408154Y377354D01*
X406564Y378944D01*
X404616Y380068D01*
X402444Y380650D01*
D02*
G37*
G36*
X351644D02*
X349396D01*
X347224Y380068D01*
X345276Y378944D01*
X343686Y377354D01*
X342562Y375406D01*
X341980Y373234D01*
Y370986D01*
X342562Y368814D01*
X343686Y366866D01*
X345276Y365276D01*
X347224Y364152D01*
X349396Y363570D01*
X351644D01*
X353816Y364152D01*
X355764Y365276D01*
X357354Y366866D01*
X358478Y368814D01*
X359060Y370986D01*
Y373234D01*
X358478Y375406D01*
X357354Y377354D01*
X355764Y378944D01*
X353816Y380068D01*
X351644Y380650D01*
D02*
G37*
G36*
X359084Y362690D02*
X356835D01*
X354663Y362108D01*
X352716Y360983D01*
X351126Y359393D01*
X350001Y357446D01*
X349420Y355274D01*
Y353025D01*
X350001Y350853D01*
X351126Y348906D01*
X352716Y347316D01*
X354663Y346191D01*
X356835Y345610D01*
X359084D01*
X361256Y346191D01*
X363203Y347316D01*
X364793Y348906D01*
X365918Y350853D01*
X366499Y353025D01*
Y355274D01*
X365918Y357446D01*
X364793Y359393D01*
X363203Y360983D01*
X361256Y362108D01*
X359084Y362690D01*
D02*
G37*
G36*
X418721Y322740D02*
X416999D01*
X415336Y322294D01*
X413844Y321433D01*
X412627Y320216D01*
X411766Y318724D01*
X411320Y317061D01*
Y315339D01*
X411766Y313676D01*
X412627Y312184D01*
X413844Y310967D01*
X415336Y310106D01*
X416999Y309660D01*
X418721D01*
X420384Y310106D01*
X421876Y310967D01*
X423093Y312184D01*
X423954Y313676D01*
X424400Y315339D01*
Y317061D01*
X423954Y318724D01*
X423093Y320216D01*
X421876Y321433D01*
X420384Y322294D01*
X418721Y322740D01*
D02*
G37*
G36*
X315821Y303720D02*
X314099D01*
X312436Y303274D01*
X310944Y302413D01*
X309727Y301196D01*
X308866Y299704D01*
X308420Y298041D01*
Y296319D01*
X308866Y294656D01*
X309727Y293164D01*
X310944Y291947D01*
X312436Y291086D01*
X314099Y290640D01*
X315821D01*
X317484Y291086D01*
X318976Y291947D01*
X320193Y293164D01*
X321054Y294656D01*
X321500Y296319D01*
Y298041D01*
X321054Y299704D01*
X320193Y301196D01*
X318976Y302413D01*
X317484Y303274D01*
X315821Y303720D01*
D02*
G37*
G36*
X243859Y286870D02*
X241281D01*
X238791Y286203D01*
X236559Y284914D01*
X234736Y283091D01*
X233447Y280859D01*
X232780Y278369D01*
Y275791D01*
X233045Y274803D01*
X232147Y273905D01*
X231159Y274170D01*
X228581D01*
X226091Y273503D01*
X223859Y272214D01*
X222036Y270391D01*
X220747Y268159D01*
X220080Y265669D01*
Y263091D01*
X220747Y260601D01*
X222036Y258369D01*
X223859Y256546D01*
X226091Y255257D01*
X228581Y254590D01*
X231159D01*
X233649Y255257D01*
X235881Y256546D01*
X237704Y258369D01*
X238993Y260601D01*
X239660Y263091D01*
Y265669D01*
X239395Y266657D01*
X240293Y267555D01*
X241281Y267290D01*
X243859D01*
X246349Y267957D01*
X248581Y269246D01*
X250404Y271069D01*
X251693Y273301D01*
X252360Y275791D01*
Y278369D01*
X251693Y280859D01*
X250404Y283091D01*
X248581Y284914D01*
X246349Y286203D01*
X243859Y286870D01*
D02*
G37*
G36*
X145671Y283620D02*
X143949D01*
X142286Y283174D01*
X140794Y282313D01*
X139577Y281096D01*
X138716Y279604D01*
X138270Y277941D01*
Y276219D01*
X138716Y274556D01*
X139577Y273064D01*
X140794Y271847D01*
X142286Y270986D01*
X143949Y270540D01*
X145671D01*
X147334Y270986D01*
X148826Y271847D01*
X150043Y273064D01*
X150904Y274556D01*
X151350Y276219D01*
Y277941D01*
X150904Y279604D01*
X150043Y281096D01*
X148826Y282313D01*
X147334Y283174D01*
X145671Y283620D01*
D02*
G37*
G36*
X415358Y276860D02*
X412682D01*
X410098Y276168D01*
X407782Y274830D01*
X405890Y272938D01*
X404552Y270622D01*
X403860Y268038D01*
Y265362D01*
X404552Y262778D01*
X405890Y260462D01*
X407782Y258570D01*
X410098Y257232D01*
X412682Y256540D01*
X415358D01*
X417942Y257232D01*
X420258Y258570D01*
X422150Y260462D01*
X423488Y262778D01*
X424180Y265362D01*
Y268038D01*
X423488Y270622D01*
X422150Y272938D01*
X420258Y274830D01*
X417942Y276168D01*
X415358Y276860D01*
D02*
G37*
G36*
X389958D02*
X387282D01*
X384698Y276168D01*
X382382Y274830D01*
X380490Y272938D01*
X379152Y270622D01*
X378460Y268038D01*
Y265362D01*
X379152Y262778D01*
X380490Y260462D01*
X382382Y258570D01*
X384698Y257232D01*
X387282Y256540D01*
X389958D01*
X392542Y257232D01*
X394858Y258570D01*
X396750Y260462D01*
X398088Y262778D01*
X398780Y265362D01*
Y268038D01*
X398088Y270622D01*
X396750Y272938D01*
X394858Y274830D01*
X392542Y276168D01*
X389958Y276860D01*
D02*
G37*
G36*
X364558D02*
X361882D01*
X359298Y276168D01*
X356982Y274830D01*
X355090Y272938D01*
X353752Y270622D01*
X353060Y268038D01*
Y265362D01*
X353752Y262778D01*
X355090Y260462D01*
X356982Y258570D01*
X359298Y257232D01*
X361882Y256540D01*
X364558D01*
X367142Y257232D01*
X369458Y258570D01*
X371350Y260462D01*
X372688Y262778D01*
X373380Y265362D01*
Y268038D01*
X372688Y270622D01*
X371350Y272938D01*
X369458Y274830D01*
X367142Y276168D01*
X364558Y276860D01*
D02*
G37*
G36*
X480480Y231560D02*
X464400D01*
Y218683D01*
X463300Y218048D01*
X462843Y218312D01*
X460798Y218860D01*
X458681D01*
X456637Y218312D01*
X454803Y217254D01*
X453306Y215757D01*
X452248Y213923D01*
X451700Y211879D01*
Y209762D01*
X452248Y207717D01*
X453306Y205883D01*
X454803Y204386D01*
X456637Y203328D01*
X458681Y202780D01*
X460798D01*
X462843Y203328D01*
X464677Y204386D01*
X466174Y205883D01*
X467232Y207717D01*
X467780Y209762D01*
Y211879D01*
X467232Y213923D01*
X466968Y214380D01*
X467603Y215480D01*
X480480D01*
Y231560D01*
D02*
G37*
G36*
X145671Y220120D02*
X143949D01*
X142286Y219674D01*
X140794Y218813D01*
X139577Y217596D01*
X138716Y216104D01*
X138270Y214441D01*
Y212719D01*
X138716Y211056D01*
X139577Y209564D01*
X140794Y208347D01*
X142286Y207486D01*
X143949Y207040D01*
X145671D01*
X147334Y207486D01*
X148826Y208347D01*
X150043Y209564D01*
X150904Y211056D01*
X151350Y212719D01*
Y214441D01*
X150904Y216104D01*
X150043Y217596D01*
X148826Y218813D01*
X147334Y219674D01*
X145671Y220120D01*
D02*
G37*
G36*
X241319Y208130D02*
X238741D01*
X236251Y207463D01*
X234019Y206174D01*
X232196Y204351D01*
X230907Y202119D01*
X230240Y199629D01*
Y197051D01*
X230505Y196063D01*
X229607Y195165D01*
X228619Y195430D01*
X226041D01*
X223551Y194763D01*
X221319Y193474D01*
X219496Y191651D01*
X218207Y189419D01*
X217540Y186929D01*
Y184351D01*
X218207Y181861D01*
X219496Y179629D01*
X221319Y177806D01*
X223551Y176517D01*
X226041Y175850D01*
X228619D01*
X231109Y176517D01*
X233341Y177806D01*
X235164Y179629D01*
X236453Y181861D01*
X237120Y184351D01*
Y186929D01*
X236855Y187917D01*
X237753Y188815D01*
X238741Y188550D01*
X241319D01*
X243809Y189217D01*
X246041Y190506D01*
X247864Y192329D01*
X249153Y194561D01*
X249820Y197051D01*
Y199629D01*
X249153Y202119D01*
X247864Y204351D01*
X246041Y206174D01*
X243809Y207463D01*
X241319Y208130D01*
D02*
G37*
G36*
X625701Y206460D02*
X623979D01*
X622316Y206014D01*
X620824Y205153D01*
X619607Y203936D01*
X618746Y202444D01*
X618300Y200781D01*
Y199059D01*
X618746Y197396D01*
X619607Y195904D01*
X620824Y194687D01*
X622316Y193826D01*
X623979Y193380D01*
X625701D01*
X627364Y193826D01*
X628856Y194687D01*
X630073Y195904D01*
X630934Y197396D01*
X631380Y199059D01*
Y200781D01*
X630934Y202444D01*
X630073Y203936D01*
X628856Y205153D01*
X627364Y206014D01*
X625701Y206460D01*
D02*
G37*
G36*
X90440Y222490D02*
X87260D01*
X84142Y221870D01*
X81205Y220653D01*
X78561Y218887D01*
X76313Y216639D01*
X74547Y213995D01*
X73330Y211058D01*
X72710Y207940D01*
Y204760D01*
X73330Y201642D01*
X74547Y198705D01*
X76313Y196061D01*
X78561Y193813D01*
X81205Y192047D01*
X84142Y190830D01*
X87260Y190210D01*
X90440D01*
X93558Y190830D01*
X96495Y192047D01*
X99139Y193813D01*
X101387Y196061D01*
X103153Y198705D01*
X104370Y201642D01*
X104990Y204760D01*
Y207940D01*
X104370Y211058D01*
X103153Y213995D01*
X101387Y216639D01*
X99139Y218887D01*
X96495Y220653D01*
X93558Y221870D01*
X90440Y222490D01*
D02*
G37*
G36*
X473498Y206160D02*
X471381D01*
X469337Y205612D01*
X467503Y204554D01*
X466006Y203057D01*
X464948Y201223D01*
X464400Y199179D01*
Y197062D01*
X464948Y195017D01*
X466006Y193183D01*
X467503Y191686D01*
X469337Y190628D01*
X471381Y190080D01*
X473498D01*
X475543Y190628D01*
X477377Y191686D01*
X478874Y193183D01*
X479932Y195017D01*
X480480Y197062D01*
Y199179D01*
X479932Y201223D01*
X478874Y203057D01*
X477377Y204554D01*
X475543Y205612D01*
X473498Y206160D01*
D02*
G37*
G36*
X710040Y211140D02*
X686960D01*
Y188060D01*
X710040D01*
Y211140D01*
D02*
G37*
G36*
X415358Y200660D02*
X412682D01*
X410098Y199968D01*
X407782Y198630D01*
X405890Y196738D01*
X404552Y194422D01*
X403860Y191838D01*
Y189162D01*
X404552Y186578D01*
X405890Y184262D01*
X407782Y182370D01*
X410098Y181032D01*
X412682Y180340D01*
X415358D01*
X417942Y181032D01*
X420258Y182370D01*
X422150Y184262D01*
X423488Y186578D01*
X424180Y189162D01*
Y191838D01*
X423488Y194422D01*
X422150Y196738D01*
X420258Y198630D01*
X417942Y199968D01*
X415358Y200660D01*
D02*
G37*
G36*
X389958D02*
X387282D01*
X384698Y199968D01*
X382382Y198630D01*
X380490Y196738D01*
X379152Y194422D01*
X378460Y191838D01*
Y189162D01*
X379152Y186578D01*
X380490Y184262D01*
X382382Y182370D01*
X384698Y181032D01*
X387282Y180340D01*
X389958D01*
X392542Y181032D01*
X394858Y182370D01*
X396750Y184262D01*
X398088Y186578D01*
X398780Y189162D01*
Y191838D01*
X398088Y194422D01*
X396750Y196738D01*
X394858Y198630D01*
X392542Y199968D01*
X389958Y200660D01*
D02*
G37*
G36*
X364558D02*
X361882D01*
X359298Y199968D01*
X356982Y198630D01*
X355090Y196738D01*
X353752Y194422D01*
X353060Y191838D01*
Y189162D01*
X353752Y186578D01*
X355090Y184262D01*
X356982Y182370D01*
X359298Y181032D01*
X361882Y180340D01*
X364558D01*
X367142Y181032D01*
X369458Y182370D01*
X371350Y184262D01*
X372688Y186578D01*
X373380Y189162D01*
Y191838D01*
X372688Y194422D01*
X371350Y196738D01*
X369458Y198630D01*
X367142Y199968D01*
X364558Y200660D01*
D02*
G37*
G36*
X339158D02*
X336482D01*
X333898Y199968D01*
X331582Y198630D01*
X329690Y196738D01*
X328352Y194422D01*
X327660Y191838D01*
Y189162D01*
X328352Y186578D01*
X329690Y184262D01*
X331582Y182370D01*
X333898Y181032D01*
X336482Y180340D01*
X339158D01*
X341742Y181032D01*
X344058Y182370D01*
X345950Y184262D01*
X347288Y186578D01*
X347980Y189162D01*
Y191838D01*
X347288Y194422D01*
X345950Y196738D01*
X344058Y198630D01*
X341742Y199968D01*
X339158Y200660D01*
D02*
G37*
G36*
X120440Y176140D02*
X117260D01*
X114142Y175520D01*
X111205Y174303D01*
X108561Y172537D01*
X106313Y170289D01*
X104547Y167645D01*
X103330Y164708D01*
X102710Y161590D01*
Y158410D01*
X103330Y155292D01*
X104547Y152355D01*
X106313Y149711D01*
X108561Y147463D01*
X111205Y145697D01*
X114142Y144480D01*
X117260Y143860D01*
X120440D01*
X123558Y144480D01*
X126495Y145697D01*
X129139Y147463D01*
X131387Y149711D01*
X133153Y152355D01*
X134370Y155292D01*
X134990Y158410D01*
Y161590D01*
X134370Y164708D01*
X133153Y167645D01*
X131387Y170289D01*
X129139Y172537D01*
X126495Y174303D01*
X123558Y175520D01*
X120440Y176140D01*
D02*
G37*
G36*
X420020Y155860D02*
X402940D01*
Y143394D01*
X401670Y142687D01*
X399904Y143160D01*
X397656D01*
X395484Y142578D01*
X393536Y141454D01*
X391946Y139864D01*
X390822Y137916D01*
X390240Y135744D01*
Y133496D01*
X390822Y131324D01*
X391946Y129376D01*
X393536Y127786D01*
X395484Y126662D01*
X397656Y126080D01*
X399904D01*
X402076Y126662D01*
X403297Y127367D01*
X404227Y126437D01*
X403522Y125216D01*
X402940Y123044D01*
Y120796D01*
X403522Y118624D01*
X404646Y116676D01*
X406236Y115086D01*
X408184Y113962D01*
X410356Y113380D01*
X412604D01*
X414776Y113962D01*
X416724Y115086D01*
X418314Y116676D01*
X419438Y118624D01*
X420020Y120796D01*
Y123044D01*
X419438Y125216D01*
X418314Y127164D01*
X416724Y128754D01*
X414776Y129878D01*
X412604Y130460D01*
X410356D01*
X408184Y129878D01*
X406963Y129173D01*
X406033Y130103D01*
X406738Y131324D01*
X407320Y133496D01*
Y135744D01*
X406847Y137510D01*
X407554Y138780D01*
X420020D01*
Y155860D01*
D02*
G37*
G36*
X90440Y129790D02*
X87260D01*
X84142Y129170D01*
X81205Y127953D01*
X78561Y126187D01*
X76313Y123939D01*
X74547Y121295D01*
X73330Y118358D01*
X72710Y115240D01*
Y112060D01*
X73330Y108942D01*
X74547Y106005D01*
X76313Y103361D01*
X78561Y101113D01*
X81205Y99347D01*
X84142Y98130D01*
X87260Y97510D01*
X90440D01*
X93558Y98130D01*
X96495Y99347D01*
X99139Y101113D01*
X101387Y103361D01*
X103153Y106005D01*
X104370Y108942D01*
X104990Y112060D01*
Y115240D01*
X104370Y118358D01*
X103153Y121295D01*
X101387Y123939D01*
X99139Y126187D01*
X96495Y127953D01*
X93558Y129170D01*
X90440Y129790D01*
D02*
G37*
G36*
X195171Y100520D02*
X193449D01*
X191786Y100074D01*
X190294Y99213D01*
X189077Y97996D01*
X188216Y96504D01*
X187770Y94841D01*
Y93119D01*
X188216Y91456D01*
X189077Y89964D01*
X190294Y88747D01*
X191786Y87886D01*
X193449Y87440D01*
X195171D01*
X196834Y87886D01*
X198326Y88747D01*
X199543Y89964D01*
X200404Y91456D01*
X200850Y93119D01*
Y94841D01*
X200404Y96504D01*
X199543Y97996D01*
X198326Y99213D01*
X196834Y100074D01*
X195171Y100520D01*
D02*
G37*
G36*
X465681Y98660D02*
X463959D01*
X462296Y98214D01*
X460804Y97353D01*
X459587Y96136D01*
X458726Y94644D01*
X458280Y92981D01*
Y91259D01*
X458726Y89596D01*
X459587Y88104D01*
X460804Y86887D01*
X462296Y86026D01*
X463959Y85580D01*
X465681D01*
X467344Y86026D01*
X468836Y86887D01*
X470053Y88104D01*
X470914Y89596D01*
X471360Y91259D01*
Y92981D01*
X470914Y94644D01*
X470053Y96136D01*
X468836Y97353D01*
X467344Y98214D01*
X465681Y98660D01*
D02*
G37*
G36*
X257525Y66020D02*
X254855D01*
X252276Y65329D01*
X249964Y63994D01*
X248076Y62106D01*
X246741Y59794D01*
X246050Y57215D01*
Y54545D01*
X246741Y51966D01*
X248076Y49654D01*
X249964Y47766D01*
X252276Y46431D01*
X254855Y45740D01*
X257525D01*
X260104Y46431D01*
X262416Y47766D01*
X264304Y49654D01*
X265639Y51966D01*
X266330Y54545D01*
Y57215D01*
X265639Y59794D01*
X264304Y62106D01*
X262416Y63994D01*
X260104Y65329D01*
X257525Y66020D01*
D02*
G37*
G36*
X190830D02*
X170550D01*
Y45740D01*
X190830D01*
Y66020D01*
D02*
G37*
%LPD*%
D33*
X180690Y55880D02*
D03*
D34*
X256190D02*
D03*
D35*
X411480Y121920D02*
D03*
X398780Y134620D02*
D03*
X350520Y372110D02*
D03*
X393881Y390070D02*
D03*
X357960Y354150D02*
D03*
Y390070D02*
D03*
X401320Y372110D02*
D03*
D36*
X411480Y147320D02*
D03*
D39*
X118850Y160000D02*
D03*
X88850Y206350D02*
D03*
Y113650D02*
D03*
Y240650D02*
D03*
Y333350D02*
D03*
X118850Y287000D02*
D03*
D40*
X252730Y185640D02*
D03*
X240030Y198340D02*
D03*
X227330Y185640D02*
D03*
X229870Y264380D02*
D03*
X242570Y277080D02*
D03*
X255270Y264380D02*
D03*
D41*
X393881Y354150D02*
D03*
D45*
X459740Y210820D02*
D03*
X472440Y198120D02*
D03*
D46*
Y223520D02*
D03*
D50*
X700000Y400000D02*
D03*
X50000Y50000D02*
D03*
X700000D02*
D03*
X50000Y400000D02*
D03*
D51*
X698500Y250400D02*
D03*
D52*
Y199600D02*
D03*
D53*
X624840Y199920D02*
D03*
Y131580D02*
D03*
X647700Y391160D02*
D03*
Y342900D02*
D03*
Y292100D02*
D03*
Y241300D02*
D03*
Y190500D02*
D03*
Y139700D02*
D03*
X647715Y89347D02*
D03*
X609600Y66040D02*
D03*
X558800D02*
D03*
X508000D02*
D03*
X457200D02*
D03*
X406400D02*
D03*
X381000D02*
D03*
X355600D02*
D03*
X304800D02*
D03*
X287020Y88900D02*
D03*
Y114300D02*
D03*
Y139700D02*
D03*
Y165100D02*
D03*
Y190500D02*
D03*
Y215900D02*
D03*
Y241300D02*
D03*
Y266700D02*
D03*
Y292100D02*
D03*
Y317500D02*
D03*
Y342900D02*
D03*
Y393700D02*
D03*
Y368300D02*
D03*
X317500Y419100D02*
D03*
X444500D02*
D03*
X495300D02*
D03*
X546100D02*
D03*
X596900D02*
D03*
X330200Y66040D02*
D03*
X431800D02*
D03*
X435610Y356870D02*
D03*
X157480Y133350D02*
D03*
X444530Y328400D02*
D03*
X417860Y316200D02*
D03*
X546100Y132080D02*
D03*
X518160D02*
D03*
X472440Y304800D02*
D03*
X194310Y93980D02*
D03*
X464820Y92120D02*
D03*
X144810Y277080D02*
D03*
Y213580D02*
D03*
X314960Y297180D02*
D03*
D54*
X647700Y368300D02*
D03*
Y317500D02*
D03*
Y266700D02*
D03*
Y215900D02*
D03*
Y165100D02*
D03*
X622300Y419100D02*
D03*
X571500D02*
D03*
X520700D02*
D03*
X469900D02*
D03*
X419100D02*
D03*
X342900D02*
D03*
X482600Y66040D02*
D03*
X533400D02*
D03*
X584200D02*
D03*
X635000D02*
D03*
X647700Y114300D02*
D03*
X715875Y416364D02*
D03*
X684125Y383636D02*
D03*
X715875D02*
D03*
X684125Y416364D02*
D03*
X722860Y400000D02*
D03*
X677140D02*
D03*
X700000Y377140D02*
D03*
Y422860D02*
D03*
X65876Y66364D02*
D03*
X34125Y33636D02*
D03*
X65876D02*
D03*
X34125Y66364D02*
D03*
X72860Y50000D02*
D03*
X27140D02*
D03*
X50000Y27140D02*
D03*
Y72860D02*
D03*
X715875Y66364D02*
D03*
X684125Y33636D02*
D03*
X715875D02*
D03*
X684125Y66364D02*
D03*
X722860Y50000D02*
D03*
X677140D02*
D03*
X700000Y27140D02*
D03*
Y72860D02*
D03*
X65876Y416364D02*
D03*
X34125Y383636D02*
D03*
X65876D02*
D03*
X34125Y416364D02*
D03*
X72860Y400000D02*
D03*
X27140D02*
D03*
X50000Y377140D02*
D03*
Y422860D02*
D03*
D55*
X414020Y266700D02*
D03*
X388620D02*
D03*
X363220D02*
D03*
X337820D02*
D03*
Y190500D02*
D03*
X363220D02*
D03*
X388620D02*
D03*
X414020D02*
D03*
M02*
