G04*
G04 #@! TF.GenerationSoftware,Altium Limited,Altium Designer,24.9.1 (31)*
G04*
G04 Layer_Color=8388736*
%FSLAX44Y44*%
%MOMM*%
G71*
G04*
G04 #@! TF.SameCoordinates,CAE1AE67-0460-43A2-896A-31C629D7927E*
G04*
G04*
G04 #@! TF.FilePolarity,Positive*
G04*
G01*
G75*
%ADD49C,0.2540*%
G36*
X-34098Y250083D02*
X-33654D01*
X-33126Y250028D01*
X-32571Y249972D01*
X-31988Y249917D01*
X-31405Y249806D01*
X-31377D01*
X-31349D01*
X-31266Y249778D01*
X-31155Y249750D01*
X-30877Y249667D01*
X-30516Y249556D01*
X-30128Y249417D01*
X-29684Y249251D01*
X-29267Y249056D01*
X-28851Y248806D01*
X-28795Y248778D01*
X-28684Y248695D01*
X-28490Y248529D01*
X-28268Y248334D01*
X-27990Y248085D01*
X-27740Y247779D01*
X-27463Y247446D01*
X-27241Y247057D01*
X-27213Y247002D01*
X-27157Y246863D01*
X-27074Y246641D01*
X-26963Y246308D01*
X-26852Y245919D01*
X-26769Y245475D01*
X-26713Y244975D01*
X-26685Y244392D01*
Y244142D01*
X-26713Y243837D01*
X-26741Y243476D01*
X-26824Y243060D01*
X-26907Y242615D01*
X-27046Y242171D01*
X-27213Y241755D01*
X-27241Y241699D01*
X-27324Y241588D01*
X-27435Y241394D01*
X-27629Y241144D01*
X-27851Y240894D01*
X-28129Y240616D01*
X-28434Y240339D01*
X-28795Y240089D01*
X-28851Y240061D01*
X-28990Y239978D01*
X-29212Y239895D01*
X-29489Y239756D01*
X-29850Y239617D01*
X-30294Y239478D01*
X-30766Y239339D01*
X-31294Y239228D01*
X-31321D01*
X-31349D01*
X-31433Y239201D01*
X-31544D01*
X-31682Y239173D01*
X-31849D01*
X-32265Y239117D01*
X-32765Y239090D01*
X-33320Y239034D01*
X-33959Y239006D01*
X-34653D01*
X-34681D01*
X-34736D01*
X-34820D01*
X-34958D01*
X-35125D01*
X-35319Y239034D01*
X-35763D01*
X-36263Y239090D01*
X-36846Y239145D01*
X-37401Y239201D01*
X-37984Y239312D01*
X-38012D01*
X-38040Y239339D01*
X-38123D01*
X-38234Y239367D01*
X-38512Y239450D01*
X-38873Y239562D01*
X-39289Y239673D01*
X-39706Y239839D01*
X-40150Y240061D01*
X-40566Y240283D01*
X-40622Y240311D01*
X-40733Y240394D01*
X-40927Y240561D01*
X-41177Y240755D01*
X-41427Y241005D01*
X-41705Y241311D01*
X-41954Y241644D01*
X-42176Y242032D01*
X-42204Y242088D01*
X-42260Y242227D01*
X-42371Y242477D01*
X-42482Y242782D01*
X-42565Y243171D01*
X-42676Y243615D01*
X-42732Y244142D01*
X-42760Y244697D01*
Y244975D01*
X-42732Y245253D01*
X-42704Y245614D01*
X-42621Y246030D01*
X-42537Y246474D01*
X-42399Y246919D01*
X-42204Y247335D01*
X-42176Y247390D01*
X-42093Y247502D01*
X-41982Y247696D01*
X-41788Y247946D01*
X-41566Y248195D01*
X-41316Y248473D01*
X-40983Y248751D01*
X-40622Y249001D01*
X-40566Y249028D01*
X-40427Y249112D01*
X-40233Y249195D01*
X-39928Y249334D01*
X-39567Y249473D01*
X-39123Y249611D01*
X-38651Y249750D01*
X-38123Y249861D01*
X-38096D01*
X-38068D01*
X-37984Y249889D01*
X-37873D01*
X-37735Y249917D01*
X-37568Y249945D01*
X-37152Y250000D01*
X-36652Y250028D01*
X-36097Y250083D01*
X-35458Y250111D01*
X-34764D01*
X-34736D01*
X-34681D01*
X-34570D01*
X-34459D01*
X-34292D01*
X-34098Y250083D01*
D02*
G37*
G36*
Y237618D02*
X-33654D01*
X-33126Y237563D01*
X-32571Y237507D01*
X-31988Y237452D01*
X-31405Y237341D01*
X-31377D01*
X-31349D01*
X-31266Y237313D01*
X-31155Y237285D01*
X-30877Y237202D01*
X-30516Y237091D01*
X-30128Y236952D01*
X-29684Y236785D01*
X-29267Y236591D01*
X-28851Y236341D01*
X-28795Y236313D01*
X-28684Y236230D01*
X-28490Y236063D01*
X-28268Y235869D01*
X-27990Y235619D01*
X-27740Y235314D01*
X-27463Y234981D01*
X-27241Y234592D01*
X-27213Y234536D01*
X-27157Y234398D01*
X-27074Y234176D01*
X-26963Y233843D01*
X-26852Y233454D01*
X-26769Y233010D01*
X-26713Y232510D01*
X-26685Y231927D01*
Y231677D01*
X-26713Y231372D01*
X-26741Y231011D01*
X-26824Y230594D01*
X-26907Y230150D01*
X-27046Y229706D01*
X-27213Y229289D01*
X-27241Y229234D01*
X-27324Y229123D01*
X-27435Y228929D01*
X-27629Y228679D01*
X-27851Y228429D01*
X-28129Y228151D01*
X-28434Y227874D01*
X-28795Y227624D01*
X-28851Y227596D01*
X-28990Y227513D01*
X-29212Y227429D01*
X-29489Y227291D01*
X-29850Y227152D01*
X-30294Y227013D01*
X-30766Y226874D01*
X-31294Y226763D01*
X-31321D01*
X-31349D01*
X-31433Y226735D01*
X-31544D01*
X-31682Y226708D01*
X-31849D01*
X-32265Y226652D01*
X-32765Y226624D01*
X-33320Y226569D01*
X-33959Y226541D01*
X-34653D01*
X-34681D01*
X-34736D01*
X-34820D01*
X-34958D01*
X-35125D01*
X-35319Y226569D01*
X-35763D01*
X-36263Y226624D01*
X-36846Y226680D01*
X-37401Y226735D01*
X-37984Y226846D01*
X-38012D01*
X-38040Y226874D01*
X-38123D01*
X-38234Y226902D01*
X-38512Y226985D01*
X-38873Y227096D01*
X-39289Y227207D01*
X-39706Y227374D01*
X-40150Y227596D01*
X-40566Y227818D01*
X-40622Y227846D01*
X-40733Y227929D01*
X-40927Y228096D01*
X-41177Y228290D01*
X-41427Y228540D01*
X-41705Y228845D01*
X-41954Y229178D01*
X-42176Y229567D01*
X-42204Y229623D01*
X-42260Y229761D01*
X-42371Y230011D01*
X-42482Y230317D01*
X-42565Y230705D01*
X-42676Y231150D01*
X-42732Y231677D01*
X-42760Y232232D01*
Y232510D01*
X-42732Y232787D01*
X-42704Y233148D01*
X-42621Y233565D01*
X-42537Y234009D01*
X-42399Y234453D01*
X-42204Y234870D01*
X-42176Y234925D01*
X-42093Y235036D01*
X-41982Y235231D01*
X-41788Y235480D01*
X-41566Y235730D01*
X-41316Y236008D01*
X-40983Y236286D01*
X-40622Y236535D01*
X-40566Y236563D01*
X-40427Y236646D01*
X-40233Y236730D01*
X-39928Y236869D01*
X-39567Y237007D01*
X-39123Y237146D01*
X-38651Y237285D01*
X-38123Y237396D01*
X-38096D01*
X-38068D01*
X-37984Y237424D01*
X-37873D01*
X-37735Y237452D01*
X-37568Y237479D01*
X-37152Y237535D01*
X-36652Y237563D01*
X-36097Y237618D01*
X-35458Y237646D01*
X-34764D01*
X-34736D01*
X-34681D01*
X-34570D01*
X-34459D01*
X-34292D01*
X-34098Y237618D01*
D02*
G37*
G36*
X-28295Y224320D02*
X-28073Y224292D01*
X-27574Y224181D01*
X-27324Y224098D01*
X-27157Y223959D01*
X-27129Y223931D01*
X-27102Y223876D01*
X-27046Y223793D01*
X-26991Y223626D01*
X-26907Y223432D01*
X-26852Y223210D01*
X-26824Y222904D01*
X-26796Y222543D01*
Y222377D01*
X-26824Y222210D01*
X-26852Y221988D01*
X-26963Y221544D01*
X-27046Y221322D01*
X-27157Y221155D01*
X-27185Y221127D01*
X-27241Y221100D01*
X-27324Y221044D01*
X-27490Y220989D01*
X-27685Y220905D01*
X-27935Y220850D01*
X-28240Y220822D01*
X-28601Y220794D01*
X-28656D01*
X-28795D01*
X-28990Y220822D01*
X-29212Y220850D01*
X-29739Y220961D01*
X-29961Y221044D01*
X-30128Y221183D01*
X-30155Y221211D01*
X-30183Y221266D01*
X-30239Y221350D01*
X-30322Y221516D01*
X-30405Y221683D01*
X-30461Y221933D01*
X-30489Y222238D01*
X-30516Y222571D01*
Y222738D01*
X-30489Y222904D01*
X-30461Y223126D01*
X-30350Y223570D01*
X-30267Y223793D01*
X-30128Y223959D01*
X-30100Y223987D01*
X-30045Y224015D01*
X-29961Y224070D01*
X-29795Y224153D01*
X-29600Y224237D01*
X-29350Y224292D01*
X-29045Y224320D01*
X-28684Y224348D01*
X-28629D01*
X-28490D01*
X-28295Y224320D01*
D02*
G37*
G36*
X-31544Y218101D02*
X-31238Y218074D01*
X-30877Y218018D01*
X-30516Y217935D01*
X-30128Y217824D01*
X-29739Y217685D01*
X-29684Y217657D01*
X-29573Y217602D01*
X-29378Y217491D01*
X-29156Y217352D01*
X-28879Y217185D01*
X-28601Y216963D01*
X-28323Y216713D01*
X-28046Y216436D01*
X-28018Y216408D01*
X-27935Y216297D01*
X-27824Y216130D01*
X-27657Y215908D01*
X-27490Y215630D01*
X-27324Y215297D01*
X-27157Y214936D01*
X-27018Y214520D01*
Y214464D01*
X-26963Y214326D01*
X-26907Y214104D01*
X-26852Y213798D01*
X-26796Y213437D01*
X-26741Y213021D01*
X-26713Y212549D01*
X-26685Y212049D01*
Y211799D01*
X-26713Y211605D01*
Y211383D01*
X-26741Y211161D01*
X-26796Y210661D01*
Y210633D01*
X-26824Y210550D01*
Y210439D01*
X-26852Y210272D01*
X-26907Y209911D01*
X-26991Y209495D01*
Y209467D01*
X-27018Y209412D01*
X-27046Y209328D01*
X-27074Y209217D01*
X-27157Y208940D01*
X-27268Y208662D01*
X-27296Y208607D01*
X-27352Y208496D01*
X-27435Y208329D01*
X-27518Y208218D01*
X-27546D01*
X-27574Y208162D01*
X-27712Y208079D01*
X-27740D01*
X-27796Y208051D01*
X-27962Y207996D01*
X-27990D01*
X-28073D01*
X-28184Y207968D01*
X-28323D01*
X-28379D01*
X-28490D01*
X-28656D01*
X-28879D01*
X-28906D01*
X-28934D01*
X-29073D01*
X-29267D01*
X-29434D01*
X-29489D01*
X-29573Y207996D01*
X-29711Y208024D01*
X-29822Y208051D01*
X-29850D01*
X-29906Y208079D01*
X-29961Y208135D01*
X-30017Y208162D01*
X-30045Y208190D01*
X-30072Y208218D01*
X-30100Y208274D01*
Y208384D01*
X-30072Y208440D01*
X-30045Y208551D01*
X-29961Y208718D01*
X-29933Y208773D01*
X-29878Y208884D01*
X-29767Y209106D01*
X-29628Y209356D01*
Y209384D01*
X-29600Y209440D01*
X-29573Y209523D01*
X-29517Y209634D01*
X-29434Y209939D01*
X-29323Y210328D01*
Y210356D01*
X-29295Y210439D01*
Y210550D01*
X-29267Y210717D01*
X-29239Y210911D01*
Y211161D01*
X-29212Y211438D01*
Y211966D01*
X-29239Y212132D01*
X-29267Y212549D01*
X-29350Y212965D01*
Y212993D01*
X-29378Y213076D01*
X-29406Y213160D01*
X-29462Y213298D01*
X-29600Y213632D01*
X-29795Y213937D01*
X-29822Y213965D01*
X-29850Y213993D01*
X-30017Y214159D01*
X-30267Y214353D01*
X-30600Y214548D01*
X-30628D01*
X-30683Y214576D01*
X-30794Y214631D01*
X-30933Y214659D01*
X-31099Y214714D01*
X-31294Y214742D01*
X-31766Y214770D01*
X-31793D01*
X-31849D01*
X-31960D01*
X-32099Y214742D01*
X-32432Y214687D01*
X-32765Y214576D01*
X-32793D01*
X-32848Y214548D01*
X-32932Y214492D01*
X-33043Y214437D01*
X-33293Y214270D01*
X-33542Y214020D01*
X-33570Y213993D01*
X-33598Y213965D01*
X-33654Y213854D01*
X-33709Y213743D01*
X-33792Y213604D01*
X-33876Y213437D01*
X-34014Y213021D01*
Y212993D01*
X-34042Y212910D01*
X-34070Y212771D01*
X-34098Y212604D01*
X-34125Y212382D01*
X-34153Y212132D01*
X-34181Y211855D01*
Y211133D01*
X-34153Y210717D01*
X-34098Y210272D01*
Y210189D01*
X-34070Y210078D01*
Y209939D01*
X-34042Y209606D01*
X-34014Y209217D01*
Y209162D01*
X-34042Y209023D01*
X-34098Y208857D01*
X-34181Y208718D01*
X-34209Y208690D01*
X-34348Y208662D01*
X-34542Y208607D01*
X-34847Y208579D01*
X-41566D01*
X-41593D01*
X-41649D01*
X-41843Y208607D01*
X-42066Y208662D01*
X-42260Y208745D01*
X-42288Y208773D01*
X-42371Y208884D01*
X-42454Y209079D01*
X-42482Y209356D01*
Y216741D01*
X-42454Y216824D01*
X-42399Y216880D01*
X-42371Y216908D01*
X-42343Y216935D01*
X-42260Y216991D01*
X-42149Y217046D01*
X-42121D01*
X-42038Y217074D01*
X-41927Y217102D01*
X-41760Y217130D01*
X-41705D01*
X-41593Y217157D01*
X-41399Y217185D01*
X-41149D01*
X-41122D01*
X-41038D01*
X-40900D01*
X-40761Y217157D01*
X-40400Y217130D01*
X-40233Y217102D01*
X-40094Y217046D01*
X-40039Y217019D01*
X-39956Y216963D01*
X-39845Y216824D01*
X-39817Y216769D01*
X-39789Y216685D01*
Y211189D01*
X-36458D01*
Y211272D01*
X-36485Y211355D01*
Y211438D01*
X-36513Y211716D01*
Y212160D01*
X-36541Y212271D01*
Y213104D01*
X-36513Y213326D01*
Y213632D01*
X-36458Y213965D01*
X-36402Y214353D01*
X-36346Y214742D01*
X-36235Y215103D01*
Y215159D01*
X-36180Y215270D01*
X-36097Y215464D01*
X-36013Y215686D01*
X-35875Y215936D01*
X-35736Y216213D01*
X-35541Y216491D01*
X-35347Y216741D01*
X-35319Y216769D01*
X-35236Y216852D01*
X-35125Y216963D01*
X-34958Y217130D01*
X-34764Y217296D01*
X-34514Y217463D01*
X-34237Y217629D01*
X-33931Y217768D01*
X-33903Y217796D01*
X-33792Y217824D01*
X-33598Y217879D01*
X-33376Y217962D01*
X-33098Y218018D01*
X-32765Y218074D01*
X-32404Y218101D01*
X-31988Y218129D01*
X-31932D01*
X-31766D01*
X-31544Y218101D01*
D02*
G37*
G36*
X-31072Y206302D02*
X-30766Y206275D01*
X-30628Y206247D01*
X-30489Y206191D01*
X-30433Y206164D01*
X-30350Y206108D01*
X-30239Y205997D01*
X-30211Y205942D01*
X-30183Y205858D01*
Y204470D01*
X-27352D01*
X-27324D01*
X-27296D01*
X-27213Y204442D01*
X-27129Y204387D01*
Y204359D01*
X-27074Y204331D01*
X-27046Y204248D01*
X-26991Y204109D01*
Y204081D01*
X-26963Y203998D01*
Y203859D01*
X-26935Y203665D01*
Y203609D01*
X-26907Y203471D01*
X-26880Y203221D01*
Y202666D01*
X-26907Y202443D01*
X-26935Y202194D01*
Y202138D01*
X-26963Y202027D01*
Y201888D01*
X-26991Y201722D01*
Y201694D01*
X-27018Y201638D01*
X-27074Y201555D01*
X-27129Y201500D01*
X-27157D01*
X-27213Y201472D01*
X-27352Y201444D01*
X-30183D01*
Y195392D01*
X-30211Y195198D01*
Y195170D01*
X-30267Y195114D01*
X-30322Y195059D01*
X-30405Y194975D01*
X-30433D01*
X-30516Y194920D01*
X-30628Y194892D01*
X-30822Y194837D01*
X-30850D01*
X-30877D01*
X-31044D01*
X-31266Y194809D01*
X-31599D01*
X-31627D01*
X-31655D01*
X-31821D01*
X-32016D01*
X-32238D01*
X-32265D01*
X-32293D01*
X-32432Y194837D01*
X-32599D01*
X-32765Y194864D01*
X-32793D01*
X-32904Y194892D01*
X-33043Y194948D01*
X-33182Y194975D01*
X-33209Y195003D01*
X-33320Y195031D01*
X-33459Y195114D01*
X-33626Y195198D01*
X-42121Y200028D01*
X-42149D01*
X-42176Y200084D01*
X-42260Y200139D01*
X-42315Y200222D01*
X-42343Y200250D01*
X-42371Y200333D01*
X-42399Y200445D01*
X-42454Y200611D01*
Y200667D01*
X-42482Y200805D01*
X-42510Y201000D01*
X-42537Y201277D01*
Y201444D01*
X-42565Y201555D01*
Y202582D01*
X-42537Y202915D01*
X-42510Y203249D01*
Y203332D01*
X-42482Y203498D01*
X-42454Y203720D01*
X-42426Y203943D01*
Y203998D01*
X-42399Y204109D01*
X-42343Y204220D01*
X-42260Y204331D01*
X-42232Y204359D01*
X-42204Y204415D01*
X-42121Y204442D01*
X-42038Y204470D01*
X-32710D01*
Y205886D01*
X-32682Y205969D01*
X-32571Y206080D01*
X-32515Y206136D01*
X-32404Y206191D01*
X-32349Y206219D01*
X-32265Y206247D01*
X-32182Y206275D01*
X-32043D01*
X-31877Y206302D01*
X-31655Y206330D01*
X-31433D01*
X-31405D01*
X-31321D01*
X-31210D01*
X-31072Y206302D01*
D02*
G37*
G36*
X366561Y492454D02*
X366616Y492399D01*
X366644Y492371D01*
X366672Y492343D01*
X366727Y492260D01*
X366783Y492149D01*
Y492121D01*
X366810Y492038D01*
X366838Y491927D01*
X366866Y491760D01*
Y491705D01*
X366894Y491594D01*
X366921Y491399D01*
Y491149D01*
Y491122D01*
Y491038D01*
Y490900D01*
X366894Y490761D01*
X366866Y490400D01*
X366838Y490233D01*
X366783Y490094D01*
X366755Y490039D01*
X366699Y489956D01*
X366561Y489845D01*
X366505Y489817D01*
X366422Y489789D01*
X360925D01*
Y486457D01*
X361008D01*
X361091Y486485D01*
X361175D01*
X361452Y486513D01*
X361897D01*
X362007Y486541D01*
X362840D01*
X363063Y486513D01*
X363368D01*
X363701Y486457D01*
X364090Y486402D01*
X364478Y486347D01*
X364839Y486235D01*
X364895D01*
X365006Y486180D01*
X365200Y486097D01*
X365422Y486013D01*
X365672Y485874D01*
X365950Y485736D01*
X366227Y485541D01*
X366477Y485347D01*
X366505Y485319D01*
X366588Y485236D01*
X366699Y485125D01*
X366866Y484958D01*
X367033Y484764D01*
X367199Y484514D01*
X367366Y484236D01*
X367504Y483931D01*
X367532Y483903D01*
X367560Y483792D01*
X367616Y483598D01*
X367699Y483376D01*
X367754Y483098D01*
X367810Y482765D01*
X367838Y482404D01*
X367865Y481988D01*
Y481932D01*
Y481766D01*
X367838Y481544D01*
X367810Y481238D01*
X367754Y480877D01*
X367671Y480516D01*
X367560Y480128D01*
X367421Y479739D01*
X367393Y479683D01*
X367338Y479572D01*
X367227Y479378D01*
X367088Y479156D01*
X366921Y478878D01*
X366699Y478601D01*
X366450Y478323D01*
X366172Y478046D01*
X366144Y478018D01*
X366033Y477934D01*
X365867Y477823D01*
X365644Y477657D01*
X365367Y477490D01*
X365034Y477324D01*
X364673Y477157D01*
X364256Y477018D01*
X364201D01*
X364062Y476963D01*
X363840Y476907D01*
X363535Y476852D01*
X363173Y476796D01*
X362757Y476741D01*
X362285Y476713D01*
X361785Y476685D01*
X361536D01*
X361341Y476713D01*
X361119D01*
X360897Y476741D01*
X360397Y476796D01*
X360370D01*
X360286Y476824D01*
X360175D01*
X360009Y476852D01*
X359648Y476907D01*
X359231Y476991D01*
X359203D01*
X359148Y477018D01*
X359065Y477046D01*
X358954Y477074D01*
X358676Y477157D01*
X358398Y477268D01*
X358343Y477296D01*
X358232Y477351D01*
X358065Y477435D01*
X357954Y477518D01*
Y477546D01*
X357899Y477574D01*
X357815Y477712D01*
Y477740D01*
X357788Y477796D01*
X357732Y477962D01*
Y477990D01*
Y478073D01*
X357704Y478184D01*
Y478323D01*
Y478379D01*
Y478490D01*
Y478656D01*
Y478878D01*
Y478906D01*
Y478934D01*
Y479073D01*
Y479267D01*
Y479434D01*
Y479489D01*
X357732Y479572D01*
X357760Y479711D01*
X357788Y479822D01*
Y479850D01*
X357815Y479906D01*
X357871Y479961D01*
X357899Y480017D01*
X357926Y480045D01*
X357954Y480072D01*
X358010Y480100D01*
X358121D01*
X358176Y480072D01*
X358287Y480045D01*
X358454Y479961D01*
X358509Y479933D01*
X358620Y479878D01*
X358843Y479767D01*
X359092Y479628D01*
X359120D01*
X359176Y479600D01*
X359259Y479572D01*
X359370Y479517D01*
X359675Y479434D01*
X360064Y479323D01*
X360092D01*
X360175Y479295D01*
X360286D01*
X360453Y479267D01*
X360647Y479239D01*
X360897D01*
X361175Y479212D01*
X361702D01*
X361869Y479239D01*
X362285Y479267D01*
X362702Y479350D01*
X362729D01*
X362813Y479378D01*
X362896Y479406D01*
X363035Y479461D01*
X363368Y479600D01*
X363673Y479795D01*
X363701Y479822D01*
X363729Y479850D01*
X363895Y480017D01*
X364090Y480267D01*
X364284Y480600D01*
Y480628D01*
X364312Y480683D01*
X364367Y480794D01*
X364395Y480933D01*
X364451Y481099D01*
X364478Y481294D01*
X364506Y481766D01*
Y481794D01*
Y481849D01*
Y481960D01*
X364478Y482099D01*
X364423Y482432D01*
X364312Y482765D01*
Y482793D01*
X364284Y482848D01*
X364229Y482932D01*
X364173Y483043D01*
X364006Y483293D01*
X363756Y483543D01*
X363729Y483570D01*
X363701Y483598D01*
X363590Y483653D01*
X363479Y483709D01*
X363340Y483792D01*
X363173Y483876D01*
X362757Y484014D01*
X362729D01*
X362646Y484042D01*
X362507Y484070D01*
X362341Y484098D01*
X362119Y484126D01*
X361869Y484153D01*
X361591Y484181D01*
X360869D01*
X360453Y484153D01*
X360009Y484098D01*
X359925D01*
X359814Y484070D01*
X359675D01*
X359342Y484042D01*
X358954Y484014D01*
X358898D01*
X358759Y484042D01*
X358593Y484098D01*
X358454Y484181D01*
X358426Y484209D01*
X358398Y484348D01*
X358343Y484542D01*
X358315Y484847D01*
Y491566D01*
Y491594D01*
Y491649D01*
X358343Y491843D01*
X358398Y492066D01*
X358482Y492260D01*
X358509Y492288D01*
X358620Y492371D01*
X358815Y492454D01*
X359092Y492482D01*
X366477D01*
X366561Y492454D01*
D02*
G37*
G36*
X355039D02*
X355150Y492426D01*
X355178D01*
X355234Y492371D01*
X355317Y492315D01*
X355372Y492232D01*
X355400Y492204D01*
X355428Y492121D01*
X355456Y492010D01*
X355511Y491816D01*
Y491760D01*
X355539Y491649D01*
X355567Y491427D01*
Y491122D01*
Y491094D01*
Y491066D01*
Y490927D01*
Y490733D01*
X355539Y490511D01*
Y490483D01*
X355511Y490372D01*
X355483Y490205D01*
X355456Y490039D01*
Y490011D01*
X355428Y489900D01*
X355400Y489761D01*
X355345Y489622D01*
Y489595D01*
X355317Y489484D01*
X355261Y489345D01*
X355178Y489178D01*
X350070Y477351D01*
Y477324D01*
X350014Y477268D01*
X349875Y477102D01*
X349848D01*
X349792Y477046D01*
X349681Y477018D01*
X349542Y476963D01*
X349515D01*
X349403Y476935D01*
X349237D01*
X349015Y476907D01*
X348793D01*
X348571Y476880D01*
X347877D01*
X347543Y476907D01*
X347210Y476935D01*
X347155D01*
X347016Y476963D01*
X346849Y476991D01*
X346683Y477046D01*
X346655Y477074D01*
X346600Y477102D01*
X346544Y477185D01*
X346488Y477268D01*
Y477296D01*
X346516Y477351D01*
X346544Y477463D01*
X346600Y477601D01*
X352124Y489734D01*
X345545D01*
X345434Y489761D01*
X345295Y489872D01*
X345239Y489928D01*
X345184Y490039D01*
Y490067D01*
X345156Y490094D01*
Y490178D01*
X345128Y490289D01*
X345100Y490455D01*
Y490622D01*
X345073Y490844D01*
Y491094D01*
Y491122D01*
Y491149D01*
Y491316D01*
Y491510D01*
X345100Y491705D01*
Y491760D01*
X345128Y491871D01*
X345156Y492010D01*
X345184Y492149D01*
X345211Y492177D01*
X345239Y492232D01*
X345295Y492315D01*
X345350Y492399D01*
X345378Y492426D01*
X345406Y492454D01*
X345489Y492482D01*
X354928D01*
X355039Y492454D01*
D02*
G37*
G36*
X372640Y480489D02*
X372863Y480461D01*
X373307Y480350D01*
X373529Y480267D01*
X373695Y480128D01*
X373723Y480100D01*
X373751Y480045D01*
X373806Y479961D01*
X373890Y479795D01*
X373973Y479600D01*
X374029Y479350D01*
X374056Y479045D01*
X374084Y478684D01*
Y478629D01*
Y478490D01*
X374056Y478295D01*
X374029Y478073D01*
X373918Y477574D01*
X373834Y477324D01*
X373695Y477157D01*
X373668Y477129D01*
X373612Y477102D01*
X373529Y477046D01*
X373362Y476991D01*
X373168Y476907D01*
X372946Y476852D01*
X372640Y476824D01*
X372280Y476796D01*
X372113D01*
X371946Y476824D01*
X371724Y476852D01*
X371280Y476963D01*
X371058Y477046D01*
X370891Y477157D01*
X370864Y477185D01*
X370836Y477240D01*
X370780Y477324D01*
X370725Y477490D01*
X370642Y477685D01*
X370586Y477934D01*
X370558Y478240D01*
X370531Y478601D01*
Y478656D01*
Y478795D01*
X370558Y478989D01*
X370586Y479212D01*
X370697Y479739D01*
X370780Y479961D01*
X370919Y480128D01*
X370947Y480155D01*
X371003Y480183D01*
X371086Y480239D01*
X371252Y480322D01*
X371419Y480405D01*
X371669Y480461D01*
X371974Y480489D01*
X372307Y480516D01*
X372474D01*
X372640Y480489D01*
D02*
G37*
G36*
X394989Y492732D02*
X395350Y492704D01*
X395766Y492621D01*
X396211Y492537D01*
X396655Y492399D01*
X397071Y492204D01*
X397127Y492177D01*
X397238Y492093D01*
X397432Y491982D01*
X397682Y491788D01*
X397932Y491566D01*
X398209Y491316D01*
X398487Y490983D01*
X398737Y490622D01*
X398765Y490566D01*
X398848Y490428D01*
X398931Y490233D01*
X399070Y489928D01*
X399209Y489567D01*
X399348Y489123D01*
X399487Y488651D01*
X399598Y488123D01*
Y488096D01*
Y488068D01*
X399625Y487984D01*
Y487873D01*
X399653Y487735D01*
X399681Y487568D01*
X399736Y487152D01*
X399764Y486652D01*
X399820Y486097D01*
X399847Y485458D01*
Y484764D01*
Y484736D01*
Y484681D01*
Y484570D01*
Y484459D01*
Y484292D01*
X399820Y484098D01*
Y483653D01*
X399764Y483126D01*
X399709Y482571D01*
X399653Y481988D01*
X399542Y481405D01*
Y481377D01*
Y481349D01*
X399514Y481266D01*
X399487Y481155D01*
X399403Y480877D01*
X399292Y480516D01*
X399153Y480128D01*
X398987Y479683D01*
X398792Y479267D01*
X398543Y478851D01*
X398515Y478795D01*
X398432Y478684D01*
X398265Y478490D01*
X398071Y478268D01*
X397821Y477990D01*
X397515Y477740D01*
X397182Y477463D01*
X396794Y477240D01*
X396738Y477213D01*
X396599Y477157D01*
X396377Y477074D01*
X396044Y476963D01*
X395655Y476852D01*
X395211Y476768D01*
X394711Y476713D01*
X394128Y476685D01*
X393879D01*
X393573Y476713D01*
X393212Y476741D01*
X392796Y476824D01*
X392352Y476907D01*
X391907Y477046D01*
X391491Y477213D01*
X391436Y477240D01*
X391324Y477324D01*
X391130Y477435D01*
X390880Y477629D01*
X390630Y477851D01*
X390353Y478129D01*
X390075Y478434D01*
X389825Y478795D01*
X389798Y478851D01*
X389714Y478989D01*
X389631Y479212D01*
X389492Y479489D01*
X389353Y479850D01*
X389215Y480294D01*
X389076Y480766D01*
X388965Y481294D01*
Y481321D01*
Y481349D01*
X388937Y481433D01*
Y481544D01*
X388909Y481682D01*
Y481849D01*
X388854Y482265D01*
X388826Y482765D01*
X388770Y483320D01*
X388742Y483959D01*
Y484653D01*
Y484681D01*
Y484736D01*
Y484820D01*
Y484958D01*
Y485125D01*
X388770Y485319D01*
Y485764D01*
X388826Y486263D01*
X388881Y486846D01*
X388937Y487401D01*
X389048Y487984D01*
Y488012D01*
X389076Y488040D01*
Y488123D01*
X389103Y488234D01*
X389187Y488512D01*
X389298Y488873D01*
X389409Y489289D01*
X389575Y489706D01*
X389798Y490150D01*
X390020Y490566D01*
X390047Y490622D01*
X390131Y490733D01*
X390297Y490927D01*
X390491Y491177D01*
X390741Y491427D01*
X391047Y491705D01*
X391380Y491954D01*
X391769Y492177D01*
X391824Y492204D01*
X391963Y492260D01*
X392213Y492371D01*
X392518Y492482D01*
X392907Y492565D01*
X393351Y492676D01*
X393879Y492732D01*
X394434Y492760D01*
X394711D01*
X394989Y492732D01*
D02*
G37*
G36*
X382524D02*
X382885Y492704D01*
X383301Y492621D01*
X383745Y492537D01*
X384189Y492399D01*
X384606Y492204D01*
X384661Y492177D01*
X384772Y492093D01*
X384967Y491982D01*
X385217Y491788D01*
X385467Y491566D01*
X385744Y491316D01*
X386022Y490983D01*
X386272Y490622D01*
X386300Y490566D01*
X386383Y490428D01*
X386466Y490233D01*
X386605Y489928D01*
X386744Y489567D01*
X386883Y489123D01*
X387021Y488651D01*
X387132Y488123D01*
Y488096D01*
Y488068D01*
X387160Y487984D01*
Y487873D01*
X387188Y487735D01*
X387216Y487568D01*
X387271Y487152D01*
X387299Y486652D01*
X387354Y486097D01*
X387382Y485458D01*
Y484764D01*
Y484736D01*
Y484681D01*
Y484570D01*
Y484459D01*
Y484292D01*
X387354Y484098D01*
Y483653D01*
X387299Y483126D01*
X387243Y482571D01*
X387188Y481988D01*
X387077Y481405D01*
Y481377D01*
Y481349D01*
X387049Y481266D01*
X387021Y481155D01*
X386938Y480877D01*
X386827Y480516D01*
X386688Y480128D01*
X386522Y479683D01*
X386327Y479267D01*
X386077Y478851D01*
X386050Y478795D01*
X385966Y478684D01*
X385800Y478490D01*
X385605Y478268D01*
X385355Y477990D01*
X385050Y477740D01*
X384717Y477463D01*
X384328Y477240D01*
X384273Y477213D01*
X384134Y477157D01*
X383912Y477074D01*
X383579Y476963D01*
X383190Y476852D01*
X382746Y476768D01*
X382246Y476713D01*
X381663Y476685D01*
X381413D01*
X381108Y476713D01*
X380747Y476741D01*
X380331Y476824D01*
X379886Y476907D01*
X379442Y477046D01*
X379026Y477213D01*
X378970Y477240D01*
X378859Y477324D01*
X378665Y477435D01*
X378415Y477629D01*
X378165Y477851D01*
X377887Y478129D01*
X377610Y478434D01*
X377360Y478795D01*
X377332Y478851D01*
X377249Y478989D01*
X377166Y479212D01*
X377027Y479489D01*
X376888Y479850D01*
X376749Y480294D01*
X376610Y480766D01*
X376499Y481294D01*
Y481321D01*
Y481349D01*
X376472Y481433D01*
Y481544D01*
X376444Y481682D01*
Y481849D01*
X376388Y482265D01*
X376361Y482765D01*
X376305Y483320D01*
X376277Y483959D01*
Y484653D01*
Y484681D01*
Y484736D01*
Y484820D01*
Y484958D01*
Y485125D01*
X376305Y485319D01*
Y485764D01*
X376361Y486263D01*
X376416Y486846D01*
X376472Y487401D01*
X376583Y487984D01*
Y488012D01*
X376610Y488040D01*
Y488123D01*
X376638Y488234D01*
X376721Y488512D01*
X376833Y488873D01*
X376944Y489289D01*
X377110Y489706D01*
X377332Y490150D01*
X377554Y490566D01*
X377582Y490622D01*
X377665Y490733D01*
X377832Y490927D01*
X378026Y491177D01*
X378276Y491427D01*
X378582Y491705D01*
X378915Y491954D01*
X379303Y492177D01*
X379359Y492204D01*
X379498Y492260D01*
X379748Y492371D01*
X380053Y492482D01*
X380442Y492565D01*
X380886Y492676D01*
X381413Y492732D01*
X381969Y492760D01*
X382246D01*
X382524Y492732D01*
D02*
G37*
%LPC*%
G36*
X-33959Y246919D02*
X-34264D01*
X-34597D01*
X-34653D01*
X-34792D01*
X-34986D01*
X-35264D01*
X-35569Y246891D01*
X-35875D01*
X-36541Y246835D01*
X-36569D01*
X-36680D01*
X-36846Y246807D01*
X-37041Y246780D01*
X-37290Y246752D01*
X-37513Y246724D01*
X-38012Y246641D01*
X-38040D01*
X-38123Y246613D01*
X-38234Y246585D01*
X-38373Y246558D01*
X-38734Y246474D01*
X-39067Y246336D01*
X-39095D01*
X-39151Y246308D01*
X-39317Y246224D01*
X-39539Y246086D01*
X-39761Y245891D01*
X-39817Y245836D01*
X-39928Y245725D01*
X-40039Y245530D01*
X-40150Y245308D01*
Y245280D01*
X-40178Y245253D01*
X-40205Y245086D01*
X-40233Y244864D01*
X-40261Y244559D01*
Y244448D01*
X-40233Y244309D01*
X-40205Y244142D01*
X-40122Y243781D01*
X-40011Y243587D01*
X-39900Y243393D01*
X-39872Y243365D01*
X-39845Y243309D01*
X-39761Y243226D01*
X-39650Y243143D01*
X-39511Y243032D01*
X-39317Y242893D01*
X-39123Y242782D01*
X-38873Y242671D01*
X-38845D01*
X-38762Y242615D01*
X-38595Y242588D01*
X-38401Y242532D01*
X-38179Y242449D01*
X-37873Y242393D01*
X-37540Y242338D01*
X-37179Y242282D01*
X-37124D01*
X-36985D01*
X-36791Y242254D01*
X-36485D01*
X-36152Y242227D01*
X-35736D01*
X-35292Y242199D01*
X-34792D01*
X-34764D01*
X-34708D01*
X-34625D01*
X-34514D01*
X-34209D01*
X-33848Y242227D01*
X-33404D01*
X-32932Y242254D01*
X-32487Y242282D01*
X-32043Y242310D01*
X-31988D01*
X-31877Y242338D01*
X-31655Y242365D01*
X-31433Y242421D01*
X-31155Y242477D01*
X-30850Y242532D01*
X-30572Y242643D01*
X-30322Y242726D01*
X-30294D01*
X-30211Y242782D01*
X-30100Y242837D01*
X-29961Y242921D01*
X-29684Y243143D01*
X-29545Y243282D01*
X-29434Y243448D01*
Y243476D01*
X-29406Y243531D01*
X-29350Y243615D01*
X-29323Y243754D01*
X-29267Y243892D01*
X-29212Y244087D01*
X-29184Y244503D01*
Y244670D01*
X-29212Y244781D01*
X-29239Y245058D01*
X-29323Y245336D01*
Y245364D01*
X-29350Y245392D01*
X-29434Y245558D01*
X-29573Y245753D01*
X-29767Y245947D01*
X-29795D01*
X-29822Y246002D01*
X-29989Y246113D01*
X-30211Y246252D01*
X-30516Y246391D01*
X-30544D01*
X-30600Y246419D01*
X-30711Y246446D01*
X-30822Y246502D01*
X-31155Y246613D01*
X-31571Y246696D01*
X-31599D01*
X-31682Y246724D01*
X-31793D01*
X-31960Y246752D01*
X-32182Y246780D01*
X-32404Y246807D01*
X-32932Y246863D01*
X-32959D01*
X-33070D01*
X-33209Y246891D01*
X-33431D01*
X-33681D01*
X-33959Y246919D01*
D02*
G37*
G36*
Y234453D02*
X-34264D01*
X-34597D01*
X-34653D01*
X-34792D01*
X-34986D01*
X-35264D01*
X-35569Y234426D01*
X-35875D01*
X-36541Y234370D01*
X-36569D01*
X-36680D01*
X-36846Y234342D01*
X-37041Y234314D01*
X-37290Y234287D01*
X-37513Y234259D01*
X-38012Y234176D01*
X-38040D01*
X-38123Y234148D01*
X-38234Y234120D01*
X-38373Y234092D01*
X-38734Y234009D01*
X-39067Y233870D01*
X-39095D01*
X-39151Y233843D01*
X-39317Y233759D01*
X-39539Y233620D01*
X-39761Y233426D01*
X-39817Y233370D01*
X-39928Y233260D01*
X-40039Y233065D01*
X-40150Y232843D01*
Y232815D01*
X-40178Y232787D01*
X-40205Y232621D01*
X-40233Y232399D01*
X-40261Y232094D01*
Y231982D01*
X-40233Y231844D01*
X-40205Y231677D01*
X-40122Y231316D01*
X-40011Y231122D01*
X-39900Y230928D01*
X-39872Y230900D01*
X-39845Y230844D01*
X-39761Y230761D01*
X-39650Y230678D01*
X-39511Y230567D01*
X-39317Y230428D01*
X-39123Y230317D01*
X-38873Y230206D01*
X-38845D01*
X-38762Y230150D01*
X-38595Y230122D01*
X-38401Y230067D01*
X-38179Y229984D01*
X-37873Y229928D01*
X-37540Y229872D01*
X-37179Y229817D01*
X-37124D01*
X-36985D01*
X-36791Y229789D01*
X-36485D01*
X-36152Y229761D01*
X-35736D01*
X-35292Y229734D01*
X-34792D01*
X-34764D01*
X-34708D01*
X-34625D01*
X-34514D01*
X-34209D01*
X-33848Y229761D01*
X-33404D01*
X-32932Y229789D01*
X-32487Y229817D01*
X-32043Y229845D01*
X-31988D01*
X-31877Y229872D01*
X-31655Y229900D01*
X-31433Y229956D01*
X-31155Y230011D01*
X-30850Y230067D01*
X-30572Y230178D01*
X-30322Y230261D01*
X-30294D01*
X-30211Y230317D01*
X-30100Y230372D01*
X-29961Y230455D01*
X-29684Y230678D01*
X-29545Y230816D01*
X-29434Y230983D01*
Y231011D01*
X-29406Y231066D01*
X-29350Y231150D01*
X-29323Y231288D01*
X-29267Y231427D01*
X-29212Y231621D01*
X-29184Y232038D01*
Y232204D01*
X-29212Y232316D01*
X-29239Y232593D01*
X-29323Y232871D01*
Y232899D01*
X-29350Y232926D01*
X-29434Y233093D01*
X-29573Y233287D01*
X-29767Y233482D01*
X-29795D01*
X-29822Y233537D01*
X-29989Y233648D01*
X-30211Y233787D01*
X-30516Y233926D01*
X-30544D01*
X-30600Y233953D01*
X-30711Y233981D01*
X-30822Y234037D01*
X-31155Y234148D01*
X-31571Y234231D01*
X-31599D01*
X-31682Y234259D01*
X-31793D01*
X-31960Y234287D01*
X-32182Y234314D01*
X-32404Y234342D01*
X-32932Y234398D01*
X-32959D01*
X-33070D01*
X-33209Y234426D01*
X-33431D01*
X-33681D01*
X-33959Y234453D01*
D02*
G37*
G36*
X-32710Y201444D02*
X-39845D01*
Y201416D01*
X-32710Y197335D01*
Y201444D01*
D02*
G37*
G36*
X394295Y490261D02*
X394184D01*
X394045Y490233D01*
X393879Y490205D01*
X393518Y490122D01*
X393323Y490011D01*
X393129Y489900D01*
X393101Y489872D01*
X393046Y489845D01*
X392962Y489761D01*
X392879Y489650D01*
X392768Y489511D01*
X392629Y489317D01*
X392518Y489123D01*
X392407Y488873D01*
Y488845D01*
X392352Y488762D01*
X392324Y488595D01*
X392268Y488401D01*
X392185Y488179D01*
X392130Y487873D01*
X392074Y487540D01*
X392019Y487179D01*
Y487124D01*
Y486985D01*
X391991Y486791D01*
Y486485D01*
X391963Y486152D01*
Y485736D01*
X391935Y485291D01*
Y484792D01*
Y484764D01*
Y484709D01*
Y484625D01*
Y484514D01*
Y484209D01*
X391963Y483848D01*
Y483404D01*
X391991Y482932D01*
X392019Y482487D01*
X392046Y482043D01*
Y481988D01*
X392074Y481877D01*
X392102Y481655D01*
X392157Y481433D01*
X392213Y481155D01*
X392268Y480850D01*
X392379Y480572D01*
X392463Y480322D01*
Y480294D01*
X392518Y480211D01*
X392574Y480100D01*
X392657Y479961D01*
X392879Y479683D01*
X393018Y479545D01*
X393185Y479434D01*
X393212D01*
X393268Y479406D01*
X393351Y479350D01*
X393490Y479323D01*
X393629Y479267D01*
X393823Y479212D01*
X394239Y479184D01*
X394406D01*
X394517Y479212D01*
X394795Y479239D01*
X395072Y479323D01*
X395100D01*
X395128Y479350D01*
X395294Y479434D01*
X395489Y479572D01*
X395683Y479767D01*
Y479795D01*
X395739Y479822D01*
X395850Y479989D01*
X395989Y480211D01*
X396127Y480516D01*
Y480544D01*
X396155Y480600D01*
X396183Y480711D01*
X396238Y480822D01*
X396349Y481155D01*
X396433Y481571D01*
Y481599D01*
X396460Y481682D01*
Y481794D01*
X396488Y481960D01*
X396516Y482182D01*
X396544Y482404D01*
X396599Y482932D01*
Y482960D01*
Y483070D01*
X396627Y483209D01*
Y483431D01*
Y483681D01*
X396655Y483959D01*
Y484264D01*
Y484598D01*
Y484653D01*
Y484792D01*
Y484986D01*
Y485264D01*
X396627Y485569D01*
Y485874D01*
X396572Y486541D01*
Y486569D01*
Y486680D01*
X396544Y486846D01*
X396516Y487040D01*
X396488Y487290D01*
X396460Y487513D01*
X396377Y488012D01*
Y488040D01*
X396349Y488123D01*
X396322Y488234D01*
X396294Y488373D01*
X396211Y488734D01*
X396072Y489067D01*
Y489095D01*
X396044Y489151D01*
X395961Y489317D01*
X395822Y489539D01*
X395628Y489761D01*
X395572Y489817D01*
X395461Y489928D01*
X395267Y490039D01*
X395045Y490150D01*
X395017D01*
X394989Y490178D01*
X394823Y490205D01*
X394600Y490233D01*
X394295Y490261D01*
D02*
G37*
G36*
X381830D02*
X381719D01*
X381580Y490233D01*
X381413Y490205D01*
X381052Y490122D01*
X380858Y490011D01*
X380664Y489900D01*
X380636Y489872D01*
X380580Y489845D01*
X380497Y489761D01*
X380414Y489650D01*
X380303Y489511D01*
X380164Y489317D01*
X380053Y489123D01*
X379942Y488873D01*
Y488845D01*
X379886Y488762D01*
X379859Y488595D01*
X379803Y488401D01*
X379720Y488179D01*
X379664Y487873D01*
X379609Y487540D01*
X379553Y487179D01*
Y487124D01*
Y486985D01*
X379525Y486791D01*
Y486485D01*
X379498Y486152D01*
Y485736D01*
X379470Y485291D01*
Y484792D01*
Y484764D01*
Y484709D01*
Y484625D01*
Y484514D01*
Y484209D01*
X379498Y483848D01*
Y483404D01*
X379525Y482932D01*
X379553Y482487D01*
X379581Y482043D01*
Y481988D01*
X379609Y481877D01*
X379636Y481655D01*
X379692Y481433D01*
X379748Y481155D01*
X379803Y480850D01*
X379914Y480572D01*
X379997Y480322D01*
Y480294D01*
X380053Y480211D01*
X380108Y480100D01*
X380192Y479961D01*
X380414Y479683D01*
X380553Y479545D01*
X380719Y479434D01*
X380747D01*
X380802Y479406D01*
X380886Y479350D01*
X381025Y479323D01*
X381163Y479267D01*
X381358Y479212D01*
X381774Y479184D01*
X381941D01*
X382052Y479212D01*
X382329Y479239D01*
X382607Y479323D01*
X382635D01*
X382663Y479350D01*
X382829Y479434D01*
X383023Y479572D01*
X383218Y479767D01*
Y479795D01*
X383273Y479822D01*
X383384Y479989D01*
X383523Y480211D01*
X383662Y480516D01*
Y480544D01*
X383690Y480600D01*
X383718Y480711D01*
X383773Y480822D01*
X383884Y481155D01*
X383967Y481571D01*
Y481599D01*
X383995Y481682D01*
Y481794D01*
X384023Y481960D01*
X384051Y482182D01*
X384078Y482404D01*
X384134Y482932D01*
Y482960D01*
Y483070D01*
X384162Y483209D01*
Y483431D01*
Y483681D01*
X384189Y483959D01*
Y484264D01*
Y484598D01*
Y484653D01*
Y484792D01*
Y484986D01*
Y485264D01*
X384162Y485569D01*
Y485874D01*
X384106Y486541D01*
Y486569D01*
Y486680D01*
X384078Y486846D01*
X384051Y487040D01*
X384023Y487290D01*
X383995Y487513D01*
X383912Y488012D01*
Y488040D01*
X383884Y488123D01*
X383856Y488234D01*
X383829Y488373D01*
X383745Y488734D01*
X383606Y489067D01*
Y489095D01*
X383579Y489151D01*
X383495Y489317D01*
X383357Y489539D01*
X383162Y489761D01*
X383107Y489817D01*
X382996Y489928D01*
X382801Y490039D01*
X382579Y490150D01*
X382552D01*
X382524Y490178D01*
X382357Y490205D01*
X382135Y490233D01*
X381830Y490261D01*
D02*
G37*
%LPD*%
D49*
X-35000Y450000D02*
X-29920Y434760D01*
X-40080D02*
X-35000Y450000D01*
X-40080Y15240D02*
X-35000Y0D01*
X-29920Y15240D01*
X-35000Y252651D02*
Y450000D01*
Y0D02*
Y192269D01*
X-37540Y450000D02*
X0D01*
X-37540Y0D02*
X0D01*
Y485000D02*
X15240Y490080D01*
X0Y485000D02*
X15240Y479920D01*
X734760D02*
X750000Y485000D01*
X734760Y490080D02*
X750000Y485000D01*
X0D02*
X342533D01*
X402387D02*
X750000D01*
X0Y450000D02*
Y487540D01*
X750000Y450000D02*
Y487540D01*
M02*
