G04*
G04 #@! TF.GenerationSoftware,Altium Limited,Altium Designer,24.9.1 (31)*
G04*
G04 Layer_Color=16711935*
%FSLAX44Y44*%
%MOMM*%
G71*
G04*
G04 #@! TF.SameCoordinates,CAE1AE67-0460-43A2-896A-31C629D7927E*
G04*
G04*
G04 #@! TF.FilePolarity,Positive*
G04*
G01*
G75*
%ADD12C,0.2000*%
G36*
X220677Y55085D02*
X220668D01*
X220659D01*
X220631Y55076D01*
X220594D01*
X220511Y55057D01*
X220391Y55030D01*
X220271Y54992D01*
X220132Y54956D01*
X220002Y54891D01*
X219882Y54826D01*
X219873Y54817D01*
X219836Y54789D01*
X219771Y54743D01*
X219706Y54669D01*
X219623Y54576D01*
X219540Y54475D01*
X219457Y54336D01*
X219383Y54188D01*
Y54179D01*
X219374Y54170D01*
X219364Y54142D01*
X219355Y54114D01*
X219328Y54022D01*
X219291Y53902D01*
X219254Y53754D01*
X219226Y53587D01*
X219207Y53402D01*
X219198Y53199D01*
Y53116D01*
X219207Y53023D01*
X219216Y52912D01*
X219235Y52783D01*
X219254Y52635D01*
X219291Y52487D01*
X219337Y52348D01*
X219346Y52330D01*
X219364Y52284D01*
X219401Y52219D01*
X219438Y52136D01*
X219503Y52052D01*
X219568Y51960D01*
X219642Y51867D01*
X219734Y51793D01*
X219743Y51784D01*
X219781Y51766D01*
X219827Y51738D01*
X219901Y51701D01*
X219975Y51664D01*
X220067Y51636D01*
X220169Y51618D01*
X220280Y51609D01*
X220289D01*
X220335D01*
X220391Y51618D01*
X220465Y51627D01*
X220539Y51655D01*
X220631Y51683D01*
X220723Y51729D01*
X220807Y51793D01*
X220816Y51803D01*
X220844Y51831D01*
X220881Y51867D01*
X220936Y51932D01*
X220992Y52006D01*
X221056Y52108D01*
X221121Y52228D01*
X221177Y52367D01*
X221186Y52376D01*
X221195Y52422D01*
X221223Y52496D01*
X221232Y52542D01*
X221250Y52607D01*
X221278Y52672D01*
X221297Y52755D01*
X221325Y52847D01*
X221352Y52958D01*
X221380Y53069D01*
X221417Y53199D01*
X221454Y53347D01*
X221491Y53504D01*
Y53513D01*
X221500Y53541D01*
X221509Y53587D01*
X221528Y53643D01*
X221546Y53717D01*
X221565Y53800D01*
X221620Y53985D01*
X221685Y54188D01*
X221750Y54401D01*
X221814Y54586D01*
X221852Y54669D01*
X221889Y54743D01*
Y54752D01*
X221898Y54761D01*
X221935Y54817D01*
X221981Y54900D01*
X222055Y54992D01*
X222138Y55103D01*
X222240Y55214D01*
X222360Y55325D01*
X222489Y55418D01*
X222508Y55427D01*
X222554Y55455D01*
X222628Y55492D01*
X222721Y55529D01*
X222841Y55566D01*
X222980Y55603D01*
X223127Y55630D01*
X223285Y55640D01*
X223294D01*
X223303D01*
X223331D01*
X223368D01*
X223460Y55621D01*
X223580Y55603D01*
X223719Y55575D01*
X223876Y55529D01*
X224034Y55464D01*
X224191Y55372D01*
X224200D01*
X224209Y55362D01*
X224265Y55316D01*
X224339Y55251D01*
X224431Y55168D01*
X224533Y55057D01*
X224644Y54918D01*
X224745Y54752D01*
X224838Y54567D01*
Y54558D01*
X224847Y54539D01*
X224856Y54512D01*
X224875Y54475D01*
X224893Y54429D01*
X224912Y54364D01*
X224949Y54225D01*
X224986Y54049D01*
X225023Y53846D01*
X225051Y53633D01*
X225060Y53393D01*
Y53273D01*
X225051Y53208D01*
Y53143D01*
X225032Y52968D01*
X225004Y52774D01*
X224958Y52570D01*
X224902Y52348D01*
X224829Y52145D01*
Y52136D01*
X224819Y52117D01*
X224801Y52089D01*
X224782Y52052D01*
X224736Y51960D01*
X224653Y51840D01*
X224561Y51701D01*
X224440Y51562D01*
X224302Y51433D01*
X224144Y51313D01*
X224135D01*
X224126Y51304D01*
X224098Y51285D01*
X224070Y51266D01*
X223978Y51220D01*
X223858Y51165D01*
X223710Y51100D01*
X223534Y51054D01*
X223349Y51008D01*
X223146Y50989D01*
X223081Y51803D01*
X223090D01*
X223109D01*
X223137Y51812D01*
X223183Y51821D01*
X223285Y51849D01*
X223423Y51886D01*
X223571Y51941D01*
X223719Y52025D01*
X223858Y52126D01*
X223987Y52256D01*
X223997Y52274D01*
X224034Y52320D01*
X224089Y52413D01*
X224144Y52533D01*
X224200Y52690D01*
X224255Y52875D01*
X224292Y53106D01*
X224302Y53365D01*
Y53495D01*
X224292Y53550D01*
X224283Y53624D01*
X224265Y53791D01*
X224228Y53976D01*
X224181Y54160D01*
X224107Y54336D01*
X224061Y54410D01*
X224015Y54484D01*
X224006Y54503D01*
X223969Y54539D01*
X223904Y54595D01*
X223830Y54650D01*
X223728Y54715D01*
X223617Y54771D01*
X223488Y54808D01*
X223340Y54826D01*
X223321D01*
X223285D01*
X223220Y54817D01*
X223146Y54798D01*
X223053Y54771D01*
X222961Y54724D01*
X222868Y54669D01*
X222776Y54586D01*
X222767Y54576D01*
X222739Y54530D01*
X222711Y54493D01*
X222693Y54456D01*
X222665Y54401D01*
X222628Y54336D01*
X222600Y54253D01*
X222563Y54160D01*
X222526Y54059D01*
X222480Y53938D01*
X222443Y53809D01*
X222397Y53661D01*
X222360Y53495D01*
X222314Y53310D01*
Y53301D01*
X222304Y53264D01*
X222295Y53208D01*
X222277Y53143D01*
X222258Y53060D01*
X222231Y52958D01*
X222203Y52857D01*
X222175Y52746D01*
X222110Y52505D01*
X222046Y52274D01*
X222009Y52163D01*
X221972Y52062D01*
X221944Y51969D01*
X221907Y51895D01*
Y51886D01*
X221898Y51867D01*
X221879Y51840D01*
X221861Y51803D01*
X221805Y51701D01*
X221731Y51581D01*
X221630Y51442D01*
X221519Y51304D01*
X221389Y51174D01*
X221250Y51063D01*
X221232Y51054D01*
X221186Y51017D01*
X221103Y50980D01*
X220992Y50924D01*
X220862Y50878D01*
X220705Y50832D01*
X220529Y50804D01*
X220345Y50795D01*
X220335D01*
X220326D01*
X220298D01*
X220261D01*
X220160Y50813D01*
X220030Y50832D01*
X219882Y50869D01*
X219725Y50915D01*
X219559Y50989D01*
X219383Y51091D01*
X219374D01*
X219364Y51100D01*
X219309Y51146D01*
X219226Y51211D01*
X219133Y51304D01*
X219022Y51424D01*
X218902Y51572D01*
X218791Y51738D01*
X218689Y51932D01*
Y51941D01*
X218680Y51960D01*
X218671Y51988D01*
X218652Y52025D01*
X218634Y52080D01*
X218606Y52145D01*
X218569Y52293D01*
X218523Y52468D01*
X218477Y52681D01*
X218449Y52912D01*
X218440Y53162D01*
Y53310D01*
X218449Y53384D01*
Y53467D01*
X218458Y53559D01*
X218468Y53670D01*
X218505Y53902D01*
X218542Y54142D01*
X218606Y54382D01*
X218689Y54613D01*
Y54623D01*
X218699Y54641D01*
X218717Y54669D01*
X218736Y54706D01*
X218791Y54817D01*
X218874Y54946D01*
X218985Y55094D01*
X219115Y55251D01*
X219272Y55399D01*
X219448Y55538D01*
X219457D01*
X219475Y55557D01*
X219503Y55566D01*
X219540Y55594D01*
X219586Y55612D01*
X219642Y55640D01*
X219781Y55704D01*
X219956Y55769D01*
X220150Y55825D01*
X220372Y55862D01*
X220603Y55880D01*
X220677Y55085D01*
D02*
G37*
G36*
X224949Y49343D02*
X220751Y48391D01*
X220742D01*
X220723Y48382D01*
X220687Y48373D01*
X220640Y48363D01*
X220576Y48354D01*
X220511Y48336D01*
X220428Y48317D01*
X220335Y48299D01*
X220141Y48253D01*
X219919Y48206D01*
X219679Y48160D01*
X219438Y48114D01*
X219448D01*
X219485Y48105D01*
X219531Y48086D01*
X219605Y48077D01*
X219679Y48058D01*
X219771Y48031D01*
X219975Y47984D01*
X220178Y47929D01*
X220280Y47910D01*
X220372Y47883D01*
X220455Y47864D01*
X220529Y47846D01*
X220585Y47827D01*
X220622Y47818D01*
X224949Y46607D01*
Y45581D01*
X221704Y44674D01*
X221694D01*
X221648Y44656D01*
X221583Y44637D01*
X221500Y44619D01*
X221389Y44591D01*
X221269Y44554D01*
X221130Y44517D01*
X220973Y44480D01*
X220798Y44434D01*
X220622Y44397D01*
X220243Y44314D01*
X219845Y44231D01*
X219438Y44166D01*
X219448D01*
X219466Y44157D01*
X219503D01*
X219549Y44138D01*
X219605Y44129D01*
X219669Y44110D01*
X219753Y44101D01*
X219845Y44073D01*
X220049Y44027D01*
X220289Y43972D01*
X220548Y43916D01*
X220835Y43842D01*
X224949Y42844D01*
Y41984D01*
X218551Y43741D01*
Y44573D01*
X223423Y45913D01*
X223433D01*
X223451Y45923D01*
X223479Y45932D01*
X223525Y45941D01*
X223627Y45969D01*
X223747Y45996D01*
X223876Y46034D01*
X223997Y46070D01*
X224098Y46098D01*
X224144Y46108D01*
X224172Y46117D01*
X224163D01*
X224154Y46126D01*
X224098Y46135D01*
X224015Y46154D01*
X223913Y46181D01*
X223802Y46209D01*
X223673Y46246D01*
X223543Y46274D01*
X223423Y46311D01*
X218551Y47661D01*
Y48548D01*
X224949Y50222D01*
Y49343D01*
D02*
G37*
G36*
X223368Y40902D02*
X223386Y40884D01*
X223396Y40847D01*
X223423Y40800D01*
X223451Y40745D01*
X223488Y40680D01*
X223580Y40523D01*
X223682Y40338D01*
X223812Y40153D01*
X223960Y39959D01*
X224117Y39765D01*
X224126Y39756D01*
X224135Y39746D01*
X224163Y39719D01*
X224191Y39682D01*
X224283Y39599D01*
X224394Y39488D01*
X224524Y39377D01*
X224671Y39256D01*
X224819Y39155D01*
X224977Y39062D01*
Y38554D01*
X218551D01*
Y39340D01*
X223553D01*
X223543Y39349D01*
X223507Y39395D01*
X223451Y39451D01*
X223386Y39543D01*
X223303Y39645D01*
X223211Y39774D01*
X223109Y39922D01*
X223007Y40089D01*
Y40098D01*
X222998Y40107D01*
X222961Y40163D01*
X222915Y40255D01*
X222859Y40366D01*
X222795Y40495D01*
X222730Y40634D01*
X222665Y40773D01*
X222610Y40911D01*
X223368D01*
Y40902D01*
D02*
G37*
G36*
X421373Y135119D02*
X420587D01*
Y140121D01*
X420578Y140112D01*
X420531Y140075D01*
X420476Y140019D01*
X420383Y139955D01*
X420282Y139871D01*
X420152Y139779D01*
X420004Y139677D01*
X419838Y139576D01*
X419829D01*
X419819Y139566D01*
X419764Y139529D01*
X419672Y139483D01*
X419561Y139428D01*
X419431Y139363D01*
X419292Y139298D01*
X419154Y139233D01*
X419015Y139178D01*
Y139936D01*
X419024D01*
X419043Y139955D01*
X419080Y139964D01*
X419126Y139992D01*
X419182Y140019D01*
X419246Y140056D01*
X419403Y140149D01*
X419588Y140250D01*
X419773Y140380D01*
X419967Y140528D01*
X420162Y140685D01*
X420171Y140694D01*
X420180Y140703D01*
X420208Y140731D01*
X420245Y140759D01*
X420328Y140851D01*
X420439Y140962D01*
X420550Y141092D01*
X420670Y141240D01*
X420772Y141388D01*
X420864Y141545D01*
X421373D01*
Y135119D01*
D02*
G37*
G36*
X414688Y141619D02*
X414771D01*
X414855Y141609D01*
X414966Y141591D01*
X415076Y141573D01*
X415317Y141526D01*
X415594Y141452D01*
X415862Y141341D01*
X416001Y141277D01*
X416140Y141203D01*
X416149Y141194D01*
X416167Y141184D01*
X416204Y141157D01*
X416260Y141129D01*
X416315Y141082D01*
X416389Y141027D01*
X416547Y140898D01*
X416713Y140731D01*
X416898Y140528D01*
X417074Y140287D01*
X417221Y140019D01*
Y140010D01*
X417240Y139982D01*
X417258Y139945D01*
X417277Y139890D01*
X417314Y139816D01*
X417342Y139733D01*
X417379Y139631D01*
X417416Y139520D01*
X417443Y139400D01*
X417480Y139270D01*
X417517Y139132D01*
X417545Y138984D01*
X417582Y138660D01*
X417601Y138318D01*
Y138309D01*
Y138281D01*
Y138244D01*
Y138189D01*
X417591Y138115D01*
Y138032D01*
X417582Y137939D01*
X417573Y137847D01*
X417545Y137625D01*
X417499Y137384D01*
X417443Y137135D01*
X417360Y136894D01*
Y136885D01*
X417351Y136867D01*
X417332Y136830D01*
X417314Y136793D01*
X417286Y136737D01*
X417258Y136672D01*
X417184Y136524D01*
X417083Y136349D01*
X416953Y136164D01*
X416805Y135979D01*
X416639Y135794D01*
X416648D01*
X416667Y135776D01*
X416694Y135757D01*
X416741Y135729D01*
X416787Y135692D01*
X416852Y135655D01*
X416990Y135572D01*
X417157Y135471D01*
X417342Y135369D01*
X417536Y135286D01*
X417721Y135202D01*
X417471Y134620D01*
X417462D01*
X417443Y134629D01*
X417406Y134648D01*
X417351Y134666D01*
X417286Y134694D01*
X417212Y134731D01*
X417129Y134768D01*
X417037Y134814D01*
X416833Y134925D01*
X416602Y135054D01*
X416352Y135221D01*
X416093Y135406D01*
X416084D01*
X416066Y135387D01*
X416020Y135369D01*
X415973Y135341D01*
X415899Y135313D01*
X415825Y135276D01*
X415733Y135249D01*
X415631Y135212D01*
X415520Y135175D01*
X415400Y135138D01*
X415132Y135073D01*
X414836Y135027D01*
X414679Y135017D01*
X414522Y135008D01*
X414439D01*
X414374Y135017D01*
X414300D01*
X414207Y135027D01*
X414106Y135045D01*
X413995Y135064D01*
X413754Y135110D01*
X413486Y135184D01*
X413209Y135286D01*
X413079Y135350D01*
X412941Y135424D01*
X412931Y135434D01*
X412913Y135443D01*
X412876Y135471D01*
X412830Y135498D01*
X412765Y135544D01*
X412700Y135600D01*
X412543Y135729D01*
X412368Y135896D01*
X412192Y136099D01*
X412016Y136330D01*
X411859Y136598D01*
Y136608D01*
X411841Y136635D01*
X411822Y136672D01*
X411804Y136728D01*
X411776Y136802D01*
X411739Y136885D01*
X411702Y136987D01*
X411674Y137098D01*
X411637Y137218D01*
X411600Y137347D01*
X411572Y137486D01*
X411535Y137643D01*
X411498Y137967D01*
X411480Y138309D01*
Y138318D01*
Y138355D01*
Y138401D01*
X411489Y138466D01*
Y138549D01*
X411498Y138651D01*
X411508Y138762D01*
X411526Y138882D01*
X411572Y139150D01*
X411637Y139437D01*
X411730Y139742D01*
X411859Y140038D01*
X411868Y140047D01*
X411877Y140075D01*
X411896Y140112D01*
X411933Y140167D01*
X411970Y140232D01*
X412016Y140306D01*
X412146Y140482D01*
X412294Y140667D01*
X412488Y140861D01*
X412700Y141055D01*
X412950Y141221D01*
X412959Y141230D01*
X412987Y141240D01*
X413024Y141258D01*
X413079Y141286D01*
X413144Y141314D01*
X413218Y141351D01*
X413311Y141388D01*
X413412Y141425D01*
X413532Y141462D01*
X413653Y141499D01*
X413921Y141563D01*
X414217Y141609D01*
X414374Y141628D01*
X414623D01*
X414688Y141619D01*
D02*
G37*
G36*
X241994Y189431D02*
X242077D01*
X242179Y189422D01*
X242290Y189412D01*
X242410Y189394D01*
X242678Y189348D01*
X242964Y189283D01*
X243270Y189190D01*
X243566Y189061D01*
X243575Y189052D01*
X243603Y189042D01*
X243639Y189024D01*
X243695Y188987D01*
X243760Y188950D01*
X243834Y188904D01*
X244009Y188774D01*
X244194Y188626D01*
X244388Y188432D01*
X244583Y188220D01*
X244749Y187970D01*
X244758Y187961D01*
X244767Y187933D01*
X244786Y187896D01*
X244814Y187840D01*
X244841Y187776D01*
X244878Y187702D01*
X244915Y187609D01*
X244952Y187508D01*
X244989Y187388D01*
X245026Y187267D01*
X245091Y186999D01*
X245137Y186703D01*
X245156Y186546D01*
Y186297D01*
X245147Y186232D01*
Y186149D01*
X245137Y186065D01*
X245119Y185954D01*
X245100Y185844D01*
X245054Y185603D01*
X244980Y185326D01*
X244869Y185058D01*
X244804Y184919D01*
X244730Y184780D01*
X244721Y184771D01*
X244712Y184753D01*
X244684Y184715D01*
X244657Y184660D01*
X244610Y184605D01*
X244555Y184531D01*
X244425Y184373D01*
X244259Y184207D01*
X244056Y184022D01*
X243815Y183846D01*
X243547Y183699D01*
X243538D01*
X243510Y183680D01*
X243473Y183661D01*
X243417Y183643D01*
X243344Y183606D01*
X243260Y183578D01*
X243159Y183541D01*
X243048Y183504D01*
X242927Y183477D01*
X242798Y183440D01*
X242659Y183403D01*
X242512Y183375D01*
X242188Y183338D01*
X241846Y183319D01*
X241836D01*
X241809D01*
X241772D01*
X241716D01*
X241642Y183329D01*
X241559D01*
X241467Y183338D01*
X241374Y183347D01*
X241152Y183375D01*
X240912Y183421D01*
X240662Y183477D01*
X240422Y183560D01*
X240413D01*
X240394Y183569D01*
X240357Y183587D01*
X240320Y183606D01*
X240265Y183634D01*
X240200Y183661D01*
X240052Y183736D01*
X239876Y183837D01*
X239692Y183967D01*
X239507Y184114D01*
X239322Y184281D01*
Y184272D01*
X239303Y184253D01*
X239285Y184226D01*
X239257Y184179D01*
X239220Y184133D01*
X239183Y184068D01*
X239100Y183930D01*
X238998Y183763D01*
X238896Y183578D01*
X238813Y183384D01*
X238730Y183199D01*
X238148Y183449D01*
Y183458D01*
X238157Y183477D01*
X238175Y183514D01*
X238194Y183569D01*
X238221Y183634D01*
X238258Y183708D01*
X238295Y183791D01*
X238342Y183883D01*
X238453Y184087D01*
X238582Y184318D01*
X238748Y184568D01*
X238933Y184827D01*
Y184836D01*
X238915Y184854D01*
X238896Y184900D01*
X238869Y184947D01*
X238841Y185021D01*
X238804Y185095D01*
X238776Y185187D01*
X238739Y185289D01*
X238702Y185400D01*
X238665Y185520D01*
X238601Y185788D01*
X238554Y186084D01*
X238545Y186241D01*
X238536Y186398D01*
Y186481D01*
X238545Y186546D01*
Y186620D01*
X238554Y186713D01*
X238573Y186814D01*
X238591Y186925D01*
X238638Y187166D01*
X238711Y187434D01*
X238813Y187711D01*
X238878Y187840D01*
X238952Y187979D01*
X238961Y187988D01*
X238970Y188007D01*
X238998Y188044D01*
X239026Y188090D01*
X239072Y188155D01*
X239128Y188220D01*
X239257Y188377D01*
X239423Y188552D01*
X239627Y188728D01*
X239858Y188904D01*
X240126Y189061D01*
X240135D01*
X240163Y189079D01*
X240200Y189098D01*
X240256Y189116D01*
X240329Y189144D01*
X240413Y189181D01*
X240514Y189218D01*
X240625Y189246D01*
X240746Y189283D01*
X240875Y189320D01*
X241014Y189348D01*
X241171Y189384D01*
X241495Y189422D01*
X241836Y189440D01*
X241846D01*
X241883D01*
X241929D01*
X241994Y189431D01*
D02*
G37*
G36*
X240385Y181683D02*
X240376D01*
X240357D01*
X240329Y181674D01*
X240283Y181665D01*
X240182Y181637D01*
X240043Y181600D01*
X239904Y181544D01*
X239747Y181470D01*
X239608Y181378D01*
X239479Y181267D01*
X239470Y181248D01*
X239433Y181211D01*
X239387Y181138D01*
X239331Y181036D01*
X239275Y180925D01*
X239229Y180786D01*
X239192Y180629D01*
X239183Y180453D01*
Y180398D01*
X239192Y180361D01*
X239202Y180250D01*
X239238Y180120D01*
X239285Y179963D01*
X239359Y179806D01*
X239470Y179640D01*
X239534Y179566D01*
X239608Y179492D01*
X239618Y179482D01*
X239627Y179473D01*
X239655Y179455D01*
X239682Y179427D01*
X239784Y179362D01*
X239914Y179288D01*
X240071Y179224D01*
X240265Y179159D01*
X240496Y179113D01*
X240616Y179094D01*
X240746D01*
X240755D01*
X240773D01*
X240810D01*
X240856Y179103D01*
X240912D01*
X240977Y179113D01*
X241125Y179140D01*
X241300Y179187D01*
X241476Y179251D01*
X241642Y179344D01*
X241800Y179473D01*
X241809D01*
X241818Y179492D01*
X241864Y179538D01*
X241929Y179621D01*
X242003Y179732D01*
X242068Y179880D01*
X242132Y180047D01*
X242179Y180241D01*
X242197Y180352D01*
Y180527D01*
X242188Y180601D01*
X242179Y180694D01*
X242151Y180805D01*
X242123Y180916D01*
X242077Y181036D01*
X242022Y181156D01*
X242012Y181165D01*
X241994Y181202D01*
X241947Y181258D01*
X241901Y181332D01*
X241836Y181406D01*
X241753Y181479D01*
X241670Y181563D01*
X241568Y181628D01*
X241670Y182367D01*
X244962Y181748D01*
Y178567D01*
X244213D01*
Y181128D01*
X242484Y181470D01*
X242493Y181461D01*
X242502Y181443D01*
X242521Y181415D01*
X242549Y181369D01*
X242576Y181313D01*
X242613Y181248D01*
X242687Y181101D01*
X242761Y180916D01*
X242826Y180712D01*
X242872Y180490D01*
X242890Y180379D01*
Y180176D01*
X242881Y180120D01*
X242872Y180047D01*
X242863Y179963D01*
X242844Y179871D01*
X242817Y179769D01*
X242752Y179547D01*
X242706Y179427D01*
X242641Y179307D01*
X242576Y179187D01*
X242502Y179066D01*
X242410Y178955D01*
X242308Y178845D01*
X242299Y178835D01*
X242280Y178817D01*
X242253Y178789D01*
X242206Y178752D01*
X242142Y178706D01*
X242077Y178660D01*
X241994Y178604D01*
X241901Y178549D01*
X241800Y178503D01*
X241689Y178447D01*
X241559Y178401D01*
X241430Y178354D01*
X241291Y178318D01*
X241134Y178290D01*
X240977Y178271D01*
X240810Y178262D01*
X240801D01*
X240773D01*
X240727D01*
X240662Y178271D01*
X240588Y178281D01*
X240505Y178290D01*
X240403Y178308D01*
X240302Y178327D01*
X240061Y178382D01*
X239812Y178475D01*
X239682Y178530D01*
X239562Y178604D01*
X239433Y178678D01*
X239312Y178771D01*
X239303Y178780D01*
X239275Y178798D01*
X239238Y178835D01*
X239192Y178881D01*
X239137Y178946D01*
X239063Y179020D01*
X238998Y179113D01*
X238924Y179214D01*
X238850Y179325D01*
X238785Y179455D01*
X238721Y179593D01*
X238656Y179741D01*
X238610Y179898D01*
X238573Y180074D01*
X238545Y180259D01*
X238536Y180453D01*
Y180536D01*
X238545Y180601D01*
X238554Y180675D01*
X238564Y180758D01*
X238573Y180860D01*
X238601Y180962D01*
X238656Y181193D01*
X238739Y181424D01*
X238795Y181544D01*
X238860Y181665D01*
X238933Y181775D01*
X239017Y181886D01*
X239026Y181896D01*
X239035Y181914D01*
X239072Y181933D01*
X239109Y181970D01*
X239155Y182016D01*
X239211Y182062D01*
X239285Y182118D01*
X239368Y182164D01*
X239451Y182219D01*
X239553Y182275D01*
X239775Y182376D01*
X240034Y182460D01*
X240172Y182487D01*
X240320Y182506D01*
X240385Y181683D01*
D02*
G37*
G36*
X380226Y382736D02*
X380343D01*
X380422Y382723D01*
X380500Y382710D01*
X380598Y382691D01*
X380788Y382632D01*
X381010Y382540D01*
X381115Y382488D01*
X381219Y382409D01*
X381324Y382331D01*
X381429Y382239D01*
X381442Y382226D01*
X381474Y382194D01*
X381520Y382135D01*
X381586Y382056D01*
X381651Y381965D01*
X381716Y381847D01*
X381788Y381723D01*
X381847Y381586D01*
X381854Y381566D01*
X381873Y381520D01*
X381899Y381442D01*
X381932Y381331D01*
X381958Y381200D01*
X381991Y381036D01*
X382010Y380860D01*
X382030Y380657D01*
Y380631D01*
X382037Y380559D01*
Y380494D01*
Y380428D01*
Y380350D01*
Y380245D01*
Y380141D01*
X382030Y380017D01*
Y379886D01*
X382024Y379735D01*
X382010Y379579D01*
X382004Y379402D01*
X381984Y379212D01*
X381971Y379016D01*
Y379003D01*
Y378977D01*
X381965Y378931D01*
X381958Y378872D01*
Y378794D01*
X381952Y378709D01*
X381932Y378520D01*
X381919Y378310D01*
X381912Y378108D01*
X381906Y377931D01*
X381899Y377859D01*
Y377794D01*
Y377781D01*
Y377742D01*
Y377689D01*
X381906Y377617D01*
X381919Y377539D01*
X381926Y377454D01*
X381958Y377264D01*
X384188Y379494D01*
X384724Y378957D01*
X381723Y375957D01*
X381716Y375963D01*
X381690Y375989D01*
X381651Y376029D01*
X381605Y376087D01*
X381553Y376153D01*
X381501Y376231D01*
X381448Y376310D01*
X381403Y376408D01*
X381396Y376414D01*
Y376427D01*
X381370Y376480D01*
X381337Y376565D01*
X381298Y376682D01*
X381259Y376826D01*
X381219Y376996D01*
X381187Y377173D01*
X381167Y377375D01*
X381161Y377382D01*
X381167Y377402D01*
X381161Y377473D01*
Y377591D01*
Y377761D01*
Y377957D01*
X381167Y378199D01*
X381187Y378480D01*
X381213Y378781D01*
Y378794D01*
X381219Y378840D01*
X381226Y378912D01*
X381232Y378997D01*
X381239Y379108D01*
X381252Y379239D01*
X381259Y379376D01*
X381272Y379533D01*
X381278Y379853D01*
X381285Y380173D01*
Y380330D01*
X381278Y380481D01*
X381272Y380618D01*
X381252Y380742D01*
X381246Y380749D01*
X381252Y380768D01*
X381246Y380801D01*
X381232Y380840D01*
X381206Y380958D01*
X381174Y381095D01*
X381115Y381246D01*
X381049Y381403D01*
X380951Y381553D01*
X380847Y381684D01*
X380840Y381690D01*
X380834Y381697D01*
X380788Y381729D01*
X380716Y381788D01*
X380625Y381841D01*
X380507Y381906D01*
X380369Y381952D01*
X380219Y381984D01*
X380049Y381997D01*
X380023D01*
X379964Y381991D01*
X379886Y381978D01*
X379768Y381952D01*
X379637Y381899D01*
X379493Y381834D01*
X379343Y381736D01*
X379199Y381605D01*
X379160Y381566D01*
X379141Y381533D01*
X379068Y381448D01*
X378997Y381337D01*
X378925Y381213D01*
X378859Y381056D01*
X378814Y380893D01*
X378794Y380716D01*
Y380690D01*
X378801Y380631D01*
X378814Y380540D01*
X378853Y380422D01*
X378899Y380285D01*
X378977Y380128D01*
X379082Y379971D01*
X379219Y379807D01*
X378591Y379297D01*
X378585Y379304D01*
X378572Y379330D01*
X378539Y379363D01*
X378500Y379415D01*
X378461Y379481D01*
X378415Y379552D01*
X378363Y379644D01*
X378310Y379735D01*
X378206Y379945D01*
X378127Y380180D01*
X378094Y380304D01*
X378075Y380442D01*
X378062Y380572D01*
Y380703D01*
Y380716D01*
X378068Y380736D01*
Y380775D01*
X378081Y380827D01*
X378094Y380893D01*
X378114Y380965D01*
X378134Y381049D01*
X378166Y381148D01*
X378206Y381252D01*
X378251Y381363D01*
X378310Y381474D01*
X378376Y381592D01*
X378454Y381710D01*
X378539Y381834D01*
X378644Y381952D01*
X378755Y382076D01*
X378820Y382141D01*
X378872Y382180D01*
X378931Y382226D01*
X379003Y382285D01*
X379088Y382344D01*
X379173Y382403D01*
X379389Y382527D01*
X379624Y382632D01*
X379748Y382677D01*
X379879Y382717D01*
X380017Y382736D01*
X380154Y382743D01*
X380167D01*
X380187Y382749D01*
X380226Y382736D01*
D02*
G37*
G36*
X376905Y378787D02*
X377199Y378742D01*
X377493Y378657D01*
X377500Y378650D01*
X377532Y378644D01*
X377571Y378631D01*
X377624Y378604D01*
X377702Y378578D01*
X377781Y378539D01*
X377879Y378493D01*
X377983Y378441D01*
X378088Y378376D01*
X378206Y378310D01*
X378330Y378238D01*
X378454Y378153D01*
X378709Y377951D01*
X378964Y377722D01*
X378970Y377715D01*
X378990Y377696D01*
X379016Y377670D01*
X379055Y377630D01*
X379101Y377571D01*
X379160Y377513D01*
X379219Y377441D01*
X379278Y377369D01*
X379415Y377192D01*
X379552Y376990D01*
X379690Y376774D01*
X379801Y376545D01*
X379807Y376539D01*
X379814Y376519D01*
X379827Y376480D01*
X379840Y376441D01*
X379860Y376382D01*
X379886Y376316D01*
X379938Y376159D01*
X379990Y375963D01*
X380030Y375741D01*
X380056Y375506D01*
X380069Y375257D01*
X380075Y375264D01*
X380102D01*
X380134Y375270D01*
X380187Y375283D01*
X380245Y375290D01*
X380317Y375309D01*
X380474Y375349D01*
X380664Y375395D01*
X380866Y375453D01*
X381063Y375532D01*
X381252Y375604D01*
X381488Y375015D01*
X381481Y375009D01*
X381461Y375002D01*
X381422Y374989D01*
X381370Y374963D01*
X381304Y374937D01*
X381226Y374911D01*
X381141Y374878D01*
X381043Y374845D01*
X380821Y374780D01*
X380566Y374708D01*
X380271Y374649D01*
X379958Y374597D01*
X379951Y374590D01*
Y374564D01*
X379931Y374518D01*
X379918Y374466D01*
X379886Y374394D01*
X379860Y374316D01*
X379814Y374231D01*
X379768Y374133D01*
X379716Y374028D01*
X379657Y373917D01*
X379513Y373682D01*
X379337Y373440D01*
X379232Y373322D01*
X379127Y373204D01*
X379068Y373145D01*
X379016Y373106D01*
X378964Y373054D01*
X378892Y372995D01*
X378807Y372936D01*
X378716Y372871D01*
X378513Y372734D01*
X378271Y372596D01*
X378003Y372472D01*
X377866Y372426D01*
X377715Y372381D01*
X377702D01*
X377683Y372374D01*
X377637Y372368D01*
X377584Y372355D01*
X377506Y372341D01*
X377421Y372335D01*
X377218Y372315D01*
X376977Y372309D01*
X376708Y372328D01*
X376421Y372368D01*
X376120Y372446D01*
X376114Y372453D01*
X376081Y372459D01*
X376042Y372472D01*
X375989Y372498D01*
X375917Y372531D01*
X375832Y372564D01*
X375734Y372609D01*
X375636Y372668D01*
X375525Y372727D01*
X375407Y372793D01*
X375290Y372871D01*
X375153Y372956D01*
X374897Y373159D01*
X374643Y373387D01*
X374636Y373394D01*
X374610Y373420D01*
X374577Y373453D01*
X374538Y373505D01*
X374479Y373564D01*
X374414Y373642D01*
X374342Y373727D01*
X374270Y373825D01*
X374113Y374048D01*
X373956Y374296D01*
X373806Y374577D01*
X373688Y374878D01*
Y374891D01*
X373675Y374917D01*
X373662Y374957D01*
X373649Y375022D01*
X373629Y375094D01*
X373610Y375179D01*
X373577Y375395D01*
X373551Y375630D01*
Y375904D01*
X373564Y376192D01*
X373623Y376486D01*
Y376499D01*
X373636Y376525D01*
X373649Y376565D01*
X373669Y376624D01*
X373695Y376689D01*
X373721Y376767D01*
X373760Y376859D01*
X373806Y376957D01*
X373865Y377068D01*
X373923Y377179D01*
X374067Y377415D01*
X374244Y377657D01*
X374342Y377781D01*
X374518Y377957D01*
X374571Y377996D01*
X374630Y378055D01*
X374695Y378108D01*
X374786Y378173D01*
X374878Y378238D01*
X375081Y378376D01*
X375329Y378520D01*
X375597Y378631D01*
X375741Y378683D01*
X375891Y378729D01*
X375904D01*
X375924Y378735D01*
X375970Y378742D01*
X376029Y378761D01*
X376101Y378768D01*
X376192Y378781D01*
X376395Y378801D01*
X376630D01*
X376905Y378787D01*
D02*
G37*
G36*
X469336Y127081D02*
X469326Y126914D01*
X469317Y126729D01*
X469299Y126544D01*
X469271Y126360D01*
X469243Y126202D01*
Y126193D01*
X469234Y126175D01*
Y126147D01*
X469215Y126110D01*
X469188Y126008D01*
X469141Y125879D01*
X469077Y125731D01*
X468993Y125574D01*
X468901Y125416D01*
X468781Y125268D01*
X468772Y125259D01*
X468762Y125250D01*
X468735Y125222D01*
X468707Y125185D01*
X468614Y125093D01*
X468485Y124982D01*
X468328Y124862D01*
X468143Y124732D01*
X467930Y124612D01*
X467690Y124510D01*
X467681D01*
X467662Y124501D01*
X467625Y124483D01*
X467570Y124473D01*
X467505Y124446D01*
X467431Y124427D01*
X467348Y124409D01*
X467246Y124381D01*
X467144Y124353D01*
X467024Y124335D01*
X466765Y124289D01*
X466479Y124261D01*
X466164Y124251D01*
X466155D01*
X466137D01*
X466090D01*
X466044D01*
X465979Y124261D01*
X465905D01*
X465730Y124270D01*
X465526Y124298D01*
X465314Y124326D01*
X465092Y124372D01*
X464870Y124427D01*
X464861D01*
X464842Y124436D01*
X464814Y124446D01*
X464777Y124455D01*
X464676Y124492D01*
X464546Y124547D01*
X464398Y124603D01*
X464250Y124677D01*
X464093Y124769D01*
X463945Y124862D01*
X463927Y124871D01*
X463881Y124908D01*
X463816Y124963D01*
X463733Y125037D01*
X463640Y125121D01*
X463548Y125222D01*
X463446Y125324D01*
X463363Y125444D01*
X463354Y125463D01*
X463326Y125500D01*
X463289Y125564D01*
X463243Y125657D01*
X463187Y125768D01*
X463141Y125897D01*
X463086Y126045D01*
X463039Y126212D01*
Y126230D01*
X463030Y126258D01*
X463021Y126285D01*
X463012Y126378D01*
X462993Y126507D01*
X462975Y126655D01*
X462956Y126831D01*
X462947Y127025D01*
X462938Y127238D01*
Y129540D01*
X469336D01*
Y127081D01*
D02*
G37*
G36*
X467755Y122800D02*
X467773Y122781D01*
X467782Y122745D01*
X467810Y122698D01*
X467838Y122643D01*
X467875Y122578D01*
X467967Y122421D01*
X468069Y122236D01*
X468198Y122051D01*
X468346Y121857D01*
X468503Y121663D01*
X468513Y121653D01*
X468522Y121644D01*
X468550Y121616D01*
X468577Y121580D01*
X468670Y121496D01*
X468781Y121385D01*
X468910Y121274D01*
X469058Y121154D01*
X469206Y121053D01*
X469363Y120960D01*
Y120452D01*
X462938D01*
Y121237D01*
X467939D01*
X467930Y121247D01*
X467893Y121293D01*
X467838Y121348D01*
X467773Y121441D01*
X467690Y121543D01*
X467597Y121672D01*
X467496Y121820D01*
X467394Y121986D01*
Y121996D01*
X467385Y122005D01*
X467348Y122060D01*
X467301Y122153D01*
X467246Y122264D01*
X467181Y122393D01*
X467117Y122532D01*
X467052Y122670D01*
X466996Y122809D01*
X467755D01*
Y122800D01*
D02*
G37*
G36*
X244534Y268171D02*
X244617D01*
X244719Y268162D01*
X244830Y268152D01*
X244950Y268134D01*
X245218Y268088D01*
X245504Y268023D01*
X245810Y267930D01*
X246105Y267801D01*
X246115Y267792D01*
X246143Y267782D01*
X246179Y267764D01*
X246235Y267727D01*
X246300Y267690D01*
X246374Y267644D01*
X246549Y267514D01*
X246734Y267366D01*
X246928Y267172D01*
X247122Y266960D01*
X247289Y266710D01*
X247298Y266701D01*
X247307Y266673D01*
X247326Y266636D01*
X247354Y266581D01*
X247381Y266516D01*
X247418Y266442D01*
X247455Y266349D01*
X247492Y266248D01*
X247529Y266127D01*
X247566Y266007D01*
X247631Y265739D01*
X247677Y265443D01*
X247696Y265286D01*
Y265037D01*
X247687Y264972D01*
Y264889D01*
X247677Y264805D01*
X247659Y264694D01*
X247640Y264583D01*
X247594Y264343D01*
X247520Y264066D01*
X247409Y263798D01*
X247344Y263659D01*
X247270Y263520D01*
X247261Y263511D01*
X247252Y263493D01*
X247224Y263456D01*
X247197Y263400D01*
X247150Y263345D01*
X247095Y263271D01*
X246965Y263113D01*
X246799Y262947D01*
X246595Y262762D01*
X246355Y262586D01*
X246087Y262439D01*
X246078D01*
X246050Y262420D01*
X246013Y262402D01*
X245958Y262383D01*
X245884Y262346D01*
X245800Y262318D01*
X245699Y262281D01*
X245588Y262244D01*
X245467Y262217D01*
X245338Y262180D01*
X245199Y262143D01*
X245051Y262115D01*
X244728Y262078D01*
X244386Y262059D01*
X244377D01*
X244349D01*
X244312D01*
X244256D01*
X244182Y262069D01*
X244099D01*
X244007Y262078D01*
X243914Y262087D01*
X243692Y262115D01*
X243452Y262161D01*
X243202Y262217D01*
X242962Y262300D01*
X242953D01*
X242934Y262309D01*
X242897Y262327D01*
X242860Y262346D01*
X242805Y262374D01*
X242740Y262402D01*
X242592Y262475D01*
X242416Y262577D01*
X242232Y262707D01*
X242047Y262854D01*
X241862Y263021D01*
Y263012D01*
X241843Y262993D01*
X241825Y262966D01*
X241797Y262919D01*
X241760Y262873D01*
X241723Y262808D01*
X241640Y262670D01*
X241538Y262503D01*
X241436Y262318D01*
X241353Y262124D01*
X241270Y261939D01*
X240688Y262189D01*
Y262198D01*
X240697Y262217D01*
X240715Y262254D01*
X240734Y262309D01*
X240762Y262374D01*
X240798Y262448D01*
X240835Y262531D01*
X240882Y262623D01*
X240993Y262827D01*
X241122Y263058D01*
X241289Y263308D01*
X241473Y263566D01*
Y263576D01*
X241455Y263594D01*
X241436Y263640D01*
X241409Y263687D01*
X241381Y263761D01*
X241344Y263835D01*
X241316Y263927D01*
X241279Y264029D01*
X241242Y264140D01*
X241205Y264260D01*
X241141Y264528D01*
X241094Y264824D01*
X241085Y264981D01*
X241076Y265138D01*
Y265221D01*
X241085Y265286D01*
Y265360D01*
X241094Y265453D01*
X241113Y265554D01*
X241131Y265665D01*
X241178Y265906D01*
X241252Y266174D01*
X241353Y266451D01*
X241418Y266581D01*
X241492Y266719D01*
X241501Y266728D01*
X241510Y266747D01*
X241538Y266784D01*
X241566Y266830D01*
X241612Y266895D01*
X241668Y266960D01*
X241797Y267117D01*
X241963Y267292D01*
X242167Y267468D01*
X242398Y267644D01*
X242666Y267801D01*
X242675D01*
X242703Y267819D01*
X242740Y267838D01*
X242796Y267856D01*
X242869Y267884D01*
X242953Y267921D01*
X243054Y267958D01*
X243165Y267986D01*
X243286Y268023D01*
X243415Y268060D01*
X243554Y268088D01*
X243711Y268125D01*
X244035Y268162D01*
X244377Y268180D01*
X244386D01*
X244423D01*
X244469D01*
X244534Y268171D01*
D02*
G37*
G36*
X244349Y261273D02*
X244478D01*
X244626Y261264D01*
X244802Y261246D01*
X244996Y261227D01*
X245209Y261200D01*
X245421Y261163D01*
X245652Y261116D01*
X245874Y261061D01*
X246096Y260996D01*
X246309Y260913D01*
X246512Y260821D01*
X246706Y260719D01*
X246873Y260599D01*
X246882Y260589D01*
X246901Y260571D01*
X246938Y260534D01*
X246993Y260488D01*
X247048Y260432D01*
X247104Y260358D01*
X247178Y260266D01*
X247243Y260173D01*
X247307Y260062D01*
X247381Y259942D01*
X247437Y259804D01*
X247502Y259665D01*
X247548Y259508D01*
X247585Y259341D01*
X247603Y259165D01*
X247612Y258981D01*
Y258907D01*
X247603Y258851D01*
Y258787D01*
X247594Y258713D01*
X247557Y258537D01*
X247511Y258343D01*
X247437Y258139D01*
X247326Y257936D01*
X247261Y257834D01*
X247187Y257742D01*
X247178Y257733D01*
X247169Y257723D01*
X247141Y257696D01*
X247113Y257668D01*
X247067Y257621D01*
X247012Y257584D01*
X246882Y257483D01*
X246716Y257381D01*
X246512Y257289D01*
X246281Y257206D01*
X246022Y257150D01*
X245958Y257936D01*
X245967D01*
X245976Y257945D01*
X246031Y257954D01*
X246115Y257982D01*
X246216Y258019D01*
X246327Y258056D01*
X246438Y258111D01*
X246540Y258176D01*
X246623Y258241D01*
X246642Y258260D01*
X246679Y258297D01*
X246734Y258361D01*
X246799Y258454D01*
X246854Y258574D01*
X246910Y258703D01*
X246947Y258860D01*
X246965Y259027D01*
Y259092D01*
X246956Y259165D01*
X246938Y259249D01*
X246910Y259360D01*
X246873Y259471D01*
X246827Y259582D01*
X246753Y259692D01*
X246743Y259711D01*
X246706Y259757D01*
X246642Y259822D01*
X246549Y259905D01*
X246438Y259998D01*
X246309Y260099D01*
X246143Y260192D01*
X245958Y260284D01*
X245948D01*
X245930Y260294D01*
X245902Y260303D01*
X245865Y260321D01*
X245810Y260331D01*
X245745Y260349D01*
X245671Y260368D01*
X245578Y260386D01*
X245477Y260414D01*
X245366Y260432D01*
X245246Y260451D01*
X245116Y260460D01*
X244968Y260478D01*
X244820Y260488D01*
X244654Y260497D01*
X244487D01*
X244497Y260488D01*
X244552Y260451D01*
X244626Y260386D01*
X244719Y260303D01*
X244830Y260210D01*
X244931Y260090D01*
X245033Y259961D01*
X245125Y259813D01*
Y259804D01*
X245135Y259794D01*
X245162Y259739D01*
X245190Y259656D01*
X245236Y259545D01*
X245273Y259415D01*
X245301Y259267D01*
X245329Y259110D01*
X245338Y258944D01*
Y258870D01*
X245329Y258814D01*
X245320Y258740D01*
X245310Y258666D01*
X245292Y258574D01*
X245264Y258481D01*
X245199Y258269D01*
X245153Y258158D01*
X245089Y258047D01*
X245024Y257936D01*
X244950Y257816D01*
X244857Y257705D01*
X244756Y257603D01*
X244746Y257594D01*
X244728Y257575D01*
X244700Y257548D01*
X244654Y257520D01*
X244589Y257474D01*
X244524Y257427D01*
X244441Y257381D01*
X244349Y257326D01*
X244247Y257270D01*
X244136Y257224D01*
X244007Y257178D01*
X243877Y257132D01*
X243739Y257104D01*
X243581Y257076D01*
X243424Y257058D01*
X243258Y257048D01*
X243249D01*
X243230D01*
X243202D01*
X243156D01*
X243101Y257058D01*
X243045D01*
X242897Y257085D01*
X242722Y257113D01*
X242537Y257159D01*
X242333Y257224D01*
X242139Y257316D01*
X242130D01*
X242121Y257326D01*
X242093Y257344D01*
X242056Y257363D01*
X241963Y257418D01*
X241843Y257501D01*
X241714Y257603D01*
X241584Y257723D01*
X241455Y257871D01*
X241344Y258028D01*
Y258038D01*
X241335Y258047D01*
X241316Y258075D01*
X241307Y258111D01*
X241261Y258204D01*
X241215Y258324D01*
X241159Y258481D01*
X241122Y258657D01*
X241085Y258851D01*
X241076Y259064D01*
Y259110D01*
X241085Y259156D01*
Y259230D01*
X241094Y259314D01*
X241113Y259406D01*
X241141Y259517D01*
X241168Y259628D01*
X241205Y259757D01*
X241252Y259887D01*
X241307Y260016D01*
X241381Y260155D01*
X241464Y260284D01*
X241557Y260414D01*
X241668Y260543D01*
X241797Y260663D01*
X241806Y260673D01*
X241834Y260691D01*
X241871Y260719D01*
X241936Y260756D01*
X242019Y260811D01*
X242111Y260858D01*
X242232Y260913D01*
X242361Y260968D01*
X242518Y261033D01*
X242694Y261089D01*
X242888Y261135D01*
X243101Y261181D01*
X243341Y261227D01*
X243600Y261255D01*
X243877Y261273D01*
X244173Y261283D01*
X244182D01*
X244192D01*
X244219D01*
X244256D01*
X244349Y261273D01*
D02*
G37*
G36*
X470406Y221055D02*
X471941D01*
Y220269D01*
X470406D01*
Y217486D01*
X469685D01*
X465543Y220417D01*
Y221055D01*
X469685D01*
Y221924D01*
X470406D01*
Y221055D01*
D02*
G37*
G36*
X472440Y216811D02*
Y216802D01*
X472431Y216783D01*
X472412Y216746D01*
X472394Y216691D01*
X472366Y216626D01*
X472329Y216552D01*
X472292Y216469D01*
X472246Y216376D01*
X472135Y216173D01*
X472006Y215942D01*
X471839Y215692D01*
X471654Y215433D01*
Y215424D01*
X471673Y215406D01*
X471691Y215359D01*
X471719Y215313D01*
X471747Y215239D01*
X471784Y215165D01*
X471811Y215073D01*
X471848Y214971D01*
X471885Y214860D01*
X471922Y214740D01*
X471987Y214472D01*
X472033Y214176D01*
X472043Y214019D01*
X472052Y213862D01*
Y213778D01*
X472043Y213714D01*
Y213640D01*
X472033Y213547D01*
X472015Y213446D01*
X471996Y213335D01*
X471950Y213094D01*
X471876Y212826D01*
X471774Y212549D01*
X471710Y212419D01*
X471636Y212281D01*
X471627Y212271D01*
X471617Y212253D01*
X471590Y212216D01*
X471562Y212170D01*
X471516Y212105D01*
X471460Y212040D01*
X471331Y211883D01*
X471164Y211707D01*
X470961Y211532D01*
X470730Y211356D01*
X470462Y211199D01*
X470452D01*
X470424Y211180D01*
X470388Y211162D01*
X470332Y211143D01*
X470258Y211116D01*
X470175Y211079D01*
X470073Y211042D01*
X469962Y211014D01*
X469842Y210977D01*
X469713Y210940D01*
X469574Y210912D01*
X469417Y210875D01*
X469093Y210838D01*
X468751Y210820D01*
X468742D01*
X468705D01*
X468659D01*
X468594Y210829D01*
X468511D01*
X468409Y210838D01*
X468298Y210848D01*
X468178Y210866D01*
X467910Y210912D01*
X467623Y210977D01*
X467318Y211070D01*
X467022Y211199D01*
X467013Y211208D01*
X466985Y211217D01*
X466948Y211236D01*
X466893Y211273D01*
X466828Y211310D01*
X466754Y211356D01*
X466578Y211486D01*
X466394Y211633D01*
X466199Y211828D01*
X466005Y212040D01*
X465839Y212290D01*
X465830Y212299D01*
X465820Y212327D01*
X465802Y212364D01*
X465774Y212419D01*
X465746Y212484D01*
X465709Y212558D01*
X465672Y212651D01*
X465635Y212752D01*
X465598Y212872D01*
X465561Y212993D01*
X465497Y213261D01*
X465450Y213557D01*
X465432Y213714D01*
Y213963D01*
X465441Y214028D01*
Y214111D01*
X465450Y214195D01*
X465469Y214305D01*
X465487Y214416D01*
X465534Y214657D01*
X465608Y214934D01*
X465718Y215202D01*
X465783Y215341D01*
X465857Y215480D01*
X465867Y215489D01*
X465876Y215507D01*
X465903Y215544D01*
X465931Y215600D01*
X465977Y215655D01*
X466033Y215729D01*
X466162Y215886D01*
X466329Y216053D01*
X466532Y216238D01*
X466772Y216413D01*
X467041Y216561D01*
X467050D01*
X467078Y216580D01*
X467115Y216598D01*
X467170Y216617D01*
X467244Y216654D01*
X467327Y216682D01*
X467429Y216719D01*
X467540Y216756D01*
X467660Y216783D01*
X467789Y216820D01*
X467928Y216857D01*
X468076Y216885D01*
X468400Y216922D01*
X468742Y216940D01*
X468751D01*
X468779D01*
X468816D01*
X468871D01*
X468945Y216931D01*
X469028D01*
X469121Y216922D01*
X469213Y216913D01*
X469435Y216885D01*
X469676Y216839D01*
X469925Y216783D01*
X470166Y216700D01*
X470175D01*
X470193Y216691D01*
X470230Y216672D01*
X470267Y216654D01*
X470323Y216626D01*
X470388Y216598D01*
X470536Y216524D01*
X470711Y216423D01*
X470896Y216293D01*
X471081Y216145D01*
X471266Y215979D01*
Y215988D01*
X471284Y216007D01*
X471303Y216034D01*
X471331Y216081D01*
X471368Y216127D01*
X471405Y216192D01*
X471488Y216330D01*
X471590Y216497D01*
X471691Y216682D01*
X471774Y216876D01*
X471858Y217061D01*
X472440Y216811D01*
D02*
G37*
%LPC*%
G36*
X414540Y140898D02*
X414448D01*
X414383Y140888D01*
X414300Y140879D01*
X414207Y140861D01*
X414106Y140842D01*
X413995Y140814D01*
X413865Y140777D01*
X413745Y140740D01*
X413616Y140685D01*
X413477Y140620D01*
X413348Y140546D01*
X413218Y140454D01*
X413089Y140361D01*
X412968Y140241D01*
X412959Y140232D01*
X412941Y140213D01*
X412913Y140176D01*
X412876Y140121D01*
X412821Y140056D01*
X412774Y139973D01*
X412719Y139871D01*
X412663Y139760D01*
X412599Y139631D01*
X412543Y139483D01*
X412497Y139326D01*
X412451Y139150D01*
X412404Y138965D01*
X412377Y138762D01*
X412358Y138540D01*
X412349Y138309D01*
Y138290D01*
Y138253D01*
Y138189D01*
X412358Y138105D01*
X412368Y138004D01*
X412386Y137884D01*
X412404Y137745D01*
X412423Y137606D01*
X412497Y137292D01*
X412543Y137135D01*
X412608Y136978D01*
X412673Y136820D01*
X412756Y136672D01*
X412848Y136524D01*
X412959Y136395D01*
X412968Y136386D01*
X412987Y136367D01*
X413024Y136330D01*
X413070Y136293D01*
X413135Y136238D01*
X413209Y136182D01*
X413292Y136127D01*
X413394Y136062D01*
X413495Y135997D01*
X413616Y135942D01*
X413745Y135886D01*
X413884Y135831D01*
X414041Y135794D01*
X414198Y135757D01*
X414365Y135739D01*
X414540Y135729D01*
X414623D01*
X414707Y135739D01*
X414818Y135748D01*
X414956Y135766D01*
X415095Y135803D01*
X415252Y135840D01*
X415400Y135896D01*
X415382Y135905D01*
X415335Y135942D01*
X415252Y135988D01*
X415150Y136044D01*
X415021Y136099D01*
X414882Y136164D01*
X414725Y136219D01*
X414559Y136266D01*
X414771Y136876D01*
X414781D01*
X414808Y136867D01*
X414845Y136857D01*
X414892Y136839D01*
X414956Y136820D01*
X415030Y136793D01*
X415197Y136728D01*
X415391Y136635D01*
X415594Y136534D01*
X415788Y136413D01*
X415983Y136266D01*
X415992Y136275D01*
X416020Y136293D01*
X416056Y136340D01*
X416103Y136395D01*
X416158Y136469D01*
X416223Y136552D01*
X416288Y136654D01*
X416362Y136774D01*
X416426Y136913D01*
X416491Y137070D01*
X416556Y137236D01*
X416611Y137412D01*
X416667Y137615D01*
X416704Y137828D01*
X416722Y138059D01*
X416731Y138309D01*
Y138318D01*
Y138346D01*
Y138383D01*
Y138438D01*
X416722Y138512D01*
Y138586D01*
X416713Y138679D01*
X416694Y138771D01*
X416667Y138984D01*
X416620Y139215D01*
X416556Y139446D01*
X416463Y139668D01*
Y139677D01*
X416454Y139696D01*
X416436Y139723D01*
X416417Y139760D01*
X416352Y139871D01*
X416269Y140001D01*
X416158Y140149D01*
X416020Y140297D01*
X415862Y140445D01*
X415687Y140574D01*
X415677D01*
X415668Y140592D01*
X415640Y140602D01*
X415594Y140630D01*
X415548Y140648D01*
X415493Y140676D01*
X415354Y140740D01*
X415187Y140796D01*
X414993Y140851D01*
X414771Y140888D01*
X414540Y140898D01*
D02*
G37*
G36*
X241836Y188571D02*
X241818D01*
X241781D01*
X241716D01*
X241633Y188562D01*
X241531Y188552D01*
X241411Y188534D01*
X241273Y188515D01*
X241134Y188497D01*
X240819Y188423D01*
X240662Y188377D01*
X240505Y188312D01*
X240348Y188247D01*
X240200Y188164D01*
X240052Y188072D01*
X239923Y187961D01*
X239914Y187952D01*
X239895Y187933D01*
X239858Y187896D01*
X239821Y187850D01*
X239765Y187785D01*
X239710Y187711D01*
X239655Y187628D01*
X239590Y187526D01*
X239525Y187425D01*
X239470Y187304D01*
X239414Y187175D01*
X239359Y187036D01*
X239322Y186879D01*
X239285Y186722D01*
X239266Y186555D01*
X239257Y186380D01*
Y186297D01*
X239266Y186213D01*
X239275Y186102D01*
X239294Y185964D01*
X239331Y185825D01*
X239368Y185668D01*
X239423Y185520D01*
X239433Y185538D01*
X239470Y185585D01*
X239516Y185668D01*
X239571Y185770D01*
X239627Y185899D01*
X239692Y186038D01*
X239747Y186195D01*
X239793Y186361D01*
X240403Y186149D01*
Y186139D01*
X240394Y186112D01*
X240385Y186075D01*
X240366Y186028D01*
X240348Y185964D01*
X240320Y185890D01*
X240256Y185723D01*
X240163Y185529D01*
X240061Y185326D01*
X239941Y185132D01*
X239793Y184937D01*
X239802Y184928D01*
X239821Y184900D01*
X239867Y184863D01*
X239923Y184817D01*
X239997Y184762D01*
X240080Y184697D01*
X240182Y184632D01*
X240302Y184558D01*
X240441Y184494D01*
X240598Y184429D01*
X240764Y184364D01*
X240940Y184309D01*
X241143Y184253D01*
X241356Y184216D01*
X241587Y184198D01*
X241836Y184188D01*
X241846D01*
X241873D01*
X241910D01*
X241966D01*
X242040Y184198D01*
X242114D01*
X242206Y184207D01*
X242299Y184226D01*
X242512Y184253D01*
X242743Y184300D01*
X242974Y184364D01*
X243196Y184457D01*
X243205D01*
X243223Y184466D01*
X243251Y184484D01*
X243288Y184503D01*
X243399Y184568D01*
X243528Y184651D01*
X243676Y184762D01*
X243824Y184900D01*
X243972Y185058D01*
X244102Y185233D01*
Y185243D01*
X244120Y185252D01*
X244130Y185280D01*
X244157Y185326D01*
X244176Y185372D01*
X244203Y185427D01*
X244268Y185566D01*
X244324Y185732D01*
X244379Y185927D01*
X244416Y186149D01*
X244425Y186380D01*
Y186472D01*
X244416Y186537D01*
X244407Y186620D01*
X244388Y186713D01*
X244370Y186814D01*
X244342Y186925D01*
X244305Y187055D01*
X244268Y187175D01*
X244213Y187304D01*
X244148Y187443D01*
X244074Y187572D01*
X243981Y187702D01*
X243889Y187831D01*
X243769Y187952D01*
X243760Y187961D01*
X243741Y187979D01*
X243704Y188007D01*
X243649Y188044D01*
X243584Y188099D01*
X243501Y188146D01*
X243399Y188201D01*
X243288Y188257D01*
X243159Y188321D01*
X243011Y188377D01*
X242854Y188423D01*
X242678Y188469D01*
X242493Y188515D01*
X242290Y188543D01*
X242068Y188562D01*
X241836Y188571D01*
D02*
G37*
G36*
X376447Y378003D02*
X376231Y377996D01*
X376016Y377964D01*
X376009Y377957D01*
X375989Y377964D01*
X375963Y377951D01*
X375911Y377938D01*
X375865Y377918D01*
X375806Y377898D01*
X375662Y377846D01*
X375505Y377768D01*
X375329Y377670D01*
X375146Y377539D01*
X374976Y377382D01*
X374911Y377317D01*
X374871Y377264D01*
X374819Y377199D01*
X374767Y377120D01*
X374708Y377035D01*
X374649Y376937D01*
X374584Y376820D01*
X374525Y376708D01*
X374473Y376578D01*
X374420Y376434D01*
X374381Y376290D01*
X374355Y376133D01*
X374329Y375976D01*
Y375806D01*
Y375793D01*
Y375767D01*
X374335Y375721D01*
X374348Y375656D01*
X374355Y375571D01*
X374381Y375480D01*
X374414Y375368D01*
X374453Y375251D01*
X374499Y375113D01*
X374564Y374969D01*
X374643Y374826D01*
X374734Y374669D01*
X374832Y374505D01*
X374956Y374342D01*
X375100Y374172D01*
X375257Y374002D01*
X375270Y373989D01*
X375296Y373963D01*
X375342Y373917D01*
X375407Y373865D01*
X375486Y373799D01*
X375584Y373727D01*
X375695Y373642D01*
X375806Y373557D01*
X376081Y373387D01*
X376225Y373309D01*
X376382Y373244D01*
X376539Y373178D01*
X376702Y373133D01*
X376872Y373093D01*
X377042Y373080D01*
X377133D01*
X377192Y373087D01*
X377277Y373093D01*
X377369Y373106D01*
X377467Y373126D01*
X377584Y373152D01*
X377702Y373178D01*
X377826Y373224D01*
X377957Y373276D01*
X378094Y373335D01*
X378232Y373420D01*
X378369Y373505D01*
X378500Y373610D01*
X378630Y373727D01*
X378689Y373786D01*
X378742Y373852D01*
X378814Y373937D01*
X378899Y374048D01*
X378970Y374172D01*
X379055Y374309D01*
X379121Y374453D01*
X379101Y374446D01*
X379042Y374440D01*
X378951Y374414D01*
X378840Y374381D01*
X378709Y374329D01*
X378565Y374277D01*
X378415Y374205D01*
X378264Y374120D01*
X377983Y374701D01*
X377990Y374708D01*
X378016Y374721D01*
X378049Y374741D01*
X378094Y374760D01*
X378153Y374793D01*
X378225Y374826D01*
X378389Y374898D01*
X378591Y374969D01*
X378807Y375041D01*
X379029Y375094D01*
X379271Y375126D01*
Y375140D01*
X379278Y375172D01*
X379271Y375231D01*
X379265Y375303D01*
X379252Y375395D01*
X379239Y375499D01*
X379212Y375617D01*
X379180Y375754D01*
X379127Y375898D01*
X379062Y376055D01*
X378990Y376218D01*
X378905Y376382D01*
X378801Y376565D01*
X378676Y376741D01*
X378526Y376918D01*
X378356Y377101D01*
X378349Y377107D01*
X378330Y377127D01*
X378304Y377153D01*
X378264Y377192D01*
X378206Y377238D01*
X378153Y377290D01*
X378081Y377349D01*
X378003Y377402D01*
X377833Y377532D01*
X377637Y377663D01*
X377428Y377781D01*
X377205Y377872D01*
X377199Y377879D01*
X377179Y377885D01*
X377146Y377892D01*
X377107Y377905D01*
X376983Y377938D01*
X376833Y377970D01*
X376650Y377996D01*
X376447Y378003D01*
D02*
G37*
G36*
X468577Y128689D02*
X463696D01*
Y127173D01*
X463705Y127108D01*
X463714Y126970D01*
X463723Y126812D01*
X463742Y126646D01*
X463770Y126480D01*
X463807Y126341D01*
X463816Y126322D01*
X463825Y126276D01*
X463853Y126212D01*
X463890Y126128D01*
X463945Y126036D01*
X464001Y125943D01*
X464066Y125851D01*
X464140Y125758D01*
X464158Y125749D01*
X464195Y125712D01*
X464260Y125657D01*
X464352Y125592D01*
X464472Y125518D01*
X464611Y125435D01*
X464768Y125361D01*
X464944Y125296D01*
X464953D01*
X464972Y125287D01*
X464999Y125278D01*
X465036Y125268D01*
X465083Y125259D01*
X465147Y125241D01*
X465212Y125222D01*
X465286Y125204D01*
X465471Y125176D01*
X465684Y125148D01*
X465924Y125130D01*
X466183Y125121D01*
X466192D01*
X466229D01*
X466275D01*
X466349Y125130D01*
X466432D01*
X466525Y125139D01*
X466636Y125148D01*
X466747Y125158D01*
X466996Y125204D01*
X467255Y125259D01*
X467496Y125343D01*
X467616Y125398D01*
X467718Y125453D01*
X467727D01*
X467745Y125472D01*
X467773Y125490D01*
X467810Y125509D01*
X467902Y125583D01*
X468013Y125675D01*
X468134Y125795D01*
X468254Y125934D01*
X468355Y126091D01*
X468439Y126258D01*
X468448Y126276D01*
X468457Y126322D01*
X468485Y126406D01*
X468513Y126526D01*
X468531Y126674D01*
X468559Y126859D01*
X468568Y126970D01*
Y127090D01*
X468577Y127210D01*
Y128689D01*
D02*
G37*
G36*
X244377Y267311D02*
X244358D01*
X244321D01*
X244256D01*
X244173Y267302D01*
X244071Y267292D01*
X243951Y267274D01*
X243813Y267255D01*
X243674Y267237D01*
X243360Y267163D01*
X243202Y267117D01*
X243045Y267052D01*
X242888Y266987D01*
X242740Y266904D01*
X242592Y266812D01*
X242463Y266701D01*
X242453Y266691D01*
X242435Y266673D01*
X242398Y266636D01*
X242361Y266590D01*
X242306Y266525D01*
X242250Y266451D01*
X242195Y266368D01*
X242130Y266266D01*
X242065Y266164D01*
X242010Y266044D01*
X241954Y265915D01*
X241899Y265776D01*
X241862Y265619D01*
X241825Y265462D01*
X241806Y265295D01*
X241797Y265120D01*
Y265037D01*
X241806Y264953D01*
X241815Y264842D01*
X241834Y264704D01*
X241871Y264565D01*
X241908Y264408D01*
X241963Y264260D01*
X241973Y264278D01*
X242010Y264325D01*
X242056Y264408D01*
X242111Y264510D01*
X242167Y264639D01*
X242232Y264778D01*
X242287Y264935D01*
X242333Y265101D01*
X242943Y264889D01*
Y264879D01*
X242934Y264852D01*
X242925Y264815D01*
X242906Y264768D01*
X242888Y264704D01*
X242860Y264630D01*
X242796Y264463D01*
X242703Y264269D01*
X242601Y264066D01*
X242481Y263872D01*
X242333Y263677D01*
X242342Y263668D01*
X242361Y263640D01*
X242407Y263603D01*
X242463Y263557D01*
X242537Y263502D01*
X242620Y263437D01*
X242722Y263372D01*
X242842Y263298D01*
X242980Y263234D01*
X243138Y263169D01*
X243304Y263104D01*
X243480Y263049D01*
X243683Y262993D01*
X243896Y262956D01*
X244127Y262938D01*
X244377Y262929D01*
X244386D01*
X244414D01*
X244450D01*
X244506D01*
X244580Y262938D01*
X244654D01*
X244746Y262947D01*
X244839Y262966D01*
X245051Y262993D01*
X245283Y263039D01*
X245514Y263104D01*
X245736Y263197D01*
X245745D01*
X245763Y263206D01*
X245791Y263224D01*
X245828Y263243D01*
X245939Y263308D01*
X246068Y263391D01*
X246216Y263502D01*
X246364Y263640D01*
X246512Y263798D01*
X246642Y263973D01*
Y263983D01*
X246660Y263992D01*
X246670Y264020D01*
X246697Y264066D01*
X246716Y264112D01*
X246743Y264167D01*
X246808Y264306D01*
X246864Y264473D01*
X246919Y264667D01*
X246956Y264889D01*
X246965Y265120D01*
Y265212D01*
X246956Y265277D01*
X246947Y265360D01*
X246928Y265453D01*
X246910Y265554D01*
X246882Y265665D01*
X246845Y265795D01*
X246808Y265915D01*
X246753Y266044D01*
X246688Y266183D01*
X246614Y266312D01*
X246521Y266442D01*
X246429Y266571D01*
X246309Y266691D01*
X246300Y266701D01*
X246281Y266719D01*
X246244Y266747D01*
X246189Y266784D01*
X246124Y266839D01*
X246041Y266886D01*
X245939Y266941D01*
X245828Y266997D01*
X245699Y267061D01*
X245551Y267117D01*
X245394Y267163D01*
X245218Y267209D01*
X245033Y267255D01*
X244830Y267283D01*
X244608Y267302D01*
X244377Y267311D01*
D02*
G37*
G36*
X243258Y260377D02*
X243239D01*
X243193D01*
X243110Y260368D01*
X243008Y260358D01*
X242888Y260340D01*
X242759Y260303D01*
X242620Y260266D01*
X242481Y260210D01*
X242463Y260201D01*
X242416Y260173D01*
X242352Y260136D01*
X242269Y260081D01*
X242185Y260016D01*
X242084Y259933D01*
X242000Y259841D01*
X241917Y259729D01*
X241908Y259711D01*
X241889Y259674D01*
X241852Y259609D01*
X241825Y259526D01*
X241788Y259434D01*
X241751Y259323D01*
X241732Y259202D01*
X241723Y259073D01*
Y259027D01*
X241732Y258990D01*
X241742Y258897D01*
X241769Y258777D01*
X241825Y258648D01*
X241889Y258500D01*
X241991Y258352D01*
X242047Y258278D01*
X242121Y258213D01*
X242130D01*
X242139Y258195D01*
X242195Y258158D01*
X242287Y258102D01*
X242407Y258028D01*
X242564Y257964D01*
X242749Y257908D01*
X242962Y257871D01*
X243212Y257853D01*
X243221D01*
X243239D01*
X243276D01*
X243323Y257862D01*
X243378D01*
X243443Y257871D01*
X243591Y257899D01*
X243757Y257936D01*
X243933Y258001D01*
X244099Y258093D01*
X244256Y258213D01*
X244275Y258232D01*
X244321Y258278D01*
X244377Y258352D01*
X244450Y258454D01*
X244524Y258583D01*
X244580Y258731D01*
X244626Y258907D01*
X244645Y259101D01*
Y259156D01*
X244635Y259193D01*
X244626Y259286D01*
X244598Y259415D01*
X244552Y259554D01*
X244478Y259711D01*
X244386Y259859D01*
X244256Y260007D01*
X244238Y260025D01*
X244192Y260062D01*
X244108Y260127D01*
X243988Y260192D01*
X243850Y260257D01*
X243674Y260321D01*
X243480Y260358D01*
X243258Y260377D01*
D02*
G37*
G36*
X469685Y220269D02*
X466819D01*
X469685Y218253D01*
Y220269D01*
D02*
G37*
G36*
X468751Y216071D02*
X468742D01*
X468714D01*
X468677D01*
X468622D01*
X468548Y216062D01*
X468474D01*
X468381Y216053D01*
X468289Y216034D01*
X468076Y216007D01*
X467845Y215960D01*
X467614Y215896D01*
X467392Y215803D01*
X467383D01*
X467364Y215794D01*
X467337Y215776D01*
X467299Y215757D01*
X467189Y215692D01*
X467059Y215609D01*
X466911Y215498D01*
X466763Y215359D01*
X466615Y215202D01*
X466486Y215027D01*
Y215017D01*
X466467Y215008D01*
X466458Y214980D01*
X466430Y214934D01*
X466412Y214888D01*
X466384Y214832D01*
X466320Y214694D01*
X466264Y214527D01*
X466208Y214333D01*
X466172Y214111D01*
X466162Y213880D01*
Y213788D01*
X466172Y213723D01*
X466181Y213640D01*
X466199Y213547D01*
X466218Y213446D01*
X466245Y213335D01*
X466283Y213205D01*
X466320Y213085D01*
X466375Y212956D01*
X466440Y212817D01*
X466514Y212687D01*
X466606Y212558D01*
X466699Y212429D01*
X466819Y212308D01*
X466828Y212299D01*
X466847Y212281D01*
X466884Y212253D01*
X466939Y212216D01*
X467004Y212160D01*
X467087Y212114D01*
X467189Y212059D01*
X467299Y212003D01*
X467429Y211939D01*
X467577Y211883D01*
X467734Y211837D01*
X467910Y211791D01*
X468095Y211744D01*
X468298Y211717D01*
X468520Y211698D01*
X468751Y211689D01*
X468770D01*
X468807D01*
X468871D01*
X468955Y211698D01*
X469056Y211707D01*
X469176Y211726D01*
X469315Y211744D01*
X469454Y211763D01*
X469768Y211837D01*
X469925Y211883D01*
X470082Y211948D01*
X470240Y212013D01*
X470388Y212096D01*
X470536Y212188D01*
X470665Y212299D01*
X470674Y212308D01*
X470693Y212327D01*
X470730Y212364D01*
X470767Y212410D01*
X470822Y212475D01*
X470878Y212549D01*
X470933Y212632D01*
X470998Y212734D01*
X471063Y212835D01*
X471118Y212956D01*
X471173Y213085D01*
X471229Y213224D01*
X471266Y213381D01*
X471303Y213538D01*
X471321Y213704D01*
X471331Y213880D01*
Y213963D01*
X471321Y214047D01*
X471312Y214158D01*
X471294Y214296D01*
X471257Y214435D01*
X471220Y214592D01*
X471164Y214740D01*
X471155Y214722D01*
X471118Y214675D01*
X471072Y214592D01*
X471016Y214490D01*
X470961Y214361D01*
X470896Y214222D01*
X470841Y214065D01*
X470794Y213899D01*
X470184Y214111D01*
Y214121D01*
X470193Y214148D01*
X470203Y214185D01*
X470221Y214231D01*
X470240Y214296D01*
X470267Y214370D01*
X470332Y214537D01*
X470424Y214731D01*
X470526Y214934D01*
X470646Y215128D01*
X470794Y215322D01*
X470785Y215332D01*
X470767Y215359D01*
X470720Y215396D01*
X470665Y215443D01*
X470591Y215498D01*
X470508Y215563D01*
X470406Y215628D01*
X470286Y215702D01*
X470147Y215766D01*
X469990Y215831D01*
X469824Y215896D01*
X469648Y215951D01*
X469445Y216007D01*
X469232Y216044D01*
X469001Y216062D01*
X468751Y216071D01*
D02*
G37*
%LPD*%
D12*
X267690Y32030D02*
Y79730D01*
X169190Y32030D02*
X267690D01*
X169190D02*
Y79730D01*
X267690D01*
X381280Y104420D02*
Y164820D01*
Y104420D02*
X441680D01*
Y164820D01*
X381280D02*
X441680D01*
X213030Y211390D02*
X267030D01*
X213030Y167490D02*
Y211390D01*
Y167490D02*
X267030D01*
Y211390D01*
X308038Y372110D02*
X375920Y304228D01*
X443802Y372110D01*
X375920Y439992D02*
X443802Y372110D01*
X308038D02*
X375920Y439992D01*
X475970Y103140D02*
Y155940D01*
X453670Y103140D02*
X475970D01*
X453670D02*
Y155940D01*
X475970D01*
X269570Y246230D02*
Y290130D01*
X215570Y246230D02*
X269570D01*
X215570D02*
Y290130D01*
X269570D01*
X442240Y180620D02*
X502640D01*
Y241020D01*
X442240D02*
X502640D01*
X442240Y180620D02*
Y241020D01*
M02*
