G04*
G04 #@! TF.GenerationSoftware,Altium Limited,Altium Designer,24.9.1 (31)*
G04*
G04 Layer_Color=255*
%FSLAX44Y44*%
%MOMM*%
G71*
G04*
G04 #@! TF.SameCoordinates,CAE1AE67-0460-43A2-896A-31C629D7927E*
G04*
G04*
G04 #@! TF.FilePolarity,Positive*
G04*
G01*
G75*
G04:AMPARAMS|DCode=15|XSize=1.8mm|YSize=1.3mm|CornerRadius=0mm|HoleSize=0mm|Usage=FLASHONLY|Rotation=215.000|XOffset=0mm|YOffset=0mm|HoleType=Round|Shape=Rectangle|*
%AMROTATEDRECTD15*
4,1,4,0.3644,1.0487,1.1101,-0.0162,-0.3644,-1.0487,-1.1101,0.0162,0.3644,1.0487,0.0*
%
%ADD15ROTATEDRECTD15*%

%ADD16R,1.2000X1.6500*%
%ADD17R,1.1000X1.6000*%
%ADD18R,1.6000X1.6000*%
%ADD19R,0.7000X0.9000*%
%ADD20R,1.6000X1.5000*%
%ADD21R,1.6500X1.2000*%
%ADD22R,1.8000X1.3000*%
%ADD23R,2.0300X1.4000*%
%ADD33R,1.5200X1.5200*%
%ADD34C,1.5200*%
%ADD35C,1.2000*%
%ADD36R,1.2000X1.2000*%
%ADD37R,1.4986X1.4986*%
%ADD38C,1.4986*%
%ADD39C,2.7200*%
%ADD40C,1.4500*%
%ADD41P,1.6971X4X90.0*%
%ADD45C,1.1000*%
%ADD46R,1.1000X1.1000*%
%ADD50C,6.0000*%
%ADD51C,1.8000*%
%ADD52R,1.8000X1.8000*%
D15*
X329627Y327212D02*
D03*
X312993Y350968D02*
D03*
D16*
X238790Y149860D02*
D03*
X210790D02*
D03*
X185450D02*
D03*
X157450D02*
D03*
X449550Y389890D02*
D03*
X477550D02*
D03*
X333980Y297180D02*
D03*
X361980D02*
D03*
X570200Y200660D02*
D03*
X598200D02*
D03*
X226030Y228600D02*
D03*
X254030D02*
D03*
X389860Y297180D02*
D03*
X417860D02*
D03*
D17*
X475050Y357400D02*
D03*
X452050D02*
D03*
D18*
X463550Y328400D02*
D03*
D19*
X194310Y107340D02*
D03*
X187810Y126340D02*
D03*
X200810D02*
D03*
D20*
X163830Y177580D02*
D03*
Y213580D02*
D03*
Y241080D02*
D03*
Y277080D02*
D03*
D21*
X518160Y179100D02*
D03*
Y151100D02*
D03*
X546100Y179100D02*
D03*
Y151100D02*
D03*
X472440Y285780D02*
D03*
Y257780D02*
D03*
X194310Y273080D02*
D03*
Y245080D02*
D03*
Y209580D02*
D03*
Y181580D02*
D03*
X363220Y163860D02*
D03*
Y135860D02*
D03*
D22*
X624840Y150600D02*
D03*
Y179600D02*
D03*
D23*
X464820Y147940D02*
D03*
Y111140D02*
D03*
D33*
X180690Y55880D02*
D03*
D34*
X256190D02*
D03*
D35*
X411480Y121920D02*
D03*
X398780Y134620D02*
D03*
X350520Y372110D02*
D03*
X393881Y390070D02*
D03*
X357960Y354150D02*
D03*
Y390070D02*
D03*
X401320Y372110D02*
D03*
D36*
X411480Y147320D02*
D03*
D37*
X414020Y266700D02*
D03*
D38*
X388620D02*
D03*
X363220D02*
D03*
X337820D02*
D03*
Y190500D02*
D03*
X363220D02*
D03*
X388620D02*
D03*
X414020D02*
D03*
D39*
X118850Y160000D02*
D03*
X88850Y206350D02*
D03*
Y113650D02*
D03*
Y240650D02*
D03*
Y333350D02*
D03*
X118850Y287000D02*
D03*
D40*
X252730Y185640D02*
D03*
X240030Y198340D02*
D03*
X227330Y185640D02*
D03*
X229870Y264380D02*
D03*
X242570Y277080D02*
D03*
X255270Y264380D02*
D03*
D41*
X393881Y354150D02*
D03*
D45*
X459740Y210820D02*
D03*
X472440Y198120D02*
D03*
D46*
Y223520D02*
D03*
D50*
X700000Y400000D02*
D03*
X50000Y50000D02*
D03*
X700000D02*
D03*
X50000Y400000D02*
D03*
D51*
X698500Y250400D02*
D03*
D52*
Y199600D02*
D03*
M02*
