G04*
G04 #@! TF.GenerationSoftware,Altium Limited,Altium Designer,24.9.1 (31)*
G04*
G04 Layer_Color=32896*
%FSLAX44Y44*%
%MOMM*%
G71*
G04*
G04 #@! TF.SameCoordinates,CAE1AE67-0460-43A2-896A-31C629D7927E*
G04*
G04*
G04 #@! TF.FilePolarity,Positive*
G04*
G01*
G75*
%ADD10C,0.1500*%
%ADD12C,0.2000*%
G36*
X142580Y369392D02*
X142729Y369373D01*
X142858Y369355D01*
X142969Y369336D01*
X143062Y369318D01*
X143117Y369299D01*
X143136D01*
X143432Y369225D01*
X143580Y369188D01*
X143691Y369151D01*
X143784Y369114D01*
X143858Y369077D01*
X143914Y369058D01*
X143932D01*
X144173Y368966D01*
X144358Y368873D01*
X144432Y368836D01*
X144488Y368799D01*
X144506Y368781D01*
X144525D01*
X144673Y368688D01*
X144784Y368614D01*
X144839Y368558D01*
X144858Y368540D01*
X144914Y368484D01*
X144951Y368447D01*
X144988Y368429D01*
Y368410D01*
X145025Y368318D01*
X145043Y368299D01*
Y368281D01*
X145062Y368188D01*
Y368151D01*
Y368132D01*
Y368003D01*
Y367947D01*
Y367929D01*
Y367818D01*
Y367725D01*
Y367651D01*
Y367632D01*
X145043Y367558D01*
Y367503D01*
X145025Y367466D01*
Y367447D01*
X144969Y367373D01*
X144951Y367336D01*
X144876Y367318D01*
X144839D01*
X144747Y367336D01*
X144636Y367392D01*
X144562Y367429D01*
X144525Y367447D01*
X144358Y367540D01*
X144191Y367651D01*
X144136Y367688D01*
X144080Y367725D01*
X144043Y367744D01*
X144025D01*
X143784Y367855D01*
X143562Y367947D01*
X143469Y367984D01*
X143395Y368021D01*
X143340Y368040D01*
X143321D01*
X143006Y368132D01*
X142858Y368151D01*
X142710Y368170D01*
X142599Y368188D01*
X142414D01*
X142118Y368170D01*
X141988Y368151D01*
X141877Y368114D01*
X141784Y368095D01*
X141710Y368058D01*
X141673Y368040D01*
X141655D01*
X141432Y367929D01*
X141247Y367799D01*
X141136Y367707D01*
X141118Y367688D01*
X141099Y367669D01*
X140951Y367484D01*
X140840Y367318D01*
X140803Y367244D01*
X140784Y367188D01*
X140766Y367151D01*
Y367132D01*
X140692Y366910D01*
X140655Y366707D01*
X140636Y366614D01*
Y366540D01*
Y366503D01*
Y366484D01*
X140655Y366225D01*
X140673Y365984D01*
X140692Y365892D01*
X140710Y365818D01*
X140729Y365762D01*
Y365744D01*
X140803Y365448D01*
X140914Y365170D01*
X140969Y365040D01*
X141006Y364948D01*
X141025Y364892D01*
X141044Y364874D01*
X141136Y364688D01*
X141247Y364503D01*
X141358Y364318D01*
X141451Y364151D01*
X141562Y364022D01*
X141636Y363892D01*
X141692Y363818D01*
X141710Y363800D01*
X141877Y363577D01*
X142062Y363355D01*
X142266Y363133D01*
X142451Y362929D01*
X142599Y362763D01*
X142747Y362633D01*
X142821Y362540D01*
X142858Y362503D01*
X144932Y360374D01*
X144988Y360300D01*
X145043Y360226D01*
X145080Y360189D01*
X145099Y360170D01*
X145173Y360041D01*
X145191Y360004D01*
Y359985D01*
X145228Y359855D01*
X145247Y359800D01*
Y359781D01*
Y359689D01*
Y359596D01*
Y359541D01*
Y359504D01*
Y359374D01*
X145228Y359282D01*
Y359207D01*
Y359189D01*
X145191Y359115D01*
X145173Y359059D01*
X145136Y359041D01*
Y359022D01*
X145043Y358948D01*
X145025Y358930D01*
X145006D01*
X144876Y358911D01*
X139081D01*
X138988Y358930D01*
X138951D01*
X138877Y359004D01*
X138859Y359022D01*
Y359041D01*
X138821Y359170D01*
X138803Y359226D01*
Y359244D01*
X138785Y359337D01*
X138766Y359411D01*
Y359467D01*
Y359485D01*
Y359596D01*
X138785Y359670D01*
X138803Y359726D01*
Y359744D01*
X138821Y359818D01*
X138840Y359874D01*
X138859Y359911D01*
Y359930D01*
X138933Y360022D01*
X138951Y360041D01*
X138970D01*
X139044Y360078D01*
X143580D01*
X141951Y361781D01*
X141636Y362114D01*
X141358Y362411D01*
X141118Y362689D01*
X140895Y362929D01*
X140747Y363114D01*
X140618Y363263D01*
X140544Y363355D01*
X140525Y363392D01*
X140340Y363651D01*
X140173Y363892D01*
X140025Y364096D01*
X139914Y364281D01*
X139821Y364448D01*
X139766Y364559D01*
X139729Y364633D01*
X139710Y364651D01*
X139599Y364855D01*
X139525Y365059D01*
X139451Y365244D01*
X139396Y365410D01*
X139359Y365540D01*
X139340Y365633D01*
X139321Y365707D01*
Y365725D01*
X139266Y366096D01*
X139247Y366262D01*
Y366410D01*
X139229Y366521D01*
Y366633D01*
Y366688D01*
Y366707D01*
X139266Y367095D01*
X139284Y367281D01*
X139321Y367429D01*
X139359Y367558D01*
X139377Y367669D01*
X139414Y367725D01*
Y367744D01*
X139488Y367929D01*
X139581Y368095D01*
X139673Y368243D01*
X139766Y368373D01*
X139859Y368466D01*
X139932Y368540D01*
X139970Y368595D01*
X139988Y368614D01*
X140136Y368744D01*
X140284Y368855D01*
X140599Y369040D01*
X140729Y369095D01*
X140840Y369151D01*
X140914Y369188D01*
X140932D01*
X141155Y369262D01*
X141377Y369318D01*
X141599Y369355D01*
X141803Y369392D01*
X141969D01*
X142118Y369410D01*
X142247D01*
X142580Y369392D01*
D02*
G37*
G36*
X148506Y369299D02*
X148524D01*
X148617Y369281D01*
X148691Y369262D01*
X148728Y369243D01*
X148746D01*
X148820Y369188D01*
X148857Y369169D01*
Y369151D01*
X148876Y369095D01*
Y369077D01*
Y369058D01*
Y361652D01*
Y361466D01*
X148895Y361300D01*
Y361152D01*
X148913Y361041D01*
X148932Y360929D01*
Y360855D01*
X148950Y360818D01*
Y360800D01*
X149006Y360596D01*
X149061Y360429D01*
X149117Y360337D01*
X149135Y360300D01*
X149246Y360189D01*
X149358Y360096D01*
X149432Y360059D01*
X149450Y360041D01*
X149469D01*
X149617Y360004D01*
X149765Y359985D01*
X149931D01*
X150098Y360004D01*
X150228Y360022D01*
X150320Y360041D01*
X150357D01*
X150487Y360078D01*
X150598Y360133D01*
X150672Y360152D01*
X150691Y360170D01*
X150783Y360226D01*
X150857Y360263D01*
X150913Y360300D01*
X150931D01*
X150987Y360337D01*
X151042Y360374D01*
X151098D01*
X151172Y360355D01*
X151191Y360337D01*
X151209D01*
X151265Y360263D01*
X151283Y360244D01*
Y360226D01*
X151302Y360170D01*
Y360115D01*
X151320Y360078D01*
Y360059D01*
Y359967D01*
Y359874D01*
Y359800D01*
Y359763D01*
Y359652D01*
Y359578D01*
Y359522D01*
Y359504D01*
X151302Y359393D01*
Y359356D01*
Y359337D01*
X151265Y359263D01*
X151246Y359244D01*
Y359226D01*
X151191Y359170D01*
X151172Y359152D01*
Y359133D01*
X151135Y359096D01*
X151080Y359059D01*
X151024Y359041D01*
X151005Y359022D01*
X150894Y358967D01*
X150783Y358930D01*
X150709Y358911D01*
X150672Y358893D01*
X150524Y358856D01*
X150394Y358819D01*
X150302Y358800D01*
X150265D01*
X150098Y358782D01*
X149950Y358763D01*
X149580D01*
X149376Y358800D01*
X149191Y358819D01*
X149024Y358856D01*
X148895Y358893D01*
X148802Y358911D01*
X148746Y358948D01*
X148728D01*
X148561Y359022D01*
X148432Y359115D01*
X148302Y359207D01*
X148209Y359300D01*
X148135Y359374D01*
X148080Y359448D01*
X148043Y359485D01*
X148024Y359504D01*
X147839Y359800D01*
X147728Y360078D01*
X147691Y360189D01*
X147654Y360300D01*
X147635Y360355D01*
Y360374D01*
X147561Y360763D01*
X147543Y360966D01*
X147524Y361133D01*
X147506Y361281D01*
Y361392D01*
Y361485D01*
Y361503D01*
Y369058D01*
X147524Y369132D01*
X147543Y369151D01*
X147580Y369188D01*
X147617Y369225D01*
X147654Y369243D01*
X147673D01*
X147728Y369262D01*
X147802Y369281D01*
X147858Y369299D01*
X147876D01*
X147987Y369318D01*
X148432D01*
X148506Y369299D01*
D02*
G37*
G36*
X146843Y242355D02*
X146973D01*
X147010Y242336D01*
X147029D01*
X147121Y242318D01*
X147140Y242299D01*
X147158D01*
X147214Y242281D01*
X147232Y242262D01*
X149602Y240744D01*
X149695Y240688D01*
X149713Y240669D01*
X149732Y240651D01*
X149769Y240577D01*
X149788Y240558D01*
Y240540D01*
X149806Y240484D01*
Y240429D01*
X149825Y240392D01*
Y240373D01*
Y240225D01*
Y240170D01*
Y240151D01*
Y240021D01*
X149806Y239929D01*
Y239855D01*
Y239836D01*
X149788Y239762D01*
X149769Y239707D01*
X149732Y239688D01*
Y239670D01*
X149676Y239633D01*
X149584D01*
X149510Y239651D01*
X149436Y239688D01*
X149362Y239725D01*
X149343Y239744D01*
X147343Y240929D01*
Y233059D01*
X149510D01*
X149584Y233041D01*
X149602Y233022D01*
X149621D01*
X149695Y232948D01*
X149713Y232930D01*
Y232911D01*
X149750Y232800D01*
X149769Y232744D01*
Y232726D01*
X149788Y232652D01*
Y232578D01*
Y232504D01*
Y232485D01*
Y232374D01*
X149769Y232300D01*
Y232244D01*
Y232226D01*
X149732Y232115D01*
X149713Y232078D01*
Y232059D01*
X149639Y231985D01*
X149621Y231967D01*
X149547Y231948D01*
X144103D01*
X144029Y231967D01*
X143992D01*
X143918Y232022D01*
X143899Y232059D01*
X143862Y232170D01*
X143844Y232207D01*
Y232226D01*
X143825Y232318D01*
X143807Y232393D01*
Y232467D01*
Y232485D01*
Y232578D01*
X143825Y232670D01*
X143844Y232707D01*
Y232726D01*
X143862Y232800D01*
X143881Y232855D01*
X143899Y232892D01*
Y232911D01*
X143955Y233004D01*
X143973Y233022D01*
X143992D01*
X144066Y233059D01*
X145973D01*
Y242132D01*
X145992Y242206D01*
X146010Y242225D01*
X146029Y242262D01*
X146066Y242281D01*
X146084Y242299D01*
X146103D01*
X146158Y242318D01*
X146232Y242336D01*
X146288Y242355D01*
X146306D01*
X146418Y242373D01*
X146788D01*
X146843Y242355D01*
D02*
G37*
G36*
X153583Y242336D02*
X153602D01*
X153694Y242318D01*
X153769Y242299D01*
X153806Y242281D01*
X153824D01*
X153898Y242225D01*
X153935Y242206D01*
Y242188D01*
X153954Y242132D01*
Y242114D01*
Y242095D01*
Y234689D01*
Y234503D01*
X153972Y234337D01*
Y234189D01*
X153991Y234078D01*
X154009Y233967D01*
Y233892D01*
X154028Y233855D01*
Y233837D01*
X154083Y233633D01*
X154139Y233467D01*
X154194Y233374D01*
X154213Y233337D01*
X154324Y233226D01*
X154435Y233133D01*
X154509Y233096D01*
X154528Y233078D01*
X154546D01*
X154694Y233041D01*
X154843Y233022D01*
X155009D01*
X155176Y233041D01*
X155306Y233059D01*
X155398Y233078D01*
X155435D01*
X155565Y233115D01*
X155676Y233170D01*
X155750Y233189D01*
X155768Y233207D01*
X155861Y233263D01*
X155935Y233300D01*
X155991Y233337D01*
X156009D01*
X156065Y233374D01*
X156120Y233411D01*
X156176D01*
X156250Y233393D01*
X156268Y233374D01*
X156287D01*
X156342Y233300D01*
X156361Y233281D01*
Y233263D01*
X156379Y233207D01*
Y233152D01*
X156398Y233115D01*
Y233096D01*
Y233004D01*
Y232911D01*
Y232837D01*
Y232800D01*
Y232689D01*
Y232615D01*
Y232559D01*
Y232541D01*
X156379Y232430D01*
Y232393D01*
Y232374D01*
X156342Y232300D01*
X156324Y232281D01*
Y232263D01*
X156268Y232207D01*
X156250Y232189D01*
Y232170D01*
X156213Y232133D01*
X156157Y232096D01*
X156102Y232078D01*
X156083Y232059D01*
X155972Y232004D01*
X155861Y231967D01*
X155787Y231948D01*
X155750Y231930D01*
X155602Y231893D01*
X155472Y231856D01*
X155379Y231837D01*
X155343D01*
X155176Y231819D01*
X155028Y231800D01*
X154657D01*
X154454Y231837D01*
X154269Y231856D01*
X154102Y231893D01*
X153972Y231930D01*
X153880Y231948D01*
X153824Y231985D01*
X153806D01*
X153639Y232059D01*
X153509Y232152D01*
X153380Y232244D01*
X153287Y232337D01*
X153213Y232411D01*
X153158Y232485D01*
X153120Y232522D01*
X153102Y232541D01*
X152917Y232837D01*
X152806Y233115D01*
X152769Y233226D01*
X152732Y233337D01*
X152713Y233393D01*
Y233411D01*
X152639Y233800D01*
X152621Y234004D01*
X152602Y234170D01*
X152584Y234318D01*
Y234429D01*
Y234522D01*
Y234541D01*
Y242095D01*
X152602Y242169D01*
X152621Y242188D01*
X152658Y242225D01*
X152695Y242262D01*
X152732Y242281D01*
X152750D01*
X152806Y242299D01*
X152880Y242318D01*
X152935Y242336D01*
X152954D01*
X153065Y242355D01*
X153509D01*
X153583Y242336D01*
D02*
G37*
G36*
X345134Y409017D02*
X345245Y408980D01*
X345319Y408924D01*
X345356Y408906D01*
X345449Y408776D01*
X345486Y408628D01*
X345504Y408517D01*
Y408480D01*
Y408461D01*
Y398870D01*
X345486Y398796D01*
Y398777D01*
Y398759D01*
X345412Y398722D01*
X345393Y398703D01*
X345375D01*
X345227Y398685D01*
X345171Y398666D01*
X345153D01*
X345042Y398648D01*
X344930Y398629D01*
X344690D01*
X344597Y398648D01*
X344523Y398666D01*
X344505D01*
X344412Y398685D01*
X344356D01*
X344319Y398703D01*
X344301D01*
X344245Y398722D01*
X344208Y398740D01*
X344171Y398759D01*
X344134Y398833D01*
Y398870D01*
Y403295D01*
X343227D01*
X342893Y403277D01*
X342764Y403258D01*
X342634Y403221D01*
X342542Y403203D01*
X342468Y403166D01*
X342431Y403147D01*
X342412D01*
X342190Y403018D01*
X342005Y402888D01*
X341931Y402832D01*
X341875Y402777D01*
X341857Y402758D01*
X341838Y402740D01*
X341653Y402555D01*
X341523Y402351D01*
X341468Y402277D01*
X341431Y402203D01*
X341394Y402166D01*
Y402147D01*
X341264Y401888D01*
X341153Y401647D01*
X341097Y401536D01*
X341079Y401462D01*
X341042Y401407D01*
Y401388D01*
X340098Y398944D01*
X340042Y398833D01*
X340023Y398796D01*
Y398777D01*
X339931Y398703D01*
X339912Y398685D01*
X339894D01*
X339838Y398666D01*
X339764D01*
X339709Y398648D01*
X339690D01*
X339579Y398629D01*
X339172D01*
X339061Y398648D01*
X338968D01*
X338875Y398666D01*
X338801D01*
X338764Y398685D01*
X338746D01*
X338690Y398722D01*
X338653Y398740D01*
X338635Y398759D01*
X338616Y398833D01*
Y398870D01*
X338635Y398999D01*
X338653Y399036D01*
Y399055D01*
X338672Y399166D01*
X338727Y399296D01*
X338764Y399407D01*
X338783Y399444D01*
Y399462D01*
X339709Y401740D01*
X339838Y402018D01*
X339931Y402240D01*
X339986Y402332D01*
X340005Y402388D01*
X340042Y402425D01*
Y402444D01*
X340153Y402666D01*
X340264Y402832D01*
X340301Y402906D01*
X340338Y402962D01*
X340375Y402980D01*
Y402999D01*
X340505Y403166D01*
X340634Y403295D01*
X340727Y403369D01*
X340746Y403406D01*
X340764D01*
X340931Y403517D01*
X341079Y403610D01*
X341190Y403684D01*
X341208Y403703D01*
X341227D01*
X340894Y403832D01*
X340764Y403888D01*
X340634Y403943D01*
X340542Y403999D01*
X340449Y404036D01*
X340412Y404073D01*
X340394D01*
X340135Y404258D01*
X339931Y404443D01*
X339857Y404517D01*
X339801Y404573D01*
X339783Y404610D01*
X339764Y404628D01*
X339598Y404869D01*
X339468Y405110D01*
X339412Y405202D01*
X339375Y405276D01*
X339357Y405332D01*
Y405351D01*
X339264Y405684D01*
X339246Y405832D01*
X339227Y405980D01*
X339209Y406110D01*
Y406202D01*
Y406276D01*
Y406295D01*
X339227Y406684D01*
X339264Y406850D01*
X339283Y406980D01*
X339320Y407110D01*
X339357Y407202D01*
X339375Y407258D01*
Y407276D01*
X339505Y407591D01*
X339579Y407721D01*
X339653Y407832D01*
X339727Y407924D01*
X339783Y407999D01*
X339820Y408036D01*
X339838Y408054D01*
X340098Y408295D01*
X340338Y408480D01*
X340449Y408535D01*
X340542Y408591D01*
X340597Y408610D01*
X340616Y408628D01*
X340968Y408776D01*
X341153Y408832D01*
X341320Y408887D01*
X341468Y408924D01*
X341579Y408943D01*
X341653Y408961D01*
X341671D01*
X341838Y408980D01*
X341986D01*
X342116Y408998D01*
X342153D01*
X342357Y409017D01*
X342579Y409035D01*
X345004D01*
X345134Y409017D01*
D02*
G37*
G36*
X333043Y409072D02*
X333080D01*
X333191Y409054D01*
X333283Y409035D01*
X333358Y409017D01*
X333376D01*
X333450Y408998D01*
X333524Y408980D01*
X333561Y408961D01*
X333580Y408943D01*
X333654Y408869D01*
X333691Y408850D01*
Y408832D01*
X337394Y402536D01*
X337431Y402462D01*
X337468Y402388D01*
X337487Y402351D01*
Y402332D01*
X337542Y402203D01*
X337561Y402147D01*
Y402129D01*
X337579Y401981D01*
Y401925D01*
Y401907D01*
Y401814D01*
Y401740D01*
Y401666D01*
Y401647D01*
Y401518D01*
X337561Y401425D01*
Y401351D01*
Y401333D01*
X337542Y401258D01*
X337524Y401203D01*
X337505Y401166D01*
Y401147D01*
X337431Y401092D01*
X337394Y401073D01*
X337283Y401055D01*
X332969D01*
Y398870D01*
X332950Y398796D01*
Y398759D01*
X332876Y398703D01*
X332858Y398685D01*
X332839D01*
X332784Y398666D01*
X332709D01*
X332654Y398648D01*
X332635D01*
X332524Y398629D01*
X332172D01*
X332061Y398648D01*
X331969D01*
X331876Y398666D01*
X331821D01*
X331784Y398685D01*
X331765D01*
X331710Y398722D01*
X331673Y398740D01*
X331636Y398759D01*
X331598Y398833D01*
Y398851D01*
Y398870D01*
Y401055D01*
X330432D01*
X330339Y401073D01*
X330284Y401129D01*
X330247Y401184D01*
X330228Y401203D01*
X330173Y401333D01*
X330154Y401462D01*
X330136Y401573D01*
Y401592D01*
Y401610D01*
X330154Y401795D01*
X330173Y401925D01*
X330210Y402018D01*
X330228Y402036D01*
X330284Y402129D01*
X330358Y402166D01*
X330413Y402184D01*
X331598D01*
Y408795D01*
X331617Y408850D01*
X331636Y408887D01*
X331654Y408924D01*
X331673D01*
X331728Y408961D01*
X331802Y408980D01*
X331858Y408998D01*
X331876D01*
X331969Y409017D01*
X332080Y409035D01*
X332154Y409054D01*
X332191D01*
X332339Y409072D01*
X332487Y409091D01*
X332950D01*
X333043Y409072D01*
D02*
G37*
G36*
X376522Y200715D02*
X376929Y200678D01*
X377318Y200641D01*
X377633Y200585D01*
X377910Y200530D01*
X378022Y200511D01*
X378114Y200474D01*
X378188Y200456D01*
X378244D01*
X378262Y200437D01*
X378281D01*
X378633Y200308D01*
X378947Y200160D01*
X379225Y200012D01*
X379447Y199882D01*
X379651Y199752D01*
X379799Y199641D01*
X379873Y199567D01*
X379910Y199549D01*
X380132Y199326D01*
X380336Y199086D01*
X380503Y198864D01*
X380651Y198641D01*
X380744Y198456D01*
X380836Y198308D01*
X380873Y198215D01*
X380892Y198178D01*
X381003Y197864D01*
X381077Y197549D01*
X381151Y197234D01*
X381188Y196956D01*
X381207Y196716D01*
X381225Y196512D01*
Y196345D01*
X381207Y195938D01*
X381188Y195753D01*
X381169Y195586D01*
X381151Y195456D01*
X381132Y195364D01*
X381114Y195290D01*
Y195271D01*
X381040Y194919D01*
X381003Y194771D01*
X380966Y194642D01*
X380929Y194549D01*
X380892Y194475D01*
X380873Y194419D01*
Y194401D01*
X380744Y194142D01*
X380651Y193938D01*
X380595Y193864D01*
X380577Y193808D01*
X380540Y193790D01*
Y193771D01*
X380429Y193605D01*
X380355Y193512D01*
X380318Y193457D01*
X380299Y193438D01*
X380244Y193382D01*
X380188Y193346D01*
X380169Y193327D01*
X380151D01*
X380077Y193290D01*
X380040Y193271D01*
X379929Y193234D01*
X379892D01*
X379873D01*
X379781Y193216D01*
X379707D01*
X379651D01*
X379633D01*
X379503D01*
X379410D01*
X379355Y193234D01*
X379336D01*
X379244Y193253D01*
X379188D01*
X379170Y193271D01*
X379151D01*
X379096Y193290D01*
X379077Y193309D01*
X379059Y193327D01*
Y193346D01*
X379021Y193401D01*
Y193438D01*
X379040Y193531D01*
X379096Y193642D01*
X379170Y193734D01*
X379188Y193753D01*
Y193771D01*
X379299Y193938D01*
X379410Y194123D01*
X379447Y194197D01*
X379484Y194253D01*
X379521Y194290D01*
Y194308D01*
X379651Y194568D01*
X379762Y194808D01*
X379799Y194919D01*
X379836Y195012D01*
X379855Y195068D01*
Y195086D01*
X379947Y195456D01*
X379966Y195623D01*
X379984Y195790D01*
X380003Y195938D01*
Y196160D01*
X379984Y196438D01*
X379966Y196679D01*
X379929Y196901D01*
X379873Y197086D01*
X379818Y197253D01*
X379781Y197364D01*
X379762Y197456D01*
X379744Y197475D01*
X379633Y197678D01*
X379521Y197864D01*
X379392Y198030D01*
X379262Y198178D01*
X379151Y198289D01*
X379059Y198382D01*
X379003Y198438D01*
X378984Y198456D01*
X378781Y198586D01*
X378577Y198715D01*
X378373Y198826D01*
X378170Y198901D01*
X377985Y198975D01*
X377855Y199030D01*
X377762Y199049D01*
X377725Y199067D01*
X377429Y199141D01*
X377133Y199178D01*
X376837Y199215D01*
X376577Y199252D01*
X376337D01*
X376151Y199271D01*
X376077D01*
X376022D01*
X376003D01*
X375985D01*
X375615Y199252D01*
X375281Y199234D01*
X374985Y199197D01*
X374726Y199160D01*
X374522Y199123D01*
X374355Y199104D01*
X374263Y199067D01*
X374226D01*
X373948Y198975D01*
X373689Y198882D01*
X373466Y198771D01*
X373281Y198660D01*
X373115Y198586D01*
X373004Y198512D01*
X372930Y198456D01*
X372911Y198438D01*
X372726Y198271D01*
X372559Y198123D01*
X372411Y197956D01*
X372300Y197808D01*
X372207Y197678D01*
X372152Y197567D01*
X372115Y197493D01*
X372096Y197475D01*
X372004Y197253D01*
X371930Y197030D01*
X371893Y196827D01*
X371856Y196623D01*
X371837Y196456D01*
X371819Y196327D01*
Y195975D01*
X371837Y195771D01*
X371874Y195586D01*
X371893Y195419D01*
X371930Y195290D01*
X371967Y195197D01*
X371985Y195142D01*
Y195123D01*
X372096Y194808D01*
X372152Y194679D01*
X372207Y194568D01*
X372263Y194475D01*
X372300Y194401D01*
X372318Y194364D01*
X372337Y194345D01*
X372467Y194123D01*
X372578Y193975D01*
X372652Y193864D01*
X372670Y193827D01*
X372763Y193697D01*
X372800Y193586D01*
X372818Y193531D01*
Y193512D01*
X372800Y193420D01*
Y193401D01*
X372726Y193346D01*
X372707Y193327D01*
X372689D01*
X372559Y193290D01*
X372504Y193271D01*
X372485D01*
X372393Y193253D01*
X372318D01*
X372244D01*
X372226D01*
X372133D01*
X372041D01*
X372004Y193271D01*
X371985D01*
X371911Y193290D01*
X371856D01*
X371819Y193309D01*
X371800D01*
X371707Y193346D01*
X371670Y193364D01*
X371615Y193382D01*
X371559Y193438D01*
X371522Y193475D01*
X371504Y193494D01*
X371411Y193605D01*
X371319Y193734D01*
X371245Y193846D01*
X371226Y193864D01*
Y193883D01*
X371115Y194105D01*
X371022Y194308D01*
X370985Y194401D01*
X370948Y194475D01*
X370930Y194512D01*
Y194531D01*
X370837Y194808D01*
X370763Y195049D01*
X370745Y195160D01*
X370726Y195234D01*
X370708Y195290D01*
Y195308D01*
X370652Y195623D01*
X370634Y195771D01*
Y195901D01*
X370615Y196012D01*
Y196179D01*
X370634Y196549D01*
X370671Y196901D01*
X370726Y197215D01*
X370800Y197493D01*
X370874Y197734D01*
X370930Y197901D01*
X370967Y198012D01*
X370985Y198030D01*
Y198049D01*
X371133Y198345D01*
X371300Y198623D01*
X371485Y198864D01*
X371652Y199086D01*
X371819Y199252D01*
X371948Y199382D01*
X372022Y199456D01*
X372059Y199493D01*
X372337Y199697D01*
X372633Y199882D01*
X372911Y200049D01*
X373189Y200178D01*
X373429Y200289D01*
X373615Y200363D01*
X373689Y200382D01*
X373744Y200400D01*
X373763Y200419D01*
X373781D01*
X374170Y200530D01*
X374559Y200604D01*
X374948Y200660D01*
X375300Y200697D01*
X375596Y200715D01*
X375726D01*
X375837Y200734D01*
X375929D01*
X376003D01*
X376040D01*
X376059D01*
X376522Y200715D01*
D02*
G37*
G36*
X373115Y191346D02*
X373189D01*
X373207D01*
X373281Y191327D01*
X373337Y191309D01*
X373355Y191272D01*
X373374D01*
X373411Y191216D01*
Y191124D01*
X373392Y191049D01*
X373355Y190975D01*
X373318Y190901D01*
X373300Y190883D01*
X372115Y188883D01*
X379984D01*
Y191049D01*
X380003Y191124D01*
X380021Y191142D01*
Y191161D01*
X380095Y191235D01*
X380114Y191253D01*
X380132D01*
X380244Y191290D01*
X380299Y191309D01*
X380318D01*
X380392Y191327D01*
X380466D01*
X380540D01*
X380558D01*
X380670D01*
X380744Y191309D01*
X380799D01*
X380818D01*
X380929Y191272D01*
X380966Y191253D01*
X380984D01*
X381058Y191179D01*
X381077Y191161D01*
X381095Y191087D01*
Y185643D01*
X381077Y185569D01*
Y185532D01*
X381021Y185457D01*
X380984Y185439D01*
X380873Y185402D01*
X380836Y185383D01*
X380818D01*
X380725Y185365D01*
X380651Y185346D01*
X380577D01*
X380558D01*
X380466D01*
X380373Y185365D01*
X380336Y185383D01*
X380318D01*
X380244Y185402D01*
X380188Y185420D01*
X380151Y185439D01*
X380132D01*
X380040Y185494D01*
X380021Y185513D01*
Y185532D01*
X379984Y185606D01*
Y187513D01*
X370911D01*
X370837Y187531D01*
X370819Y187550D01*
X370782Y187568D01*
X370763Y187605D01*
X370745Y187624D01*
Y187642D01*
X370726Y187698D01*
X370708Y187772D01*
X370689Y187828D01*
Y187846D01*
X370671Y187957D01*
Y188328D01*
X370689Y188383D01*
Y188513D01*
X370708Y188550D01*
Y188568D01*
X370726Y188661D01*
X370745Y188679D01*
Y188698D01*
X370763Y188753D01*
X370782Y188772D01*
X372300Y191142D01*
X372355Y191235D01*
X372374Y191253D01*
X372393Y191272D01*
X372467Y191309D01*
X372485Y191327D01*
X372504D01*
X372559Y191346D01*
X372615D01*
X372652Y191364D01*
X372670D01*
X372818D01*
X372874D01*
X372892D01*
X373022D01*
X373115Y191346D01*
D02*
G37*
%LPC*%
G36*
X344134Y407906D02*
X342708D01*
X342597Y407887D01*
X342431D01*
X342357Y407869D01*
X342319D01*
X342134Y407850D01*
X342005Y407832D01*
X341912Y407813D01*
X341875Y407795D01*
X341653Y407721D01*
X341449Y407628D01*
X341301Y407517D01*
X341171Y407425D01*
X341079Y407332D01*
X341005Y407258D01*
X340968Y407202D01*
X340949Y407184D01*
X340857Y407017D01*
X340783Y406850D01*
X340746Y406665D01*
X340709Y406499D01*
X340690Y406369D01*
X340672Y406258D01*
Y406165D01*
Y406147D01*
X340690Y405888D01*
X340727Y405665D01*
X340764Y405573D01*
X340783Y405499D01*
X340801Y405462D01*
Y405443D01*
X340912Y405221D01*
X341042Y405054D01*
X341097Y404980D01*
X341153Y404925D01*
X341171Y404906D01*
X341190Y404888D01*
X341394Y404740D01*
X341616Y404628D01*
X341708Y404591D01*
X341783Y404554D01*
X341838Y404536D01*
X341857D01*
X342171Y404462D01*
X342468Y404425D01*
X342597Y404406D01*
X344134D01*
Y407906D01*
D02*
G37*
G36*
X332987Y407869D02*
X332969D01*
Y402184D01*
X336339D01*
X332987Y407869D01*
D02*
G37*
%LPD*%
D10*
X363750Y228600D02*
X386250D01*
X363750Y252350D02*
X366250D01*
X363750Y204850D02*
Y252350D01*
Y204850D02*
X366250D01*
X383750D02*
X386250D01*
Y252350D01*
X383750D02*
X386250D01*
D12*
X119000Y117500D02*
X160750D01*
X119000Y202500D02*
X160750D01*
Y117500D02*
Y202500D01*
X106200Y110500D02*
X118850D01*
X79250Y131000D02*
Y189000D01*
X106200Y209500D02*
X118850D01*
Y177350D02*
Y209500D01*
Y110500D02*
Y142650D01*
X374650Y406830D02*
Y428830D01*
X397650Y406830D02*
Y409830D01*
X351650Y406830D02*
X397650D01*
X351650D02*
Y409830D01*
Y425830D02*
Y428830D01*
X397650D01*
Y425830D02*
Y428830D01*
X106200Y237500D02*
X121350D01*
X79250Y258000D02*
Y316000D01*
X106200Y336500D02*
X121350D01*
Y304350D02*
Y336500D01*
Y237500D02*
Y269650D01*
X158250Y258000D02*
Y316000D01*
X121500D02*
X158250D01*
X121500Y258000D02*
X158250D01*
M02*
