G04*
G04 #@! TF.GenerationSoftware,Altium Limited,Altium Designer,24.9.1 (31)*
G04*
G04 Layer_Color=2752767*
%FSLAX44Y44*%
%MOMM*%
G71*
G04*
G04 #@! TF.SameCoordinates,CAE1AE67-0460-43A2-896A-31C629D7927E*
G04*
G04*
G04 #@! TF.FilePolarity,Positive*
G04*
G01*
G75*
%ADD61C,0.1270*%
%ADD62C,0.1693*%
%ADD63C,0.1016*%
D61*
X180690Y50800D02*
X175610Y60960D01*
X185770D01*
X180690Y50800D01*
X256190D02*
X251110Y60960D01*
X261270D01*
X256190Y50800D01*
X408940Y261620D02*
Y271780D01*
X419100D01*
Y261620D01*
X408940D01*
X383540D02*
Y271780D01*
X393700D01*
Y261620D01*
X383540D01*
X358140D02*
Y271780D01*
X368300D01*
Y261620D01*
X358140D01*
X332740D02*
Y271780D01*
X342900D01*
Y261620D01*
X332740D01*
Y185420D02*
Y195580D01*
X342900D01*
Y185420D01*
X332740D01*
X358140D02*
Y195580D01*
X368300D01*
Y185420D01*
X358140D01*
X383540D02*
Y195580D01*
X393700D01*
Y185420D01*
X383540D01*
X408940D02*
Y195580D01*
X419100D01*
Y185420D01*
X408940D01*
X118850Y154920D02*
X113770Y165080D01*
X123930D01*
X118850Y154920D01*
Y156952D02*
X115802Y163048D01*
X121898D01*
X118850Y156952D01*
X88850Y201270D02*
X83770Y211430D01*
X93930D01*
X88850Y201270D01*
Y203302D02*
X85802Y209398D01*
X91898D01*
X88850Y203302D01*
Y108570D02*
X83770Y118730D01*
X93930D01*
X88850Y108570D01*
Y110602D02*
X85802Y116698D01*
X91898D01*
X88850Y110602D01*
X247650Y185640D02*
X252730Y190720D01*
X257810Y185640D01*
X252730Y180560D01*
X247650Y185640D01*
X234950Y198340D02*
X240030Y203420D01*
X245110Y198340D01*
X240030Y193260D01*
X234950Y198340D01*
X222250Y185640D02*
X227330Y190720D01*
X232410Y185640D01*
X227330Y180560D01*
X222250Y185640D01*
X88850Y235570D02*
X83770Y245730D01*
X93930D01*
X88850Y235570D01*
Y237602D02*
X85802Y243698D01*
X91898D01*
X88850Y237602D01*
Y328270D02*
X83770Y338430D01*
X93930D01*
X88850Y328270D01*
Y330302D02*
X85802Y336398D01*
X91898D01*
X88850Y330302D01*
X118850Y281920D02*
X113770Y292080D01*
X123930D01*
X118850Y281920D01*
Y283952D02*
X115802Y290048D01*
X121898D01*
X118850Y283952D01*
X224790Y264380D02*
X229870Y269460D01*
X234950Y264380D01*
X229870Y259300D01*
X224790Y264380D01*
X237490Y277080D02*
X242570Y282160D01*
X247650Y277080D01*
X242570Y272000D01*
X237490Y277080D01*
X250190Y264380D02*
X255270Y269460D01*
X260350Y264380D01*
X255270Y259300D01*
X250190Y264380D01*
X694920Y394920D02*
Y405080D01*
X705080D01*
Y394920D01*
X694920D01*
X696952Y396952D02*
Y403048D01*
X703048D01*
Y396952D01*
X696952D01*
X698500Y245320D02*
X701040Y247860D01*
X703580D01*
X701040Y250400D01*
X703580Y252940D01*
X701040D01*
X698500Y255480D01*
X695960Y252940D01*
X693420D01*
X695960Y250400D01*
X693420Y247860D01*
X695960D01*
X698500Y245320D01*
Y194520D02*
X701040Y197060D01*
X703580D01*
X701040Y199600D01*
X703580Y202140D01*
X701040D01*
X698500Y204680D01*
X695960Y202140D01*
X693420D01*
X695960Y199600D01*
X693420Y197060D01*
X695960D01*
X698500Y194520D01*
X44920Y44920D02*
Y55080D01*
X55080D01*
Y44920D01*
X44920D01*
X46952Y46952D02*
Y53048D01*
X53048D01*
Y46952D01*
X46952D01*
X694920Y44920D02*
Y55080D01*
X705080D01*
Y44920D01*
X694920D01*
X696952Y46952D02*
Y53048D01*
X703048D01*
Y46952D01*
X696952D01*
X44920Y394920D02*
Y405080D01*
X55080D01*
Y394920D01*
X44920D01*
X46952Y396952D02*
Y403048D01*
X53048D01*
Y396952D01*
X46952D01*
X454660Y205740D02*
X457200D01*
X459740Y208280D01*
X462280Y205740D01*
X464820D01*
Y208280D01*
X462280Y210820D01*
X464820Y213360D01*
Y215900D01*
X462280D01*
X459740Y213360D01*
X457200Y215900D01*
X454660D01*
Y213360D01*
X457200Y210820D01*
X454660Y208280D01*
Y205740D01*
X467360Y218440D02*
X469900D01*
X472440Y220980D01*
X474980Y218440D01*
X477520D01*
Y220980D01*
X474980Y223520D01*
X477520Y226060D01*
Y228600D01*
X474980D01*
X472440Y226060D01*
X469900Y228600D01*
X467360D01*
Y226060D01*
X469900Y223520D01*
X467360Y220980D01*
Y218440D01*
Y193040D02*
X469900D01*
X472440Y195580D01*
X474980Y193040D01*
X477520D01*
Y195580D01*
X474980Y198120D01*
X477520Y200660D01*
Y203200D01*
X474980D01*
X472440Y200660D01*
X469900Y203200D01*
X467360D01*
Y200660D01*
X469900Y198120D01*
X467360Y195580D01*
Y193040D01*
X622300Y197380D02*
Y194840D01*
X627380D01*
Y197380D01*
X629920D01*
Y202460D01*
X627380D01*
Y205000D01*
X622300D01*
Y202460D01*
X619760D01*
Y197380D01*
X622300D01*
Y129040D02*
Y126500D01*
X627380D01*
Y129040D01*
X629920D01*
Y134120D01*
X627380D01*
Y136660D01*
X622300D01*
Y134120D01*
X619760D01*
Y129040D01*
X622300D01*
X645160Y388620D02*
Y386080D01*
X650240D01*
Y388620D01*
X652780D01*
Y393700D01*
X650240D01*
Y396240D01*
X645160D01*
Y393700D01*
X642620D01*
Y388620D01*
X645160D01*
Y340360D02*
Y337820D01*
X650240D01*
Y340360D01*
X652780D01*
Y345440D01*
X650240D01*
Y347980D01*
X645160D01*
Y345440D01*
X642620D01*
Y340360D01*
X645160D01*
Y289560D02*
Y287020D01*
X650240D01*
Y289560D01*
X652780D01*
Y294640D01*
X650240D01*
Y297180D01*
X645160D01*
Y294640D01*
X642620D01*
Y289560D01*
X645160D01*
Y238760D02*
Y236220D01*
X650240D01*
Y238760D01*
X652780D01*
Y243840D01*
X650240D01*
Y246380D01*
X645160D01*
Y243840D01*
X642620D01*
Y238760D01*
X645160D01*
Y187960D02*
Y185420D01*
X650240D01*
Y187960D01*
X652780D01*
Y193040D01*
X650240D01*
Y195580D01*
X645160D01*
Y193040D01*
X642620D01*
Y187960D01*
X645160D01*
Y137160D02*
Y134620D01*
X650240D01*
Y137160D01*
X652780D01*
Y142240D01*
X650240D01*
Y144780D01*
X645160D01*
Y142240D01*
X642620D01*
Y137160D01*
X645160D01*
X645175Y86807D02*
Y84267D01*
X650255D01*
Y86807D01*
X652795D01*
Y91887D01*
X650255D01*
Y94427D01*
X645175D01*
Y91887D01*
X642635D01*
Y86807D01*
X645175D01*
X607060Y63500D02*
Y60960D01*
X612140D01*
Y63500D01*
X614680D01*
Y68580D01*
X612140D01*
Y71120D01*
X607060D01*
Y68580D01*
X604520D01*
Y63500D01*
X607060D01*
X556260D02*
Y60960D01*
X561340D01*
Y63500D01*
X563880D01*
Y68580D01*
X561340D01*
Y71120D01*
X556260D01*
Y68580D01*
X553720D01*
Y63500D01*
X556260D01*
X505460D02*
Y60960D01*
X510540D01*
Y63500D01*
X513080D01*
Y68580D01*
X510540D01*
Y71120D01*
X505460D01*
Y68580D01*
X502920D01*
Y63500D01*
X505460D01*
X454660D02*
Y60960D01*
X459740D01*
Y63500D01*
X462280D01*
Y68580D01*
X459740D01*
Y71120D01*
X454660D01*
Y68580D01*
X452120D01*
Y63500D01*
X454660D01*
X403860D02*
Y60960D01*
X408940D01*
Y63500D01*
X411480D01*
Y68580D01*
X408940D01*
Y71120D01*
X403860D01*
Y68580D01*
X401320D01*
Y63500D01*
X403860D01*
X378460D02*
Y60960D01*
X383540D01*
Y63500D01*
X386080D01*
Y68580D01*
X383540D01*
Y71120D01*
X378460D01*
Y68580D01*
X375920D01*
Y63500D01*
X378460D01*
X353060D02*
Y60960D01*
X358140D01*
Y63500D01*
X360680D01*
Y68580D01*
X358140D01*
Y71120D01*
X353060D01*
Y68580D01*
X350520D01*
Y63500D01*
X353060D01*
X302260D02*
Y60960D01*
X307340D01*
Y63500D01*
X309880D01*
Y68580D01*
X307340D01*
Y71120D01*
X302260D01*
Y68580D01*
X299720D01*
Y63500D01*
X302260D01*
X284480Y86360D02*
Y83820D01*
X289560D01*
Y86360D01*
X292100D01*
Y91440D01*
X289560D01*
Y93980D01*
X284480D01*
Y91440D01*
X281940D01*
Y86360D01*
X284480D01*
Y111760D02*
Y109220D01*
X289560D01*
Y111760D01*
X292100D01*
Y116840D01*
X289560D01*
Y119380D01*
X284480D01*
Y116840D01*
X281940D01*
Y111760D01*
X284480D01*
Y137160D02*
Y134620D01*
X289560D01*
Y137160D01*
X292100D01*
Y142240D01*
X289560D01*
Y144780D01*
X284480D01*
Y142240D01*
X281940D01*
Y137160D01*
X284480D01*
Y162560D02*
Y160020D01*
X289560D01*
Y162560D01*
X292100D01*
Y167640D01*
X289560D01*
Y170180D01*
X284480D01*
Y167640D01*
X281940D01*
Y162560D01*
X284480D01*
Y187960D02*
Y185420D01*
X289560D01*
Y187960D01*
X292100D01*
Y193040D01*
X289560D01*
Y195580D01*
X284480D01*
Y193040D01*
X281940D01*
Y187960D01*
X284480D01*
Y213360D02*
Y210820D01*
X289560D01*
Y213360D01*
X292100D01*
Y218440D01*
X289560D01*
Y220980D01*
X284480D01*
Y218440D01*
X281940D01*
Y213360D01*
X284480D01*
Y238760D02*
Y236220D01*
X289560D01*
Y238760D01*
X292100D01*
Y243840D01*
X289560D01*
Y246380D01*
X284480D01*
Y243840D01*
X281940D01*
Y238760D01*
X284480D01*
Y264160D02*
Y261620D01*
X289560D01*
Y264160D01*
X292100D01*
Y269240D01*
X289560D01*
Y271780D01*
X284480D01*
Y269240D01*
X281940D01*
Y264160D01*
X284480D01*
Y289560D02*
Y287020D01*
X289560D01*
Y289560D01*
X292100D01*
Y294640D01*
X289560D01*
Y297180D01*
X284480D01*
Y294640D01*
X281940D01*
Y289560D01*
X284480D01*
Y314960D02*
Y312420D01*
X289560D01*
Y314960D01*
X292100D01*
Y320040D01*
X289560D01*
Y322580D01*
X284480D01*
Y320040D01*
X281940D01*
Y314960D01*
X284480D01*
Y340360D02*
Y337820D01*
X289560D01*
Y340360D01*
X292100D01*
Y345440D01*
X289560D01*
Y347980D01*
X284480D01*
Y345440D01*
X281940D01*
Y340360D01*
X284480D01*
Y391160D02*
Y388620D01*
X289560D01*
Y391160D01*
X292100D01*
Y396240D01*
X289560D01*
Y398780D01*
X284480D01*
Y396240D01*
X281940D01*
Y391160D01*
X284480D01*
Y365760D02*
Y363220D01*
X289560D01*
Y365760D01*
X292100D01*
Y370840D01*
X289560D01*
Y373380D01*
X284480D01*
Y370840D01*
X281940D01*
Y365760D01*
X284480D01*
X314960Y416560D02*
Y414020D01*
X320040D01*
Y416560D01*
X322580D01*
Y421640D01*
X320040D01*
Y424180D01*
X314960D01*
Y421640D01*
X312420D01*
Y416560D01*
X314960D01*
X441960D02*
Y414020D01*
X447040D01*
Y416560D01*
X449580D01*
Y421640D01*
X447040D01*
Y424180D01*
X441960D01*
Y421640D01*
X439420D01*
Y416560D01*
X441960D01*
X492760D02*
Y414020D01*
X497840D01*
Y416560D01*
X500380D01*
Y421640D01*
X497840D01*
Y424180D01*
X492760D01*
Y421640D01*
X490220D01*
Y416560D01*
X492760D01*
X543560D02*
Y414020D01*
X548640D01*
Y416560D01*
X551180D01*
Y421640D01*
X548640D01*
Y424180D01*
X543560D01*
Y421640D01*
X541020D01*
Y416560D01*
X543560D01*
X594360D02*
Y414020D01*
X599440D01*
Y416560D01*
X601980D01*
Y421640D01*
X599440D01*
Y424180D01*
X594360D01*
Y421640D01*
X591820D01*
Y416560D01*
X594360D01*
X327660Y63500D02*
Y60960D01*
X332740D01*
Y63500D01*
X335280D01*
Y68580D01*
X332740D01*
Y71120D01*
X327660D01*
Y68580D01*
X325120D01*
Y63500D01*
X327660D01*
X429260D02*
Y60960D01*
X434340D01*
Y63500D01*
X436880D01*
Y68580D01*
X434340D01*
Y71120D01*
X429260D01*
Y68580D01*
X426720D01*
Y63500D01*
X429260D01*
X433070Y354330D02*
Y351790D01*
X438150D01*
Y354330D01*
X440690D01*
Y359410D01*
X438150D01*
Y361950D01*
X433070D01*
Y359410D01*
X430530D01*
Y354330D01*
X433070D01*
X154940Y130810D02*
Y128270D01*
X160020D01*
Y130810D01*
X162560D01*
Y135890D01*
X160020D01*
Y138430D01*
X154940D01*
Y135890D01*
X152400D01*
Y130810D01*
X154940D01*
X441990Y325860D02*
Y323320D01*
X447070D01*
Y325860D01*
X449610D01*
Y330940D01*
X447070D01*
Y333480D01*
X441990D01*
Y330940D01*
X439450D01*
Y325860D01*
X441990D01*
X415320Y313660D02*
Y311120D01*
X420400D01*
Y313660D01*
X422940D01*
Y318740D01*
X420400D01*
Y321280D01*
X415320D01*
Y318740D01*
X412780D01*
Y313660D01*
X415320D01*
X543560Y129540D02*
Y127000D01*
X548640D01*
Y129540D01*
X551180D01*
Y134620D01*
X548640D01*
Y137160D01*
X543560D01*
Y134620D01*
X541020D01*
Y129540D01*
X543560D01*
X515620D02*
Y127000D01*
X520700D01*
Y129540D01*
X523240D01*
Y134620D01*
X520700D01*
Y137160D01*
X515620D01*
Y134620D01*
X513080D01*
Y129540D01*
X515620D01*
X469900Y302260D02*
Y299720D01*
X474980D01*
Y302260D01*
X477520D01*
Y307340D01*
X474980D01*
Y309880D01*
X469900D01*
Y307340D01*
X467360D01*
Y302260D01*
X469900D01*
X191770Y91440D02*
Y88900D01*
X196850D01*
Y91440D01*
X199390D01*
Y96520D01*
X196850D01*
Y99060D01*
X191770D01*
Y96520D01*
X189230D01*
Y91440D01*
X191770D01*
X462280Y89580D02*
Y87040D01*
X467360D01*
Y89580D01*
X469900D01*
Y94660D01*
X467360D01*
Y97200D01*
X462280D01*
Y94660D01*
X459740D01*
Y89580D01*
X462280D01*
X142270Y274540D02*
Y272000D01*
X147350D01*
Y274540D01*
X149890D01*
Y279620D01*
X147350D01*
Y282160D01*
X142270D01*
Y279620D01*
X139730D01*
Y274540D01*
X142270D01*
Y211040D02*
Y208500D01*
X147350D01*
Y211040D01*
X149890D01*
Y216120D01*
X147350D01*
Y218660D01*
X142270D01*
Y216120D01*
X139730D01*
Y211040D01*
X142270D01*
X312420Y294640D02*
Y292100D01*
X317500D01*
Y294640D01*
X320040D01*
Y299720D01*
X317500D01*
Y302260D01*
X312420D01*
Y299720D01*
X309880D01*
Y294640D01*
X312420D01*
D62*
X416560Y121920D02*
G03*
X416560Y121920I-5080J0D01*
G01*
Y147320D02*
G03*
X416560Y147320I-5080J0D01*
G01*
X403860Y134620D02*
G03*
X403860Y134620I-5080J0D01*
G01*
X355600Y372110D02*
G03*
X355600Y372110I-5080J0D01*
G01*
X398960Y390070D02*
G03*
X398960Y390070I-5080J0D01*
G01*
X363040Y354150D02*
G03*
X363040Y354150I-5080J0D01*
G01*
X398960D02*
G03*
X398960Y354150I-5080J0D01*
G01*
X363040Y390070D02*
G03*
X363040Y390070I-5080J0D01*
G01*
X406400Y372110D02*
G03*
X406400Y372110I-5080J0D01*
G01*
X652780Y368300D02*
G03*
X652780Y368300I-5080J0D01*
G01*
Y317500D02*
G03*
X652780Y317500I-5080J0D01*
G01*
Y266700D02*
G03*
X652780Y266700I-5080J0D01*
G01*
Y215900D02*
G03*
X652780Y215900I-5080J0D01*
G01*
Y165100D02*
G03*
X652780Y165100I-5080J0D01*
G01*
X627380Y419100D02*
G03*
X627380Y419100I-5080J0D01*
G01*
X576580D02*
G03*
X576580Y419100I-5080J0D01*
G01*
X525780D02*
G03*
X525780Y419100I-5080J0D01*
G01*
X474980D02*
G03*
X474980Y419100I-5080J0D01*
G01*
X424180D02*
G03*
X424180Y419100I-5080J0D01*
G01*
X347980D02*
G03*
X347980Y419100I-5080J0D01*
G01*
X487680Y66040D02*
G03*
X487680Y66040I-5080J0D01*
G01*
X538480D02*
G03*
X538480Y66040I-5080J0D01*
G01*
X589280D02*
G03*
X589280Y66040I-5080J0D01*
G01*
X640080D02*
G03*
X640080Y66040I-5080J0D01*
G01*
X652780Y114300D02*
G03*
X652780Y114300I-5080J0D01*
G01*
X720956Y416364D02*
G03*
X720956Y416364I-5080J0D01*
G01*
X689204Y383636D02*
G03*
X689204Y383636I-5080J0D01*
G01*
X720956D02*
G03*
X720956Y383636I-5080J0D01*
G01*
X689204Y416364D02*
G03*
X689204Y416364I-5080J0D01*
G01*
X727940Y400000D02*
G03*
X727940Y400000I-5080J0D01*
G01*
X682220D02*
G03*
X682220Y400000I-5080J0D01*
G01*
X705080Y377140D02*
G03*
X705080Y377140I-5080J0D01*
G01*
Y422860D02*
G03*
X705080Y422860I-5080J0D01*
G01*
X70956Y66364D02*
G03*
X70956Y66364I-5080J0D01*
G01*
X39204Y33636D02*
G03*
X39204Y33636I-5080J0D01*
G01*
X70956D02*
G03*
X70956Y33636I-5080J0D01*
G01*
X39204Y66364D02*
G03*
X39204Y66364I-5080J0D01*
G01*
X77940Y50000D02*
G03*
X77940Y50000I-5080J0D01*
G01*
X32220D02*
G03*
X32220Y50000I-5080J0D01*
G01*
X55080Y27140D02*
G03*
X55080Y27140I-5080J0D01*
G01*
Y72860D02*
G03*
X55080Y72860I-5080J0D01*
G01*
X720956Y66364D02*
G03*
X720956Y66364I-5080J0D01*
G01*
X689204Y33636D02*
G03*
X689204Y33636I-5080J0D01*
G01*
X720956D02*
G03*
X720956Y33636I-5080J0D01*
G01*
X689204Y66364D02*
G03*
X689204Y66364I-5080J0D01*
G01*
X727940Y50000D02*
G03*
X727940Y50000I-5080J0D01*
G01*
X682220D02*
G03*
X682220Y50000I-5080J0D01*
G01*
X705080Y27140D02*
G03*
X705080Y27140I-5080J0D01*
G01*
Y72860D02*
G03*
X705080Y72860I-5080J0D01*
G01*
X70956Y416364D02*
G03*
X70956Y416364I-5080J0D01*
G01*
X39204Y383636D02*
G03*
X39204Y383636I-5080J0D01*
G01*
X70956D02*
G03*
X70956Y383636I-5080J0D01*
G01*
X39204Y416364D02*
G03*
X39204Y416364I-5080J0D01*
G01*
X77940Y400000D02*
G03*
X77940Y400000I-5080J0D01*
G01*
X32220D02*
G03*
X32220Y400000I-5080J0D01*
G01*
X55080Y377140D02*
G03*
X55080Y377140I-5080J0D01*
G01*
Y422860D02*
G03*
X55080Y422860I-5080J0D01*
G01*
D63*
X650748Y368300D02*
G03*
X650748Y368300I-3048J0D01*
G01*
Y317500D02*
G03*
X650748Y317500I-3048J0D01*
G01*
Y266700D02*
G03*
X650748Y266700I-3048J0D01*
G01*
Y215900D02*
G03*
X650748Y215900I-3048J0D01*
G01*
Y165100D02*
G03*
X650748Y165100I-3048J0D01*
G01*
X625348Y419100D02*
G03*
X625348Y419100I-3048J0D01*
G01*
X574548D02*
G03*
X574548Y419100I-3048J0D01*
G01*
X523748D02*
G03*
X523748Y419100I-3048J0D01*
G01*
X472948D02*
G03*
X472948Y419100I-3048J0D01*
G01*
X422148D02*
G03*
X422148Y419100I-3048J0D01*
G01*
X345948D02*
G03*
X345948Y419100I-3048J0D01*
G01*
X485648Y66040D02*
G03*
X485648Y66040I-3048J0D01*
G01*
X536448D02*
G03*
X536448Y66040I-3048J0D01*
G01*
X587248D02*
G03*
X587248Y66040I-3048J0D01*
G01*
X638048D02*
G03*
X638048Y66040I-3048J0D01*
G01*
X650748Y114300D02*
G03*
X650748Y114300I-3048J0D01*
G01*
X718923Y416364D02*
G03*
X718923Y416364I-3048J0D01*
G01*
X687172Y383636D02*
G03*
X687172Y383636I-3048J0D01*
G01*
X718923D02*
G03*
X718923Y383636I-3048J0D01*
G01*
X687172Y416364D02*
G03*
X687172Y416364I-3048J0D01*
G01*
X725908Y400000D02*
G03*
X725908Y400000I-3048J0D01*
G01*
X680188D02*
G03*
X680188Y400000I-3048J0D01*
G01*
X703048Y377140D02*
G03*
X703048Y377140I-3048J0D01*
G01*
Y422860D02*
G03*
X703048Y422860I-3048J0D01*
G01*
X68924Y66364D02*
G03*
X68924Y66364I-3048J0D01*
G01*
X37173Y33636D02*
G03*
X37173Y33636I-3048J0D01*
G01*
X68924D02*
G03*
X68924Y33636I-3048J0D01*
G01*
X37173Y66364D02*
G03*
X37173Y66364I-3048J0D01*
G01*
X75908Y50000D02*
G03*
X75908Y50000I-3048J0D01*
G01*
X30188D02*
G03*
X30188Y50000I-3048J0D01*
G01*
X53048Y27140D02*
G03*
X53048Y27140I-3048J0D01*
G01*
Y72860D02*
G03*
X53048Y72860I-3048J0D01*
G01*
X718923Y66364D02*
G03*
X718923Y66364I-3048J0D01*
G01*
X687172Y33636D02*
G03*
X687172Y33636I-3048J0D01*
G01*
X718923D02*
G03*
X718923Y33636I-3048J0D01*
G01*
X687172Y66364D02*
G03*
X687172Y66364I-3048J0D01*
G01*
X725908Y50000D02*
G03*
X725908Y50000I-3048J0D01*
G01*
X680188D02*
G03*
X680188Y50000I-3048J0D01*
G01*
X703048Y27140D02*
G03*
X703048Y27140I-3048J0D01*
G01*
Y72860D02*
G03*
X703048Y72860I-3048J0D01*
G01*
X68924Y416364D02*
G03*
X68924Y416364I-3048J0D01*
G01*
X37173Y383636D02*
G03*
X37173Y383636I-3048J0D01*
G01*
X68924D02*
G03*
X68924Y383636I-3048J0D01*
G01*
X37173Y416364D02*
G03*
X37173Y416364I-3048J0D01*
G01*
X75908Y400000D02*
G03*
X75908Y400000I-3048J0D01*
G01*
X30188D02*
G03*
X30188Y400000I-3048J0D01*
G01*
X53048Y377140D02*
G03*
X53048Y377140I-3048J0D01*
G01*
Y422860D02*
G03*
X53048Y422860I-3048J0D01*
G01*
M02*
