G04*
G04 #@! TF.GenerationSoftware,Altium Limited,Altium Designer,24.9.1 (31)*
G04*
G04 Layer_Color=255*
%FSLAX44Y44*%
%MOMM*%
G71*
G04*
G04 #@! TF.SameCoordinates,CAE1AE67-0460-43A2-896A-31C629D7927E*
G04*
G04*
G04 #@! TF.FilePolarity,Positive*
G04*
G01*
G75*
%ADD16R,1.2000X1.6500*%
%ADD22R,1.8000X1.3000*%
%ADD33R,1.5200X1.5200*%
%ADD34C,1.5200*%
%ADD35C,1.2000*%
%ADD36R,1.2000X1.2000*%
%ADD37R,1.4986X1.4986*%
%ADD38C,1.4986*%
%ADD39C,2.7200*%
%ADD40C,1.4500*%
%ADD41P,1.6971X4X90.0*%
%ADD45C,1.1000*%
%ADD46R,1.1000X1.1000*%
%ADD50C,6.0000*%
%ADD51C,1.8000*%
%ADD52R,1.8000X1.8000*%
D16*
X360650Y417830D02*
D03*
X388650D02*
D03*
D22*
X375000Y214100D02*
D03*
Y243100D02*
D03*
D33*
X180690Y55880D02*
D03*
D34*
X256190D02*
D03*
D35*
X411480Y121920D02*
D03*
X398780Y134620D02*
D03*
X350520Y372110D02*
D03*
X393881Y390070D02*
D03*
X357960Y354150D02*
D03*
Y390070D02*
D03*
X401320Y372110D02*
D03*
D36*
X411480Y147320D02*
D03*
D37*
X414020Y266700D02*
D03*
D38*
X388620D02*
D03*
X363220D02*
D03*
X337820D02*
D03*
Y190500D02*
D03*
X363220D02*
D03*
X388620D02*
D03*
X414020D02*
D03*
D39*
X118850Y160000D02*
D03*
X88850Y206350D02*
D03*
Y113650D02*
D03*
Y240650D02*
D03*
Y333350D02*
D03*
X118850Y287000D02*
D03*
D40*
X252730Y185640D02*
D03*
X240030Y198340D02*
D03*
X227330Y185640D02*
D03*
X229870Y264380D02*
D03*
X242570Y277080D02*
D03*
X255270Y264380D02*
D03*
D41*
X393881Y354150D02*
D03*
D45*
X459740Y210820D02*
D03*
X472440Y198120D02*
D03*
D46*
Y223520D02*
D03*
D50*
X700000Y400000D02*
D03*
X50000Y50000D02*
D03*
X700000D02*
D03*
X50000Y400000D02*
D03*
D51*
X698500Y250400D02*
D03*
D52*
Y199600D02*
D03*
M02*
