G04*
G04 #@! TF.GenerationSoftware,Altium Limited,Altium Designer,24.9.1 (31)*
G04*
G04 Layer_Physical_Order=3*
G04 Layer_Color=16440176*
%FSLAX44Y44*%
%MOMM*%
G71*
G04*
G04 #@! TF.SameCoordinates,CAE1AE67-0460-43A2-896A-31C629D7927E*
G04*
G04*
G04 #@! TF.FilePolarity,Positive*
G04*
G01*
G75*
%ADD33R,1.5200X1.5200*%
%ADD34C,1.5200*%
%ADD35C,1.2000*%
%ADD36R,1.2000X1.2000*%
%ADD39C,2.7200*%
%ADD40C,1.4500*%
%ADD41P,1.6971X4X90.0*%
%ADD45C,1.1000*%
%ADD46R,1.1000X1.1000*%
%ADD50C,6.0000*%
%ADD51C,1.8000*%
%ADD52R,1.8000X1.8000*%
%ADD53C,0.8000*%
%ADD54C,0.6000*%
%ADD55C,1.5240*%
G36*
X482600Y71580D02*
X481498D01*
X479462Y70737D01*
X477903Y69178D01*
X477060Y67142D01*
Y64938D01*
X477903Y62902D01*
X479462Y61343D01*
X481498Y60500D01*
X482600D01*
Y38100D01*
X137160D01*
Y330200D01*
X437270D01*
X437990Y329261D01*
Y327539D01*
X438436Y325876D01*
X439297Y324384D01*
X440514Y323167D01*
X442006Y322306D01*
X443669Y321860D01*
X445391D01*
X447054Y322306D01*
X448546Y323167D01*
X449763Y324384D01*
X450624Y325876D01*
X451070Y327539D01*
Y329261D01*
X451791Y330200D01*
X482600D01*
Y71580D01*
D02*
G37*
%LPC*%
G36*
X287881Y324040D02*
X286159D01*
X284496Y323594D01*
X283004Y322733D01*
X281787Y321516D01*
X280926Y320024D01*
X280480Y318361D01*
Y316639D01*
X280926Y314976D01*
X281787Y313484D01*
X283004Y312267D01*
X284496Y311406D01*
X286159Y310960D01*
X287881D01*
X289544Y311406D01*
X291036Y312267D01*
X292253Y313484D01*
X293114Y314976D01*
X293560Y316639D01*
Y318361D01*
X293114Y320024D01*
X292253Y321516D01*
X291036Y322733D01*
X289544Y323594D01*
X287881Y324040D01*
D02*
G37*
G36*
X473301Y311340D02*
X471579D01*
X469916Y310894D01*
X468424Y310033D01*
X467207Y308816D01*
X466346Y307324D01*
X465900Y305661D01*
Y303939D01*
X466346Y302276D01*
X467207Y300784D01*
X468424Y299567D01*
X469916Y298706D01*
X471579Y298260D01*
X473301D01*
X474964Y298706D01*
X476456Y299567D01*
X477673Y300784D01*
X478534Y302276D01*
X478980Y303939D01*
Y305661D01*
X478534Y307324D01*
X477673Y308816D01*
X476456Y310033D01*
X474964Y310894D01*
X473301Y311340D01*
D02*
G37*
G36*
X287881Y298640D02*
X286159D01*
X284496Y298194D01*
X283004Y297333D01*
X281787Y296116D01*
X280926Y294624D01*
X280480Y292961D01*
Y291239D01*
X280926Y289576D01*
X281787Y288084D01*
X283004Y286867D01*
X284496Y286006D01*
X286159Y285560D01*
X287881D01*
X289544Y286006D01*
X291036Y286867D01*
X292253Y288084D01*
X293114Y289576D01*
X293560Y291239D01*
Y292961D01*
X293114Y294624D01*
X292253Y296116D01*
X291036Y297333D01*
X289544Y298194D01*
X287881Y298640D01*
D02*
G37*
G36*
X243859Y286870D02*
X241281D01*
X238791Y286203D01*
X236559Y284914D01*
X234736Y283091D01*
X233447Y280859D01*
X232780Y278369D01*
Y275791D01*
X233045Y274803D01*
X232147Y273905D01*
X231159Y274170D01*
X228581D01*
X226091Y273503D01*
X223859Y272214D01*
X222036Y270391D01*
X220747Y268159D01*
X220080Y265669D01*
Y263091D01*
X220747Y260601D01*
X222036Y258369D01*
X223859Y256546D01*
X226091Y255257D01*
X228581Y254590D01*
X231159D01*
X233649Y255257D01*
X235881Y256546D01*
X237704Y258369D01*
X238993Y260601D01*
X239660Y263091D01*
Y265669D01*
X239395Y266657D01*
X240293Y267555D01*
X241281Y267290D01*
X243859D01*
X244847Y267555D01*
X245745Y266657D01*
X245480Y265669D01*
Y263091D01*
X246147Y260601D01*
X247436Y258369D01*
X249259Y256546D01*
X251491Y255257D01*
X253981Y254590D01*
X256559D01*
X259049Y255257D01*
X261281Y256546D01*
X263104Y258369D01*
X264393Y260601D01*
X265060Y263091D01*
Y265669D01*
X264393Y268159D01*
X263104Y270391D01*
X261281Y272214D01*
X259049Y273503D01*
X256559Y274170D01*
X253981D01*
X252993Y273905D01*
X252095Y274803D01*
X252360Y275791D01*
Y278369D01*
X251693Y280859D01*
X250404Y283091D01*
X248581Y284914D01*
X246349Y286203D01*
X243859Y286870D01*
D02*
G37*
G36*
X287881Y273240D02*
X286159D01*
X284496Y272794D01*
X283004Y271933D01*
X281787Y270716D01*
X280926Y269224D01*
X280480Y267561D01*
Y265839D01*
X280926Y264176D01*
X281787Y262684D01*
X283004Y261467D01*
X284496Y260606D01*
X286159Y260160D01*
X287881D01*
X289544Y260606D01*
X291036Y261467D01*
X292253Y262684D01*
X293114Y264176D01*
X293560Y265839D01*
Y267561D01*
X293114Y269224D01*
X292253Y270716D01*
X291036Y271933D01*
X289544Y272794D01*
X287881Y273240D01*
D02*
G37*
G36*
X415358Y276860D02*
X412682D01*
X410098Y276168D01*
X407782Y274830D01*
X405890Y272938D01*
X404552Y270622D01*
X403860Y268038D01*
Y265362D01*
X404552Y262778D01*
X405890Y260462D01*
X407782Y258570D01*
X410098Y257232D01*
X412682Y256540D01*
X415358D01*
X417942Y257232D01*
X420258Y258570D01*
X422150Y260462D01*
X423488Y262778D01*
X424180Y265362D01*
Y268038D01*
X423488Y270622D01*
X422150Y272938D01*
X420258Y274830D01*
X417942Y276168D01*
X415358Y276860D01*
D02*
G37*
G36*
X389958D02*
X387282D01*
X384698Y276168D01*
X382382Y274830D01*
X380490Y272938D01*
X379152Y270622D01*
X378460Y268038D01*
Y265362D01*
X379152Y262778D01*
X380490Y260462D01*
X382382Y258570D01*
X384698Y257232D01*
X387282Y256540D01*
X389958D01*
X392542Y257232D01*
X394858Y258570D01*
X396750Y260462D01*
X398088Y262778D01*
X398780Y265362D01*
Y268038D01*
X398088Y270622D01*
X396750Y272938D01*
X394858Y274830D01*
X392542Y276168D01*
X389958Y276860D01*
D02*
G37*
G36*
X364558D02*
X361882D01*
X359298Y276168D01*
X356982Y274830D01*
X355090Y272938D01*
X353752Y270622D01*
X353060Y268038D01*
Y265362D01*
X353752Y262778D01*
X355090Y260462D01*
X356982Y258570D01*
X359298Y257232D01*
X361882Y256540D01*
X364558D01*
X367142Y257232D01*
X369458Y258570D01*
X371350Y260462D01*
X372688Y262778D01*
X373380Y265362D01*
Y268038D01*
X372688Y270622D01*
X371350Y272938D01*
X369458Y274830D01*
X367142Y276168D01*
X364558Y276860D01*
D02*
G37*
G36*
X339158D02*
X336482D01*
X333898Y276168D01*
X331582Y274830D01*
X329690Y272938D01*
X328352Y270622D01*
X327660Y268038D01*
Y265362D01*
X328352Y262778D01*
X329690Y260462D01*
X331582Y258570D01*
X333898Y257232D01*
X336482Y256540D01*
X339158D01*
X341742Y257232D01*
X344058Y258570D01*
X345950Y260462D01*
X347288Y262778D01*
X347980Y265362D01*
Y268038D01*
X347288Y270622D01*
X345950Y272938D01*
X344058Y274830D01*
X341742Y276168D01*
X339158Y276860D01*
D02*
G37*
G36*
X287881Y247840D02*
X286159D01*
X284496Y247394D01*
X283004Y246533D01*
X281787Y245316D01*
X280926Y243824D01*
X280480Y242161D01*
Y240439D01*
X280926Y238776D01*
X281787Y237284D01*
X283004Y236067D01*
X284496Y235206D01*
X286159Y234760D01*
X287881D01*
X289544Y235206D01*
X291036Y236067D01*
X292253Y237284D01*
X293114Y238776D01*
X293560Y240439D01*
Y242161D01*
X293114Y243824D01*
X292253Y245316D01*
X291036Y246533D01*
X289544Y247394D01*
X287881Y247840D01*
D02*
G37*
G36*
X480480Y231560D02*
X464400D01*
Y218683D01*
X463300Y218048D01*
X462843Y218312D01*
X460798Y218860D01*
X458681D01*
X456637Y218312D01*
X454803Y217254D01*
X453306Y215757D01*
X452248Y213923D01*
X451700Y211879D01*
Y209762D01*
X452248Y207717D01*
X453306Y205883D01*
X454803Y204386D01*
X456637Y203328D01*
X458681Y202780D01*
X460798D01*
X462843Y203328D01*
X464677Y204386D01*
X466174Y205883D01*
X467232Y207717D01*
X467780Y209762D01*
Y211879D01*
X467232Y213923D01*
X466968Y214380D01*
X467603Y215480D01*
X480480D01*
Y231560D01*
D02*
G37*
G36*
X287881Y222440D02*
X286159D01*
X284496Y221994D01*
X283004Y221133D01*
X281787Y219916D01*
X280926Y218424D01*
X280480Y216761D01*
Y215039D01*
X280926Y213376D01*
X281787Y211884D01*
X283004Y210667D01*
X284496Y209806D01*
X286159Y209360D01*
X287881D01*
X289544Y209806D01*
X291036Y210667D01*
X292253Y211884D01*
X293114Y213376D01*
X293560Y215039D01*
Y216761D01*
X293114Y218424D01*
X292253Y219916D01*
X291036Y221133D01*
X289544Y221994D01*
X287881Y222440D01*
D02*
G37*
G36*
X241319Y208130D02*
X238741D01*
X236251Y207463D01*
X234019Y206174D01*
X232196Y204351D01*
X230907Y202119D01*
X230240Y199629D01*
Y197051D01*
X230505Y196063D01*
X229607Y195165D01*
X228619Y195430D01*
X226041D01*
X223551Y194763D01*
X221319Y193474D01*
X219496Y191651D01*
X218207Y189419D01*
X217540Y186929D01*
Y184351D01*
X218207Y181861D01*
X219496Y179629D01*
X221319Y177806D01*
X223551Y176517D01*
X226041Y175850D01*
X228619D01*
X231109Y176517D01*
X233341Y177806D01*
X235164Y179629D01*
X236453Y181861D01*
X237120Y184351D01*
Y186929D01*
X236855Y187917D01*
X237753Y188815D01*
X238741Y188550D01*
X241319D01*
X242307Y188815D01*
X243205Y187917D01*
X242940Y186929D01*
Y184351D01*
X243607Y181861D01*
X244896Y179629D01*
X246719Y177806D01*
X248951Y176517D01*
X251441Y175850D01*
X254019D01*
X256509Y176517D01*
X258741Y177806D01*
X260564Y179629D01*
X261853Y181861D01*
X262520Y184351D01*
Y186929D01*
X261853Y189419D01*
X260564Y191651D01*
X258741Y193474D01*
X256509Y194763D01*
X254019Y195430D01*
X251441D01*
X250453Y195165D01*
X249555Y196063D01*
X249820Y197051D01*
Y199629D01*
X249153Y202119D01*
X247864Y204351D01*
X246041Y206174D01*
X243809Y207463D01*
X241319Y208130D01*
D02*
G37*
G36*
X473498Y206160D02*
X471381D01*
X469337Y205612D01*
X467503Y204554D01*
X466006Y203057D01*
X464948Y201223D01*
X464400Y199179D01*
Y197062D01*
X464948Y195017D01*
X466006Y193183D01*
X467503Y191686D01*
X469337Y190628D01*
X471381Y190080D01*
X473498D01*
X475543Y190628D01*
X477377Y191686D01*
X478874Y193183D01*
X479932Y195017D01*
X480480Y197062D01*
Y199179D01*
X479932Y201223D01*
X478874Y203057D01*
X477377Y204554D01*
X475543Y205612D01*
X473498Y206160D01*
D02*
G37*
G36*
X287881Y197040D02*
X286159D01*
X284496Y196594D01*
X283004Y195733D01*
X281787Y194516D01*
X280926Y193024D01*
X280480Y191361D01*
Y189639D01*
X280926Y187976D01*
X281787Y186484D01*
X283004Y185267D01*
X284496Y184406D01*
X286159Y183960D01*
X287881D01*
X289544Y184406D01*
X291036Y185267D01*
X292253Y186484D01*
X293114Y187976D01*
X293560Y189639D01*
Y191361D01*
X293114Y193024D01*
X292253Y194516D01*
X291036Y195733D01*
X289544Y196594D01*
X287881Y197040D01*
D02*
G37*
G36*
X415358Y200660D02*
X412682D01*
X410098Y199968D01*
X407782Y198630D01*
X405890Y196738D01*
X404552Y194422D01*
X403860Y191838D01*
Y189162D01*
X404552Y186578D01*
X405890Y184262D01*
X407782Y182370D01*
X410098Y181032D01*
X412682Y180340D01*
X415358D01*
X417942Y181032D01*
X420258Y182370D01*
X422150Y184262D01*
X423488Y186578D01*
X424180Y189162D01*
Y191838D01*
X423488Y194422D01*
X422150Y196738D01*
X420258Y198630D01*
X417942Y199968D01*
X415358Y200660D01*
D02*
G37*
G36*
X364558D02*
X361882D01*
X359298Y199968D01*
X356982Y198630D01*
X355090Y196738D01*
X353752Y194422D01*
X353060Y191838D01*
Y189162D01*
X353752Y186578D01*
X355090Y184262D01*
X356982Y182370D01*
X359298Y181032D01*
X361882Y180340D01*
X364558D01*
X367142Y181032D01*
X369458Y182370D01*
X371350Y184262D01*
X372688Y186578D01*
X373380Y189162D01*
Y191838D01*
X372688Y194422D01*
X371350Y196738D01*
X369458Y198630D01*
X367142Y199968D01*
X364558Y200660D01*
D02*
G37*
G36*
X339158D02*
X336482D01*
X333898Y199968D01*
X331582Y198630D01*
X329690Y196738D01*
X328352Y194422D01*
X327660Y191838D01*
Y189162D01*
X328352Y186578D01*
X329690Y184262D01*
X331582Y182370D01*
X333898Y181032D01*
X336482Y180340D01*
X339158D01*
X341742Y181032D01*
X344058Y182370D01*
X345950Y184262D01*
X347288Y186578D01*
X347980Y189162D01*
Y191838D01*
X347288Y194422D01*
X345950Y196738D01*
X344058Y198630D01*
X341742Y199968D01*
X339158Y200660D01*
D02*
G37*
G36*
X287881Y171640D02*
X286159D01*
X284496Y171194D01*
X283004Y170333D01*
X281787Y169116D01*
X280926Y167624D01*
X280480Y165961D01*
Y164239D01*
X280926Y162576D01*
X281787Y161084D01*
X283004Y159867D01*
X284496Y159006D01*
X286159Y158560D01*
X287881D01*
X289544Y159006D01*
X291036Y159867D01*
X292253Y161084D01*
X293114Y162576D01*
X293560Y164239D01*
Y165961D01*
X293114Y167624D01*
X292253Y169116D01*
X291036Y170333D01*
X289544Y171194D01*
X287881Y171640D01*
D02*
G37*
G36*
X420020Y155860D02*
X402940D01*
Y143394D01*
X401670Y142687D01*
X399904Y143160D01*
X397656D01*
X395484Y142578D01*
X393536Y141454D01*
X391946Y139864D01*
X390822Y137916D01*
X390240Y135744D01*
Y133496D01*
X390822Y131324D01*
X391946Y129376D01*
X393536Y127786D01*
X395484Y126662D01*
X397656Y126080D01*
X399904D01*
X402076Y126662D01*
X403297Y127367D01*
X404227Y126437D01*
X403522Y125216D01*
X402940Y123044D01*
Y120796D01*
X403522Y118624D01*
X404646Y116676D01*
X406236Y115086D01*
X408184Y113962D01*
X410356Y113380D01*
X412604D01*
X414776Y113962D01*
X416724Y115086D01*
X418314Y116676D01*
X419438Y118624D01*
X420020Y120796D01*
Y123044D01*
X419438Y125216D01*
X418314Y127164D01*
X416724Y128754D01*
X414776Y129878D01*
X412604Y130460D01*
X410356D01*
X408184Y129878D01*
X406963Y129173D01*
X406033Y130103D01*
X406738Y131324D01*
X407320Y133496D01*
Y135744D01*
X406847Y137510D01*
X407554Y138780D01*
X420020D01*
Y155860D01*
D02*
G37*
G36*
X287881Y146240D02*
X286159D01*
X284496Y145794D01*
X283004Y144933D01*
X281787Y143716D01*
X280926Y142224D01*
X280480Y140561D01*
Y138839D01*
X280926Y137176D01*
X281787Y135684D01*
X283004Y134467D01*
X284496Y133606D01*
X286159Y133160D01*
X287881D01*
X289544Y133606D01*
X291036Y134467D01*
X292253Y135684D01*
X293114Y137176D01*
X293560Y138839D01*
Y140561D01*
X293114Y142224D01*
X292253Y143716D01*
X291036Y144933D01*
X289544Y145794D01*
X287881Y146240D01*
D02*
G37*
G36*
X158341Y139890D02*
X156619D01*
X154956Y139444D01*
X153464Y138583D01*
X152247Y137366D01*
X151386Y135874D01*
X150940Y134211D01*
Y132489D01*
X151386Y130826D01*
X152247Y129334D01*
X153464Y128117D01*
X154956Y127256D01*
X156619Y126810D01*
X158341D01*
X160004Y127256D01*
X161496Y128117D01*
X162713Y129334D01*
X163574Y130826D01*
X164020Y132489D01*
Y134211D01*
X163574Y135874D01*
X162713Y137366D01*
X161496Y138583D01*
X160004Y139444D01*
X158341Y139890D01*
D02*
G37*
G36*
X287881Y120840D02*
X286159D01*
X284496Y120394D01*
X283004Y119533D01*
X281787Y118316D01*
X280926Y116824D01*
X280480Y115161D01*
Y113439D01*
X280926Y111776D01*
X281787Y110284D01*
X283004Y109067D01*
X284496Y108206D01*
X286159Y107760D01*
X287881D01*
X289544Y108206D01*
X291036Y109067D01*
X292253Y110284D01*
X293114Y111776D01*
X293560Y113439D01*
Y115161D01*
X293114Y116824D01*
X292253Y118316D01*
X291036Y119533D01*
X289544Y120394D01*
X287881Y120840D01*
D02*
G37*
G36*
Y95440D02*
X286159D01*
X284496Y94994D01*
X283004Y94133D01*
X281787Y92916D01*
X280926Y91424D01*
X280480Y89761D01*
Y88039D01*
X280926Y86376D01*
X281787Y84884D01*
X283004Y83667D01*
X284496Y82806D01*
X286159Y82360D01*
X287881D01*
X289544Y82806D01*
X291036Y83667D01*
X292253Y84884D01*
X293114Y86376D01*
X293560Y88039D01*
Y89761D01*
X293114Y91424D01*
X292253Y92916D01*
X291036Y94133D01*
X289544Y94994D01*
X287881Y95440D01*
D02*
G37*
G36*
X458061Y72580D02*
X456339D01*
X454676Y72134D01*
X453184Y71273D01*
X451967Y70056D01*
X451106Y68564D01*
X450660Y66901D01*
Y65179D01*
X451106Y63516D01*
X451967Y62024D01*
X453184Y60807D01*
X454676Y59946D01*
X456339Y59500D01*
X458061D01*
X459724Y59946D01*
X461216Y60807D01*
X462433Y62024D01*
X463294Y63516D01*
X463740Y65179D01*
Y66901D01*
X463294Y68564D01*
X462433Y70056D01*
X461216Y71273D01*
X459724Y72134D01*
X458061Y72580D01*
D02*
G37*
G36*
X432661D02*
X430939D01*
X429276Y72134D01*
X427784Y71273D01*
X426567Y70056D01*
X425706Y68564D01*
X425260Y66901D01*
Y65179D01*
X425706Y63516D01*
X426567Y62024D01*
X427784Y60807D01*
X429276Y59946D01*
X430939Y59500D01*
X432661D01*
X434324Y59946D01*
X435816Y60807D01*
X437033Y62024D01*
X437894Y63516D01*
X438340Y65179D01*
Y66901D01*
X437894Y68564D01*
X437033Y70056D01*
X435816Y71273D01*
X434324Y72134D01*
X432661Y72580D01*
D02*
G37*
G36*
X407261D02*
X405539D01*
X403876Y72134D01*
X402384Y71273D01*
X401167Y70056D01*
X400306Y68564D01*
X399860Y66901D01*
Y65179D01*
X400306Y63516D01*
X401167Y62024D01*
X402384Y60807D01*
X403876Y59946D01*
X405539Y59500D01*
X407261D01*
X408924Y59946D01*
X410416Y60807D01*
X411633Y62024D01*
X412494Y63516D01*
X412940Y65179D01*
Y66901D01*
X412494Y68564D01*
X411633Y70056D01*
X410416Y71273D01*
X408924Y72134D01*
X407261Y72580D01*
D02*
G37*
G36*
X381861D02*
X380139D01*
X378476Y72134D01*
X376984Y71273D01*
X375767Y70056D01*
X374906Y68564D01*
X374460Y66901D01*
Y65179D01*
X374906Y63516D01*
X375767Y62024D01*
X376984Y60807D01*
X378476Y59946D01*
X380139Y59500D01*
X381861D01*
X383524Y59946D01*
X385016Y60807D01*
X386233Y62024D01*
X387094Y63516D01*
X387540Y65179D01*
Y66901D01*
X387094Y68564D01*
X386233Y70056D01*
X385016Y71273D01*
X383524Y72134D01*
X381861Y72580D01*
D02*
G37*
G36*
X356461D02*
X354739D01*
X353076Y72134D01*
X351584Y71273D01*
X350367Y70056D01*
X349506Y68564D01*
X349060Y66901D01*
Y65179D01*
X349506Y63516D01*
X350367Y62024D01*
X351584Y60807D01*
X353076Y59946D01*
X354739Y59500D01*
X356461D01*
X358124Y59946D01*
X359616Y60807D01*
X360833Y62024D01*
X361694Y63516D01*
X362140Y65179D01*
Y66901D01*
X361694Y68564D01*
X360833Y70056D01*
X359616Y71273D01*
X358124Y72134D01*
X356461Y72580D01*
D02*
G37*
G36*
X331061D02*
X329339D01*
X327676Y72134D01*
X326184Y71273D01*
X324967Y70056D01*
X324106Y68564D01*
X323660Y66901D01*
Y65179D01*
X324106Y63516D01*
X324967Y62024D01*
X326184Y60807D01*
X327676Y59946D01*
X329339Y59500D01*
X331061D01*
X332724Y59946D01*
X334216Y60807D01*
X335433Y62024D01*
X336294Y63516D01*
X336740Y65179D01*
Y66901D01*
X336294Y68564D01*
X335433Y70056D01*
X334216Y71273D01*
X332724Y72134D01*
X331061Y72580D01*
D02*
G37*
G36*
X305661D02*
X303939D01*
X302276Y72134D01*
X300784Y71273D01*
X299567Y70056D01*
X298706Y68564D01*
X298260Y66901D01*
Y65179D01*
X298706Y63516D01*
X299567Y62024D01*
X300784Y60807D01*
X302276Y59946D01*
X303939Y59500D01*
X305661D01*
X307324Y59946D01*
X308816Y60807D01*
X310033Y62024D01*
X310894Y63516D01*
X311340Y65179D01*
Y66901D01*
X310894Y68564D01*
X310033Y70056D01*
X308816Y71273D01*
X307324Y72134D01*
X305661Y72580D01*
D02*
G37*
G36*
X190830Y66020D02*
X170550D01*
Y45740D01*
X190830D01*
Y66020D01*
D02*
G37*
%LPD*%
D33*
X180690Y55880D02*
D03*
D34*
X256190D02*
D03*
D35*
X411480Y121920D02*
D03*
X398780Y134620D02*
D03*
X350520Y372110D02*
D03*
X393881Y390070D02*
D03*
X357960Y354150D02*
D03*
Y390070D02*
D03*
X401320Y372110D02*
D03*
D36*
X411480Y147320D02*
D03*
D39*
X118850Y160000D02*
D03*
X88850Y206350D02*
D03*
Y113650D02*
D03*
Y240650D02*
D03*
Y333350D02*
D03*
X118850Y287000D02*
D03*
D40*
X252730Y185640D02*
D03*
X240030Y198340D02*
D03*
X227330Y185640D02*
D03*
X229870Y264380D02*
D03*
X242570Y277080D02*
D03*
X255270Y264380D02*
D03*
D41*
X393881Y354150D02*
D03*
D45*
X459740Y210820D02*
D03*
X472440Y198120D02*
D03*
D46*
Y223520D02*
D03*
D50*
X700000Y400000D02*
D03*
X50000Y50000D02*
D03*
X700000D02*
D03*
X50000Y400000D02*
D03*
D51*
X698500Y250400D02*
D03*
D52*
Y199600D02*
D03*
D53*
X624840Y199920D02*
D03*
Y131580D02*
D03*
X647700Y391160D02*
D03*
Y342900D02*
D03*
Y292100D02*
D03*
Y241300D02*
D03*
Y190500D02*
D03*
Y139700D02*
D03*
X647715Y89347D02*
D03*
X609600Y66040D02*
D03*
X558800D02*
D03*
X508000D02*
D03*
X457200D02*
D03*
X406400D02*
D03*
X381000D02*
D03*
X355600D02*
D03*
X304800D02*
D03*
X287020Y88900D02*
D03*
Y114300D02*
D03*
Y139700D02*
D03*
Y165100D02*
D03*
Y190500D02*
D03*
Y215900D02*
D03*
Y241300D02*
D03*
Y266700D02*
D03*
Y292100D02*
D03*
Y317500D02*
D03*
Y342900D02*
D03*
Y393700D02*
D03*
Y368300D02*
D03*
X317500Y419100D02*
D03*
X444500D02*
D03*
X495300D02*
D03*
X546100D02*
D03*
X596900D02*
D03*
X330200Y66040D02*
D03*
X431800D02*
D03*
X435610Y356870D02*
D03*
X157480Y133350D02*
D03*
X444530Y328400D02*
D03*
X417860Y316200D02*
D03*
X546100Y132080D02*
D03*
X518160D02*
D03*
X472440Y304800D02*
D03*
X194310Y93980D02*
D03*
X464820Y92120D02*
D03*
X144810Y277080D02*
D03*
Y213580D02*
D03*
X314960Y297180D02*
D03*
D54*
X647700Y368300D02*
D03*
Y317500D02*
D03*
Y266700D02*
D03*
Y215900D02*
D03*
Y165100D02*
D03*
X622300Y419100D02*
D03*
X571500D02*
D03*
X520700D02*
D03*
X469900D02*
D03*
X419100D02*
D03*
X342900D02*
D03*
X482600Y66040D02*
D03*
X533400D02*
D03*
X584200D02*
D03*
X635000D02*
D03*
X647700Y114300D02*
D03*
X715875Y416364D02*
D03*
X684125Y383636D02*
D03*
X715875D02*
D03*
X684125Y416364D02*
D03*
X722860Y400000D02*
D03*
X677140D02*
D03*
X700000Y377140D02*
D03*
Y422860D02*
D03*
X65876Y66364D02*
D03*
X34125Y33636D02*
D03*
X65876D02*
D03*
X34125Y66364D02*
D03*
X72860Y50000D02*
D03*
X27140D02*
D03*
X50000Y27140D02*
D03*
Y72860D02*
D03*
X715875Y66364D02*
D03*
X684125Y33636D02*
D03*
X715875D02*
D03*
X684125Y66364D02*
D03*
X722860Y50000D02*
D03*
X677140D02*
D03*
X700000Y27140D02*
D03*
Y72860D02*
D03*
X65876Y416364D02*
D03*
X34125Y383636D02*
D03*
X65876D02*
D03*
X34125Y416364D02*
D03*
X72860Y400000D02*
D03*
X27140D02*
D03*
X50000Y377140D02*
D03*
Y422860D02*
D03*
D55*
X414020Y266700D02*
D03*
X388620D02*
D03*
X363220D02*
D03*
X337820D02*
D03*
Y190500D02*
D03*
X363220D02*
D03*
X388620D02*
D03*
X414020D02*
D03*
M02*
