G04*
G04 #@! TF.GenerationSoftware,Altium Limited,Altium Designer,24.9.1 (31)*
G04*
G04 Layer_Color=16711935*
%FSLAX44Y44*%
%MOMM*%
G71*
G04*
G04 #@! TF.SameCoordinates,CAE1AE67-0460-43A2-896A-31C629D7927E*
G04*
G04*
G04 #@! TF.FilePolarity,Positive*
G04*
G01*
G75*
%ADD10C,0.1500*%
%ADD12C,0.2000*%
%ADD56C,0.0000*%
%ADD57C,0.0254*%
%ADD58C,0.1000*%
%ADD59C,0.0762*%
D10*
X440680Y134620D02*
G03*
X440680Y134620I-29200J0D01*
G01*
X422920Y372110D02*
G03*
X422920Y372110I-47000J0D01*
G01*
X501640Y210820D02*
G03*
X501640Y210820I-29200J0D01*
G01*
D12*
X266690Y33030D02*
Y78730D01*
X170190Y33030D02*
X266690D01*
X170190D02*
Y78730D01*
X266690D01*
X214030Y210390D02*
X266030D01*
X214030Y168490D02*
Y210390D01*
Y168490D02*
X266030D01*
Y210390D01*
X473320Y110990D02*
Y148090D01*
X456320Y110990D02*
X473320D01*
X456320D02*
Y148090D01*
X473320D01*
X268570Y247230D02*
Y289130D01*
X216570Y247230D02*
X268570D01*
X216570D02*
Y289130D01*
X268570D01*
D56*
X426720Y231648D02*
G03*
X426720Y225552I0J-3048D01*
G01*
D57*
X409067Y266700D02*
X418973D01*
Y271653D01*
X409067D02*
X418973D01*
X409067Y266700D02*
Y271653D01*
X383667Y266700D02*
X393573D01*
Y271653D01*
X383667D02*
X393573D01*
X383667Y266700D02*
Y271653D01*
X358267Y266700D02*
X368173D01*
Y271653D01*
X358267D02*
X368173D01*
X358267Y266700D02*
Y271653D01*
X332867Y266700D02*
X342773D01*
Y271653D01*
X332867D02*
X342773D01*
X332867Y266700D02*
Y271653D01*
Y190500D02*
X342773D01*
X332867Y185547D02*
Y190500D01*
Y185547D02*
X342773D01*
Y190500D01*
X358267D02*
X368173D01*
X358267Y185547D02*
Y190500D01*
Y185547D02*
X368173D01*
Y190500D01*
X383667D02*
X393573D01*
X383667Y185547D02*
Y190500D01*
Y185547D02*
X393573D01*
Y190500D01*
X409067D02*
X418973D01*
X409067Y185547D02*
Y190500D01*
Y185547D02*
X418973D01*
Y190500D01*
X325120D02*
Y266700D01*
Y190500D02*
X426720D01*
Y266700D01*
X325120D02*
X426720D01*
D58*
X323688Y320002D02*
X338433Y330327D01*
X304187Y347853D02*
X318932Y358178D01*
X304187Y347853D02*
X323688Y320002D01*
X318932Y358178D02*
X338433Y330327D01*
X208540Y141610D02*
X241040D01*
X208540Y158110D02*
X241040D01*
Y141610D02*
Y158110D01*
X208540Y141610D02*
Y158110D01*
X155200Y141610D02*
X187700D01*
X155200Y158110D02*
X187700D01*
Y141610D02*
Y158110D01*
X155200Y141610D02*
Y158110D01*
X447550Y325400D02*
Y360400D01*
X479550D01*
Y325400D02*
Y360400D01*
X447550Y325400D02*
X479550D01*
X447300Y398140D02*
X479800D01*
X447300Y381640D02*
X479800D01*
X447300D02*
Y398140D01*
X479800Y381640D02*
Y398140D01*
X331730Y305430D02*
X364230D01*
X331730Y288930D02*
X364230D01*
X331730D02*
Y305430D01*
X364230Y288930D02*
Y305430D01*
X183310Y110090D02*
Y123590D01*
X205310Y110090D02*
Y123590D01*
X183310Y110090D02*
X205310D01*
X183310Y123590D02*
X205310D01*
X155580Y179330D02*
Y211830D01*
X172080Y179330D02*
Y211830D01*
X155580Y179330D02*
X172080D01*
X155580Y211830D02*
X172080D01*
X526410Y148850D02*
Y181350D01*
X509910Y148850D02*
Y181350D01*
X526410D01*
X509910Y148850D02*
X526410D01*
X554350D02*
Y181350D01*
X537850Y148850D02*
Y181350D01*
X554350D01*
X537850Y148850D02*
X554350D01*
X615840Y148100D02*
X633840D01*
X615840Y182100D02*
X633840D01*
X615840Y148100D02*
Y182100D01*
X633840Y148100D02*
Y182100D01*
X567950Y192410D02*
Y208910D01*
X600450Y192410D02*
Y208910D01*
X567950D02*
X600450D01*
X567950Y192410D02*
X600450D01*
X464190Y288030D02*
X480690D01*
X464190Y255530D02*
X480690D01*
Y288030D01*
X464190Y255530D02*
Y288030D01*
X223780Y220350D02*
Y236850D01*
X256280Y220350D02*
Y236850D01*
X223780D02*
X256280D01*
X223780Y220350D02*
X256280D01*
X186060Y275330D02*
X202560D01*
X186060Y242830D02*
X202560D01*
Y275330D01*
X186060Y242830D02*
Y275330D01*
Y211830D02*
X202560D01*
X186060Y179330D02*
X202560D01*
Y211830D01*
X186060Y179330D02*
Y211830D01*
X354970Y166110D02*
X371470D01*
X354970Y133610D02*
X371470D01*
Y166110D01*
X354970Y133610D02*
Y166110D01*
X387610Y288930D02*
Y305430D01*
X420110Y288930D02*
Y305430D01*
X387610D02*
X420110D01*
X387610Y288930D02*
X420110D01*
X155580Y242830D02*
Y275330D01*
X172080Y242830D02*
Y275330D01*
X155580Y242830D02*
X172080D01*
X155580Y275330D02*
X172080D01*
X731771Y172913D02*
X733270Y171130D01*
X731771Y172913D02*
Y174199D01*
X733270Y168500D02*
Y171128D01*
X658001Y174199D02*
Y275799D01*
X739001Y174199D02*
Y275799D01*
X658001Y174199D02*
X739001D01*
X658001Y275799D02*
X739001D01*
X726133Y168500D02*
X733270D01*
X726132Y168501D02*
X726133Y168500D01*
X726132Y168499D02*
Y171128D01*
X727632Y172913D02*
Y174199D01*
X726130Y171130D02*
X727632Y172913D01*
D59*
X418250Y267335D02*
X409786Y258871D01*
Y267335D02*
X418250Y258871D01*
X414018Y267335D02*
Y258871D01*
X409786Y263103D02*
X418250D01*
M02*
