M48
;Layer_Color=9474304
;FILE_FORMAT=4:4
METRIC,LZ
;TYPE=PLATED
T01F00S00C0.3000
T02F00S00C0.4000
T03F00S00C0.6000
T04F00S00C0.7000
T05F00S00C0.9500
T06F00S00C0.9700
T07F00S00C0.9906
T08F00S00C1.3000
T09F00S00C1.7700
T10F00S00C3.3000
%
T01
X00034125Y00033636
X0005Y0002714
X00065876Y00033636
X0007286Y0005
X00065876Y00066364
X0005Y0007286
X00034125Y00066364
X0002714Y0005
X004826Y0006604
X005334
X005842
X00635
X00684125Y00066364
X007Y0007286
X00715875Y00066364
X0072286Y0005
X00715875Y00033636
X007Y0002714
X00684125Y00033636
X0067714Y0005
X006477Y001143
Y001651
Y002159
Y002667
Y003175
Y003683
X00684125Y00383636
X007Y0037714
X00715875Y00383636
X0072286Y004
X00715875Y00416364
X007Y0042286
X00684125Y00416364
X0067714Y004
X006223Y004191
X005715
X005207
X004699
X004191
X003429
X00065876Y00416364
X0005Y0042286
X00034125Y00416364
X0002714Y004
X00034125Y00383636
X0005Y0037714
X00065876Y00383636
X0007286Y004
T02
X0019431Y0009398
X0015748Y0013335
X0028702Y001397
Y001143
Y000889
X003048Y0006604
X003302
X003556
X00381
X004064
X004318
X004572
X0046482Y0009212
X00508Y0006604
X0051816Y0013208
X005461
X005588Y0006604
X006096
X00647715Y00089347
X006477Y001397
X0062484Y0013158
Y0019992
X006477Y001905
Y002413
Y002921
Y003429
Y0039116
X005969Y004191
X005461
X004953
X004445
X0043561Y0035687
X0044453Y003284
X0041786Y003162
X0047244Y003048
X0031496Y0029718
X0028702Y002921
Y002667
Y002413
Y002159
Y001905
Y001651
Y003175
Y003429
Y003683
Y003937
X003175Y004191
X0014481Y0027708
Y0021358
T03
X0045974Y0021082
X0047244Y0022352
Y0019812
T04
X0041148Y0012192
X0039878Y0013462
X0041148Y0014732
X00393881Y0035415
X0040132Y0037211
X00393881Y0039007
X0035796
X0035052Y0037211
X0035796Y0035415
T05
X0022733Y0018564
X0025273
X0024003Y0019834
X0022987Y0026438
X0024257Y0027708
X0025527Y0026438
T06
X0018069Y0005588
X0025619
T07
X0033782Y001905
X0036322
X0038862
X0041402
Y002667
X0038862
X0036322
X0033782
T08
X006985Y001996
Y002504
T09
X0008885Y0011365
X0011885Y0016
X0008885Y0020635
Y0024065
X0011885Y00287
X0008885Y0033335
T10
X0005Y0005
X007
Y004
X0005
M30
